%
M48
M72
T01C0.01378
T02C0.03600
T03C0.04000
T04C0.09843
%
T01
X49725Y67300
X42113Y90397
X34371Y102339
X34765Y110607
X59174Y89347
X74922Y78324
X93426Y99583
X93032Y116119
X92639Y144072
X92639Y151946
X43426Y138954
X110355Y75174
X119017Y78324
X137127Y85804
X161930Y107457
X161930Y111788
X174135Y122418
X174135Y126355
X174135Y130686
X174135Y136591
X180828Y98402
X165080Y92891
X166309Y84161
T02
X14961Y56749
X24961Y56749
X24961Y66749
X14961Y66749
X14961Y76749
X14961Y86749
X24961Y86749
X24961Y76749
X24961Y96749
X14961Y96749
X14961Y106749
X24961Y106749
X24961Y116749
X14961Y116749
X14961Y126749
X24961Y126749
X24961Y136749
X14961Y136749
X14961Y146749
X24961Y146749
T03
X51607Y54800
X61450Y54800
X96926Y54800
X106769Y54800
X116611Y54800
X126454Y54800
X161410Y54879
X171253Y54879
T04
X48544Y81867
X48544Y161198
X180040Y160017
X180040Y83048
M30
