G75*
%MOIN*%
%OFA0B0*%
%FSLAX25Y25*%
%IPPOS*%
%LPD*%
%AMOC8*
5,1,8,0,0,1.08239X$1,22.5*
%
%ADD10C,0.00600*%
%ADD11C,0.00000*%
%ADD12C,0.05600*%
%ADD13OC8,0.05600*%
%ADD14C,0.06000*%
%ADD15C,0.02578*%
D10*
X0001300Y0034623D02*
X0001300Y0168875D01*
X0189095Y0168875D01*
X0189095Y0034623D01*
X0001300Y0034623D01*
X0002900Y0036223D02*
X0002900Y0167275D01*
X0046959Y0167275D01*
X0045020Y0166472D01*
X0043270Y0164722D01*
X0042323Y0162435D01*
X0042323Y0159960D01*
X0043270Y0157674D01*
X0045020Y0155924D01*
X0047307Y0154976D01*
X0049782Y0154976D01*
X0052068Y0155924D01*
X0053818Y0157674D01*
X0054765Y0159960D01*
X0054765Y0162435D01*
X0053818Y0164722D01*
X0052068Y0166472D01*
X0050129Y0167275D01*
X0187495Y0167275D01*
X0187495Y0036223D01*
X0002900Y0036223D01*
X0002900Y0036418D02*
X0187495Y0036418D01*
X0187495Y0037017D02*
X0002900Y0037017D01*
X0002900Y0037615D02*
X0187495Y0037615D01*
X0187495Y0038214D02*
X0002900Y0038214D01*
X0002900Y0038812D02*
X0187495Y0038812D01*
X0187495Y0039411D02*
X0002900Y0039411D01*
X0002900Y0040009D02*
X0187495Y0040009D01*
X0187495Y0040608D02*
X0172932Y0040608D01*
X0172751Y0040445D02*
X0176363Y0043695D01*
X0176399Y0043695D01*
X0176729Y0044024D01*
X0177075Y0044336D01*
X0177077Y0044372D01*
X0178943Y0046239D01*
X0179524Y0046762D01*
X0179803Y0047013D01*
X0179806Y0047071D01*
X0179844Y0047105D01*
X0179846Y0047142D01*
X0179872Y0047168D01*
X0179872Y0047633D01*
X0179882Y0047832D01*
X0179908Y0047858D01*
X0179908Y0048323D01*
X0179932Y0048788D01*
X0179908Y0048815D01*
X0179908Y0059959D01*
X0180059Y0060110D01*
X0180059Y0061104D01*
X0179924Y0061239D01*
X0179924Y0066212D01*
X0179959Y0066253D01*
X0179924Y0066702D01*
X0179924Y0066880D01*
X0179959Y0066921D01*
X0179924Y0067370D01*
X0179924Y0067820D01*
X0179886Y0067858D01*
X0179872Y0068036D01*
X0179872Y0068486D01*
X0179833Y0068524D01*
X0179829Y0068578D01*
X0179773Y0068626D01*
X0179766Y0068715D01*
X0179766Y0068715D01*
X0179766Y0068715D01*
X0179345Y0069075D01*
X0178916Y0069442D01*
X0178790Y0069568D01*
X0178786Y0069622D01*
X0178444Y0069914D01*
X0178125Y0070232D01*
X0178071Y0070232D01*
X0166320Y0080277D01*
X0166320Y0081972D01*
X0167215Y0081972D01*
X0168498Y0083255D01*
X0168498Y0085068D01*
X0167215Y0086350D01*
X0165402Y0086350D01*
X0164539Y0085487D01*
X0164539Y0085583D01*
X0176158Y0097202D01*
X0178932Y0097202D01*
X0179921Y0096213D01*
X0181734Y0096213D01*
X0183017Y0097496D01*
X0183017Y0099309D01*
X0181734Y0100591D01*
X0179921Y0100591D01*
X0178932Y0099602D01*
X0175164Y0099602D01*
X0162139Y0086577D01*
X0162139Y0079278D01*
X0162103Y0079237D01*
X0162139Y0078788D01*
X0162139Y0078338D01*
X0162177Y0078299D01*
X0162181Y0078246D01*
X0162523Y0077953D01*
X0162842Y0077635D01*
X0162896Y0077635D01*
X0175691Y0066698D01*
X0175691Y0048937D01*
X0172493Y0046059D01*
X0128747Y0046059D01*
X0128831Y0046143D01*
X0132135Y0049447D01*
X0132135Y0058249D01*
X0164588Y0090702D01*
X0165986Y0090702D01*
X0167268Y0091984D01*
X0167268Y0093797D01*
X0165986Y0095080D01*
X0164173Y0095080D01*
X0162891Y0093797D01*
X0162891Y0092399D01*
X0130438Y0059946D01*
X0129977Y0059485D01*
X0129760Y0060009D01*
X0128663Y0061106D01*
X0127654Y0061524D01*
X0127654Y0063060D01*
X0183809Y0119215D01*
X0183809Y0126359D01*
X0183848Y0126802D01*
X0183809Y0126848D01*
X0183809Y0126909D01*
X0183495Y0127223D01*
X0177421Y0134471D01*
X0176324Y0135811D01*
X0176324Y0137498D01*
X0175041Y0138780D01*
X0173228Y0138780D01*
X0171946Y0137498D01*
X0171946Y0135685D01*
X0173228Y0134402D01*
X0174376Y0134402D01*
X0175259Y0133323D01*
X0175258Y0133315D01*
X0175573Y0132939D01*
X0175883Y0132560D01*
X0175891Y0132560D01*
X0181409Y0125976D01*
X0181409Y0125109D01*
X0181325Y0125193D01*
X0176324Y0130194D01*
X0176324Y0131593D01*
X0175041Y0132875D01*
X0173228Y0132875D01*
X0172239Y0131886D01*
X0027576Y0131886D01*
X0027232Y0132230D01*
X0018745Y0132230D01*
X0016729Y0130214D01*
X0016494Y0130449D01*
X0013429Y0130449D01*
X0011261Y0128281D01*
X0011261Y0125216D01*
X0013429Y0123049D01*
X0016494Y0123049D01*
X0018661Y0125216D01*
X0018661Y0128281D01*
X0018426Y0128517D01*
X0019740Y0129830D01*
X0022810Y0129830D01*
X0021261Y0128281D01*
X0021261Y0125449D01*
X0019445Y0125449D01*
X0016227Y0122230D01*
X0012691Y0122230D01*
X0009480Y0119019D01*
X0009480Y0104478D01*
X0012691Y0101268D01*
X0032347Y0101268D01*
X0033464Y0100150D01*
X0035278Y0100150D01*
X0036560Y0101433D01*
X0036560Y0103246D01*
X0035278Y0104528D01*
X0033464Y0104528D01*
X0032604Y0103668D01*
X0027113Y0103668D01*
X0028661Y0105216D01*
X0028661Y0108281D01*
X0026494Y0110449D01*
X0023429Y0110449D01*
X0021261Y0108281D01*
X0021261Y0105216D01*
X0022810Y0103668D01*
X0017113Y0103668D01*
X0018661Y0105216D01*
X0018661Y0108281D01*
X0018426Y0108517D01*
X0021177Y0111268D01*
X0027232Y0111268D01*
X0037182Y0121218D01*
X0172239Y0121218D01*
X0173228Y0120229D01*
X0175041Y0120229D01*
X0176324Y0121511D01*
X0176324Y0123325D01*
X0175262Y0124387D01*
X0176324Y0125448D01*
X0176324Y0126800D01*
X0179628Y0123496D01*
X0179628Y0120947D01*
X0175606Y0116925D01*
X0144897Y0116925D01*
X0144194Y0116222D01*
X0105569Y0077596D01*
X0105569Y0061524D01*
X0104559Y0061106D01*
X0103462Y0060009D01*
X0102869Y0058576D01*
X0102869Y0051024D01*
X0103462Y0049591D01*
X0104559Y0048494D01*
X0105993Y0047900D01*
X0107544Y0047900D01*
X0108978Y0048494D01*
X0110075Y0049591D01*
X0110668Y0051024D01*
X0110668Y0058576D01*
X0110075Y0060009D01*
X0108978Y0061106D01*
X0107968Y0061524D01*
X0107968Y0076602D01*
X0145892Y0114525D01*
X0175725Y0114525D01*
X0125254Y0064054D01*
X0125254Y0061524D01*
X0124244Y0061106D01*
X0123147Y0060009D01*
X0122554Y0058576D01*
X0122554Y0051024D01*
X0123147Y0049591D01*
X0124244Y0048494D01*
X0125678Y0047900D01*
X0127194Y0047900D01*
X0127134Y0047840D01*
X0036836Y0047840D01*
X0031634Y0053043D01*
X0031634Y0061892D01*
X0030561Y0062965D01*
X0029858Y0063668D01*
X0027113Y0063668D01*
X0028661Y0065216D01*
X0028661Y0068281D01*
X0026494Y0070449D01*
X0023429Y0070449D01*
X0021261Y0068281D01*
X0021261Y0066091D01*
X0020107Y0067246D01*
X0019404Y0067949D01*
X0018661Y0067949D01*
X0018661Y0068281D01*
X0016494Y0070449D01*
X0013429Y0070449D01*
X0011261Y0068281D01*
X0011261Y0065216D01*
X0013429Y0063049D01*
X0016494Y0063049D01*
X0018661Y0065216D01*
X0018661Y0065297D01*
X0021988Y0061971D01*
X0021988Y0061971D01*
X0022691Y0061268D01*
X0028864Y0061268D01*
X0029234Y0060897D01*
X0029234Y0052049D01*
X0029937Y0051346D01*
X0035223Y0046059D01*
X0027348Y0046059D01*
X0018426Y0054981D01*
X0018661Y0055216D01*
X0018661Y0057406D01*
X0020519Y0055549D01*
X0021261Y0055549D01*
X0021261Y0055216D01*
X0023429Y0053049D01*
X0026494Y0053049D01*
X0028661Y0055216D01*
X0028661Y0058281D01*
X0026494Y0060449D01*
X0023429Y0060449D01*
X0021261Y0058281D01*
X0021261Y0058200D01*
X0017232Y0062230D01*
X0012691Y0062230D01*
X0011988Y0061527D01*
X0009480Y0059019D01*
X0009480Y0054478D01*
X0012305Y0051654D01*
X0012305Y0046724D01*
X0013008Y0046021D01*
X0018210Y0040819D01*
X0018210Y0040819D01*
X0018913Y0040116D01*
X0171893Y0040116D01*
X0172358Y0040091D01*
X0172386Y0040116D01*
X0172422Y0040116D01*
X0172751Y0040445D01*
X0173597Y0041206D02*
X0187495Y0041206D01*
X0187495Y0041805D02*
X0174262Y0041805D01*
X0174927Y0042403D02*
X0187495Y0042403D01*
X0187495Y0043002D02*
X0175592Y0043002D01*
X0176258Y0043601D02*
X0187495Y0043601D01*
X0187495Y0044199D02*
X0176923Y0044199D01*
X0177502Y0044798D02*
X0187495Y0044798D01*
X0187495Y0045396D02*
X0178100Y0045396D01*
X0178699Y0045995D02*
X0187495Y0045995D01*
X0187495Y0046593D02*
X0179337Y0046593D01*
X0179803Y0047013D02*
X0179803Y0047013D01*
X0179803Y0047013D01*
X0179872Y0047192D02*
X0187495Y0047192D01*
X0187495Y0047790D02*
X0179880Y0047790D01*
X0179911Y0048389D02*
X0187495Y0048389D01*
X0187495Y0048987D02*
X0179908Y0048987D01*
X0179908Y0049586D02*
X0187495Y0049586D01*
X0187495Y0050184D02*
X0179908Y0050184D01*
X0179908Y0050783D02*
X0187495Y0050783D01*
X0187495Y0051381D02*
X0179908Y0051381D01*
X0179908Y0051980D02*
X0187495Y0051980D01*
X0187495Y0052578D02*
X0179908Y0052578D01*
X0179908Y0053177D02*
X0187495Y0053177D01*
X0187495Y0053775D02*
X0179908Y0053775D01*
X0179908Y0054374D02*
X0187495Y0054374D01*
X0187495Y0054972D02*
X0179908Y0054972D01*
X0179908Y0055571D02*
X0187495Y0055571D01*
X0187495Y0056169D02*
X0179908Y0056169D01*
X0179908Y0056768D02*
X0187495Y0056768D01*
X0187495Y0057366D02*
X0179908Y0057366D01*
X0179908Y0057965D02*
X0187495Y0057965D01*
X0187495Y0058563D02*
X0179908Y0058563D01*
X0179908Y0059162D02*
X0187495Y0059162D01*
X0187495Y0059760D02*
X0179908Y0059760D01*
X0180059Y0060359D02*
X0187495Y0060359D01*
X0187495Y0060957D02*
X0180059Y0060957D01*
X0179924Y0061556D02*
X0187495Y0061556D01*
X0187495Y0062154D02*
X0179924Y0062154D01*
X0179924Y0062753D02*
X0187495Y0062753D01*
X0187495Y0063351D02*
X0179924Y0063351D01*
X0179924Y0063950D02*
X0187495Y0063950D01*
X0187495Y0064548D02*
X0179924Y0064548D01*
X0179924Y0065147D02*
X0187495Y0065147D01*
X0187495Y0065745D02*
X0179924Y0065745D01*
X0179959Y0066253D02*
X0179959Y0066253D01*
X0179959Y0066253D01*
X0179952Y0066344D02*
X0187495Y0066344D01*
X0187495Y0066942D02*
X0179957Y0066942D01*
X0179924Y0067541D02*
X0187495Y0067541D01*
X0187495Y0068139D02*
X0179872Y0068139D01*
X0179739Y0068738D02*
X0187495Y0068738D01*
X0187495Y0069336D02*
X0179039Y0069336D01*
X0178423Y0069935D02*
X0187495Y0069935D01*
X0187495Y0070534D02*
X0177719Y0070534D01*
X0177019Y0071132D02*
X0187495Y0071132D01*
X0187495Y0071731D02*
X0176319Y0071731D01*
X0175618Y0072329D02*
X0187495Y0072329D01*
X0187495Y0072928D02*
X0174918Y0072928D01*
X0174218Y0073526D02*
X0187495Y0073526D01*
X0187495Y0074125D02*
X0173518Y0074125D01*
X0172817Y0074723D02*
X0187495Y0074723D01*
X0187495Y0075322D02*
X0172117Y0075322D01*
X0171417Y0075920D02*
X0187495Y0075920D01*
X0187495Y0076519D02*
X0170717Y0076519D01*
X0170017Y0077117D02*
X0178102Y0077117D01*
X0178803Y0076827D02*
X0181278Y0076827D01*
X0183564Y0077774D01*
X0185314Y0079524D01*
X0186261Y0081811D01*
X0186261Y0084286D01*
X0185314Y0086572D01*
X0183564Y0088322D01*
X0181278Y0089269D01*
X0178803Y0089269D01*
X0176516Y0088322D01*
X0174766Y0086572D01*
X0173819Y0084286D01*
X0173819Y0081811D01*
X0174766Y0079524D01*
X0176516Y0077774D01*
X0178803Y0076827D01*
X0176657Y0077716D02*
X0169316Y0077716D01*
X0168616Y0078314D02*
X0175976Y0078314D01*
X0175377Y0078913D02*
X0167916Y0078913D01*
X0167216Y0079511D02*
X0174779Y0079511D01*
X0174523Y0080110D02*
X0166515Y0080110D01*
X0166320Y0080708D02*
X0174275Y0080708D01*
X0174028Y0081307D02*
X0166320Y0081307D01*
X0166320Y0081905D02*
X0173819Y0081905D01*
X0173819Y0082504D02*
X0167747Y0082504D01*
X0168345Y0083102D02*
X0173819Y0083102D01*
X0173819Y0083701D02*
X0168498Y0083701D01*
X0168498Y0084299D02*
X0173825Y0084299D01*
X0174073Y0084898D02*
X0168498Y0084898D01*
X0168069Y0085496D02*
X0174320Y0085496D01*
X0174568Y0086095D02*
X0167471Y0086095D01*
X0166247Y0087292D02*
X0175486Y0087292D01*
X0176084Y0087890D02*
X0166846Y0087890D01*
X0167444Y0088489D02*
X0176919Y0088489D01*
X0178363Y0089087D02*
X0168043Y0089087D01*
X0168641Y0089686D02*
X0187495Y0089686D01*
X0187495Y0090284D02*
X0169240Y0090284D01*
X0169838Y0090883D02*
X0187495Y0090883D01*
X0187495Y0091481D02*
X0170437Y0091481D01*
X0171035Y0092080D02*
X0187495Y0092080D01*
X0187495Y0092678D02*
X0171634Y0092678D01*
X0172232Y0093277D02*
X0187495Y0093277D01*
X0187495Y0093875D02*
X0172831Y0093875D01*
X0173429Y0094474D02*
X0187495Y0094474D01*
X0187495Y0095072D02*
X0174028Y0095072D01*
X0174626Y0095671D02*
X0187495Y0095671D01*
X0187495Y0096270D02*
X0181790Y0096270D01*
X0182389Y0096868D02*
X0187495Y0096868D01*
X0187495Y0097467D02*
X0182987Y0097467D01*
X0183017Y0098065D02*
X0187495Y0098065D01*
X0187495Y0098664D02*
X0183017Y0098664D01*
X0183017Y0099262D02*
X0187495Y0099262D01*
X0187495Y0099861D02*
X0182465Y0099861D01*
X0181866Y0100459D02*
X0187495Y0100459D01*
X0187495Y0101058D02*
X0165651Y0101058D01*
X0165053Y0100459D02*
X0179789Y0100459D01*
X0179190Y0099861D02*
X0164454Y0099861D01*
X0163856Y0099262D02*
X0174823Y0099262D01*
X0174225Y0098664D02*
X0163257Y0098664D01*
X0162659Y0098065D02*
X0173626Y0098065D01*
X0173028Y0097467D02*
X0162060Y0097467D01*
X0161462Y0096868D02*
X0172429Y0096868D01*
X0171831Y0096270D02*
X0160863Y0096270D01*
X0160265Y0095671D02*
X0171232Y0095671D01*
X0170634Y0095072D02*
X0165993Y0095072D01*
X0166592Y0094474D02*
X0170035Y0094474D01*
X0169437Y0093875D02*
X0167190Y0093875D01*
X0167268Y0093277D02*
X0168838Y0093277D01*
X0168240Y0092678D02*
X0167268Y0092678D01*
X0167268Y0092080D02*
X0167641Y0092080D01*
X0167043Y0091481D02*
X0166766Y0091481D01*
X0166444Y0090883D02*
X0166168Y0090883D01*
X0165846Y0090284D02*
X0164170Y0090284D01*
X0163572Y0089686D02*
X0165247Y0089686D01*
X0164649Y0089087D02*
X0162973Y0089087D01*
X0162375Y0088489D02*
X0164050Y0088489D01*
X0163452Y0087890D02*
X0161776Y0087890D01*
X0161178Y0087292D02*
X0162853Y0087292D01*
X0162255Y0086693D02*
X0160579Y0086693D01*
X0159981Y0086095D02*
X0162139Y0086095D01*
X0162139Y0085496D02*
X0159382Y0085496D01*
X0158784Y0084898D02*
X0162139Y0084898D01*
X0162139Y0084299D02*
X0158185Y0084299D01*
X0157587Y0083701D02*
X0162139Y0083701D01*
X0162139Y0083102D02*
X0156988Y0083102D01*
X0156390Y0082504D02*
X0162139Y0082504D01*
X0162139Y0081905D02*
X0155791Y0081905D01*
X0155193Y0081307D02*
X0162139Y0081307D01*
X0162139Y0080708D02*
X0154594Y0080708D01*
X0153996Y0080110D02*
X0162139Y0080110D01*
X0162139Y0079511D02*
X0153397Y0079511D01*
X0152799Y0078913D02*
X0162129Y0078913D01*
X0162162Y0078314D02*
X0152200Y0078314D01*
X0151602Y0077716D02*
X0162761Y0077716D01*
X0163501Y0077117D02*
X0151003Y0077117D01*
X0150405Y0076519D02*
X0164201Y0076519D01*
X0164902Y0075920D02*
X0149806Y0075920D01*
X0149208Y0075322D02*
X0165602Y0075322D01*
X0166302Y0074723D02*
X0148609Y0074723D01*
X0148011Y0074125D02*
X0167002Y0074125D01*
X0167703Y0073526D02*
X0147412Y0073526D01*
X0146814Y0072928D02*
X0168403Y0072928D01*
X0169103Y0072329D02*
X0146215Y0072329D01*
X0145617Y0071731D02*
X0169803Y0071731D01*
X0170503Y0071132D02*
X0145018Y0071132D01*
X0144420Y0070534D02*
X0171204Y0070534D01*
X0171904Y0069935D02*
X0143821Y0069935D01*
X0143223Y0069336D02*
X0172604Y0069336D01*
X0173304Y0068738D02*
X0142624Y0068738D01*
X0142025Y0068139D02*
X0174005Y0068139D01*
X0174705Y0067541D02*
X0141427Y0067541D01*
X0140828Y0066942D02*
X0175405Y0066942D01*
X0175691Y0066344D02*
X0140230Y0066344D01*
X0139631Y0065745D02*
X0175691Y0065745D01*
X0175691Y0065147D02*
X0139033Y0065147D01*
X0138434Y0064548D02*
X0175691Y0064548D01*
X0175691Y0063950D02*
X0137836Y0063950D01*
X0137237Y0063351D02*
X0175691Y0063351D01*
X0175691Y0062753D02*
X0136639Y0062753D01*
X0136040Y0062154D02*
X0160918Y0062154D01*
X0161072Y0062179D02*
X0160403Y0062073D01*
X0159760Y0061864D01*
X0159157Y0061556D01*
X0158609Y0061159D01*
X0158130Y0060680D01*
X0157733Y0060132D01*
X0157425Y0059529D01*
X0157216Y0058886D01*
X0157110Y0058217D01*
X0157110Y0055179D01*
X0161110Y0055179D01*
X0161110Y0062179D01*
X0161072Y0062179D01*
X0161110Y0062154D02*
X0161710Y0062154D01*
X0161710Y0062179D02*
X0161710Y0055179D01*
X0161110Y0055179D01*
X0161110Y0054579D01*
X0157110Y0054579D01*
X0157110Y0051540D01*
X0157216Y0050872D01*
X0157425Y0050228D01*
X0157733Y0049625D01*
X0158130Y0049077D01*
X0158609Y0048599D01*
X0159157Y0048201D01*
X0159760Y0047894D01*
X0160403Y0047685D01*
X0161072Y0047579D01*
X0161110Y0047579D01*
X0161110Y0054579D01*
X0161710Y0054579D01*
X0161710Y0055179D01*
X0165710Y0055179D01*
X0165710Y0058217D01*
X0165604Y0058886D01*
X0165395Y0059529D01*
X0165088Y0060132D01*
X0164690Y0060680D01*
X0164211Y0061159D01*
X0163664Y0061556D01*
X0163061Y0061864D01*
X0162417Y0062073D01*
X0161749Y0062179D01*
X0161710Y0062179D01*
X0161903Y0062154D02*
X0175691Y0062154D01*
X0175691Y0061556D02*
X0172567Y0061556D01*
X0172029Y0061779D02*
X0170477Y0061779D01*
X0169044Y0061185D01*
X0167946Y0060088D01*
X0167353Y0058654D01*
X0167353Y0051103D01*
X0167946Y0049670D01*
X0169044Y0048572D01*
X0170477Y0047979D01*
X0172029Y0047979D01*
X0173462Y0048572D01*
X0174559Y0049670D01*
X0175153Y0051103D01*
X0175153Y0058654D01*
X0174559Y0060088D01*
X0173462Y0061185D01*
X0172029Y0061779D01*
X0173690Y0060957D02*
X0175691Y0060957D01*
X0175691Y0060359D02*
X0174288Y0060359D01*
X0174695Y0059760D02*
X0175691Y0059760D01*
X0175691Y0059162D02*
X0174943Y0059162D01*
X0175153Y0058563D02*
X0175691Y0058563D01*
X0175691Y0057965D02*
X0175153Y0057965D01*
X0175153Y0057366D02*
X0175691Y0057366D01*
X0175691Y0056768D02*
X0175153Y0056768D01*
X0175153Y0056169D02*
X0175691Y0056169D01*
X0175691Y0055571D02*
X0175153Y0055571D01*
X0175153Y0054972D02*
X0175691Y0054972D01*
X0175691Y0054374D02*
X0175153Y0054374D01*
X0175153Y0053775D02*
X0175691Y0053775D01*
X0175691Y0053177D02*
X0175153Y0053177D01*
X0175153Y0052578D02*
X0175691Y0052578D01*
X0175691Y0051980D02*
X0175153Y0051980D01*
X0175153Y0051381D02*
X0175691Y0051381D01*
X0175691Y0050783D02*
X0175020Y0050783D01*
X0174772Y0050184D02*
X0175691Y0050184D01*
X0175691Y0049586D02*
X0174475Y0049586D01*
X0173877Y0048987D02*
X0175691Y0048987D01*
X0175081Y0048389D02*
X0173018Y0048389D01*
X0173751Y0047192D02*
X0129879Y0047192D01*
X0130478Y0047790D02*
X0160079Y0047790D01*
X0161110Y0047790D02*
X0161710Y0047790D01*
X0161710Y0047579D02*
X0161749Y0047579D01*
X0162417Y0047685D01*
X0163061Y0047894D01*
X0163664Y0048201D01*
X0164211Y0048599D01*
X0164690Y0049077D01*
X0165088Y0049625D01*
X0165395Y0050228D01*
X0165604Y0050872D01*
X0165710Y0051540D01*
X0165710Y0054579D01*
X0161710Y0054579D01*
X0161710Y0047579D01*
X0161710Y0048389D02*
X0161110Y0048389D01*
X0161110Y0048987D02*
X0161710Y0048987D01*
X0161710Y0049586D02*
X0161110Y0049586D01*
X0161110Y0050184D02*
X0161710Y0050184D01*
X0161710Y0050783D02*
X0161110Y0050783D01*
X0161110Y0051381D02*
X0161710Y0051381D01*
X0161710Y0051980D02*
X0161110Y0051980D01*
X0161110Y0052578D02*
X0161710Y0052578D01*
X0161710Y0053177D02*
X0161110Y0053177D01*
X0161110Y0053775D02*
X0161710Y0053775D01*
X0161710Y0054374D02*
X0161110Y0054374D01*
X0161110Y0054972D02*
X0132135Y0054972D01*
X0132135Y0054374D02*
X0157110Y0054374D01*
X0157110Y0053775D02*
X0132135Y0053775D01*
X0132135Y0053177D02*
X0157110Y0053177D01*
X0157110Y0052578D02*
X0132135Y0052578D01*
X0132135Y0051980D02*
X0157110Y0051980D01*
X0157135Y0051381D02*
X0132135Y0051381D01*
X0132135Y0050783D02*
X0157245Y0050783D01*
X0157448Y0050184D02*
X0132135Y0050184D01*
X0132135Y0049586D02*
X0157761Y0049586D01*
X0158221Y0048987D02*
X0131675Y0048987D01*
X0131076Y0048389D02*
X0158898Y0048389D01*
X0162742Y0047790D02*
X0174416Y0047790D01*
X0173086Y0046593D02*
X0129281Y0046593D01*
X0127631Y0046640D02*
X0036339Y0046640D01*
X0030434Y0052546D01*
X0030434Y0061394D01*
X0029361Y0062468D01*
X0023188Y0062468D01*
X0018907Y0066749D01*
X0014961Y0066749D01*
X0012317Y0069336D02*
X0002900Y0069336D01*
X0002900Y0068738D02*
X0011718Y0068738D01*
X0011261Y0068139D02*
X0002900Y0068139D01*
X0002900Y0067541D02*
X0011261Y0067541D01*
X0011261Y0066942D02*
X0002900Y0066942D01*
X0002900Y0066344D02*
X0011261Y0066344D01*
X0011261Y0065745D02*
X0002900Y0065745D01*
X0002900Y0065147D02*
X0011331Y0065147D01*
X0011929Y0064548D02*
X0002900Y0064548D01*
X0002900Y0063950D02*
X0012528Y0063950D01*
X0013126Y0063351D02*
X0002900Y0063351D01*
X0002900Y0062753D02*
X0021206Y0062753D01*
X0020607Y0063351D02*
X0016797Y0063351D01*
X0017395Y0063950D02*
X0020009Y0063950D01*
X0019410Y0064548D02*
X0017994Y0064548D01*
X0018592Y0065147D02*
X0018812Y0065147D01*
X0020410Y0066942D02*
X0021261Y0066942D01*
X0021261Y0066344D02*
X0021009Y0066344D01*
X0021261Y0067541D02*
X0019812Y0067541D01*
X0020107Y0067246D02*
X0020107Y0067246D01*
X0021261Y0068139D02*
X0018661Y0068139D01*
X0018205Y0068738D02*
X0021718Y0068738D01*
X0022317Y0069336D02*
X0017606Y0069336D01*
X0017008Y0069935D02*
X0022915Y0069935D01*
X0023429Y0073049D02*
X0026494Y0073049D01*
X0028661Y0075216D01*
X0028661Y0078281D01*
X0026494Y0080449D01*
X0023429Y0080449D01*
X0021261Y0078281D01*
X0021261Y0075216D01*
X0023429Y0073049D01*
X0022952Y0073526D02*
X0017537Y0073526D01*
X0016938Y0072928D02*
X0037108Y0072928D01*
X0037108Y0073526D02*
X0026971Y0073526D01*
X0027570Y0074125D02*
X0037108Y0074125D01*
X0037108Y0074723D02*
X0028168Y0074723D01*
X0028661Y0075322D02*
X0037108Y0075322D01*
X0037108Y0075920D02*
X0028661Y0075920D01*
X0028661Y0076519D02*
X0037108Y0076519D01*
X0037108Y0077117D02*
X0028661Y0077117D01*
X0028661Y0077716D02*
X0037108Y0077716D01*
X0037108Y0078314D02*
X0028629Y0078314D01*
X0028030Y0078913D02*
X0037108Y0078913D01*
X0037108Y0079511D02*
X0027432Y0079511D01*
X0026833Y0080110D02*
X0037108Y0080110D01*
X0037108Y0080708D02*
X0016800Y0080708D01*
X0016660Y0080849D02*
X0015261Y0080849D01*
X0015261Y0077049D01*
X0014661Y0077049D01*
X0014661Y0076449D01*
X0010861Y0076449D01*
X0010861Y0075051D01*
X0013263Y0072649D01*
X0014661Y0072649D01*
X0014661Y0076449D01*
X0015261Y0076449D01*
X0015261Y0072649D01*
X0016660Y0072649D01*
X0019061Y0075051D01*
X0019061Y0076449D01*
X0015261Y0076449D01*
X0015261Y0077049D01*
X0019061Y0077049D01*
X0019061Y0078447D01*
X0016660Y0080849D01*
X0017399Y0080110D02*
X0023090Y0080110D01*
X0022491Y0079511D02*
X0017997Y0079511D01*
X0018596Y0078913D02*
X0021893Y0078913D01*
X0021294Y0078314D02*
X0019061Y0078314D01*
X0019061Y0077716D02*
X0021261Y0077716D01*
X0021261Y0077117D02*
X0019061Y0077117D01*
X0019061Y0075920D02*
X0021261Y0075920D01*
X0021261Y0075322D02*
X0019061Y0075322D01*
X0018734Y0074723D02*
X0021755Y0074723D01*
X0022353Y0074125D02*
X0018135Y0074125D01*
X0015261Y0076519D02*
X0021261Y0076519D01*
X0015261Y0077117D02*
X0014661Y0077117D01*
X0014661Y0077049D02*
X0014661Y0080849D01*
X0013263Y0080849D01*
X0010861Y0078447D01*
X0010861Y0077049D01*
X0014661Y0077049D01*
X0014661Y0076519D02*
X0002900Y0076519D01*
X0002900Y0077117D02*
X0010861Y0077117D01*
X0010861Y0077716D02*
X0002900Y0077716D01*
X0002900Y0078314D02*
X0010861Y0078314D01*
X0011327Y0078913D02*
X0002900Y0078913D01*
X0002900Y0079511D02*
X0011926Y0079511D01*
X0012524Y0080110D02*
X0002900Y0080110D01*
X0002900Y0080708D02*
X0013123Y0080708D01*
X0014661Y0080708D02*
X0015261Y0080708D01*
X0015261Y0080110D02*
X0014661Y0080110D01*
X0014661Y0079511D02*
X0015261Y0079511D01*
X0015261Y0078913D02*
X0014661Y0078913D01*
X0014661Y0078314D02*
X0015261Y0078314D01*
X0015261Y0077716D02*
X0014661Y0077716D01*
X0014661Y0075920D02*
X0015261Y0075920D01*
X0015261Y0075322D02*
X0014661Y0075322D01*
X0014661Y0074723D02*
X0015261Y0074723D01*
X0015261Y0074125D02*
X0014661Y0074125D01*
X0014661Y0073526D02*
X0015261Y0073526D01*
X0015261Y0072928D02*
X0014661Y0072928D01*
X0012984Y0072928D02*
X0002900Y0072928D01*
X0002900Y0073526D02*
X0012386Y0073526D01*
X0011787Y0074125D02*
X0002900Y0074125D01*
X0002900Y0074723D02*
X0011189Y0074723D01*
X0010861Y0075322D02*
X0002900Y0075322D01*
X0002900Y0075920D02*
X0010861Y0075920D01*
X0012915Y0069935D02*
X0002900Y0069935D01*
X0002900Y0070534D02*
X0037108Y0070534D01*
X0037108Y0071132D02*
X0002900Y0071132D01*
X0002900Y0071731D02*
X0037108Y0071731D01*
X0037108Y0072329D02*
X0002900Y0072329D01*
X0002900Y0081307D02*
X0037108Y0081307D01*
X0037108Y0081905D02*
X0002900Y0081905D01*
X0002900Y0082504D02*
X0037108Y0082504D01*
X0037108Y0083102D02*
X0027113Y0083102D01*
X0026660Y0082649D02*
X0029061Y0085051D01*
X0029061Y0086449D01*
X0025261Y0086449D01*
X0025261Y0082649D01*
X0026660Y0082649D01*
X0025261Y0083102D02*
X0024661Y0083102D01*
X0024661Y0082649D02*
X0024661Y0086449D01*
X0020861Y0086449D01*
X0020861Y0085051D01*
X0023263Y0082649D01*
X0024661Y0082649D01*
X0024661Y0083701D02*
X0025261Y0083701D01*
X0025261Y0084299D02*
X0024661Y0084299D01*
X0024661Y0084898D02*
X0025261Y0084898D01*
X0025261Y0085496D02*
X0024661Y0085496D01*
X0024661Y0086095D02*
X0025261Y0086095D01*
X0025261Y0086449D02*
X0024661Y0086449D01*
X0024661Y0087049D01*
X0020861Y0087049D01*
X0020861Y0088447D01*
X0023263Y0090849D01*
X0024661Y0090849D01*
X0024661Y0087049D01*
X0025261Y0087049D01*
X0025261Y0090849D01*
X0026660Y0090849D01*
X0029061Y0088447D01*
X0029061Y0087049D01*
X0025261Y0087049D01*
X0025261Y0086449D01*
X0025261Y0086693D02*
X0037108Y0086693D01*
X0037108Y0086095D02*
X0029061Y0086095D01*
X0029061Y0085496D02*
X0037108Y0085496D01*
X0037108Y0084898D02*
X0028909Y0084898D01*
X0028310Y0084299D02*
X0037108Y0084299D01*
X0037108Y0083701D02*
X0027712Y0083701D01*
X0029061Y0087292D02*
X0037108Y0087292D01*
X0037108Y0087890D02*
X0029061Y0087890D01*
X0029020Y0088489D02*
X0037108Y0088489D01*
X0037108Y0089087D02*
X0028421Y0089087D01*
X0027823Y0089686D02*
X0037108Y0089686D01*
X0037108Y0090284D02*
X0027224Y0090284D01*
X0025261Y0090284D02*
X0024661Y0090284D01*
X0024661Y0089686D02*
X0025261Y0089686D01*
X0025261Y0089087D02*
X0024661Y0089087D01*
X0024661Y0088489D02*
X0025261Y0088489D01*
X0025261Y0087890D02*
X0024661Y0087890D01*
X0024661Y0087292D02*
X0025261Y0087292D01*
X0024661Y0086693D02*
X0015261Y0086693D01*
X0015261Y0086449D02*
X0015261Y0087049D01*
X0014661Y0087049D01*
X0014661Y0086449D01*
X0010861Y0086449D01*
X0010861Y0085051D01*
X0013263Y0082649D01*
X0014661Y0082649D01*
X0014661Y0086449D01*
X0015261Y0086449D01*
X0015261Y0082649D01*
X0016660Y0082649D01*
X0019061Y0085051D01*
X0019061Y0086449D01*
X0015261Y0086449D01*
X0015261Y0086095D02*
X0014661Y0086095D01*
X0014661Y0086693D02*
X0002900Y0086693D01*
X0002900Y0086095D02*
X0010861Y0086095D01*
X0010861Y0085496D02*
X0002900Y0085496D01*
X0002900Y0084898D02*
X0011014Y0084898D01*
X0011613Y0084299D02*
X0002900Y0084299D01*
X0002900Y0083701D02*
X0012211Y0083701D01*
X0012810Y0083102D02*
X0002900Y0083102D01*
X0002900Y0087292D02*
X0010861Y0087292D01*
X0010861Y0087049D02*
X0014661Y0087049D01*
X0014661Y0090849D01*
X0013263Y0090849D01*
X0010861Y0088447D01*
X0010861Y0087049D01*
X0010861Y0087890D02*
X0002900Y0087890D01*
X0002900Y0088489D02*
X0010903Y0088489D01*
X0011502Y0089087D02*
X0002900Y0089087D01*
X0002900Y0089686D02*
X0012100Y0089686D01*
X0012699Y0090284D02*
X0002900Y0090284D01*
X0002900Y0090883D02*
X0037108Y0090883D01*
X0037108Y0091481D02*
X0002900Y0091481D01*
X0002900Y0092080D02*
X0037108Y0092080D01*
X0037108Y0092678D02*
X0002900Y0092678D01*
X0002900Y0093277D02*
X0013201Y0093277D01*
X0013429Y0093049D02*
X0016494Y0093049D01*
X0018661Y0095216D01*
X0018661Y0098281D01*
X0016494Y0100449D01*
X0013429Y0100449D01*
X0011261Y0098281D01*
X0011261Y0095216D01*
X0013429Y0093049D01*
X0012602Y0093875D02*
X0002900Y0093875D01*
X0002900Y0094474D02*
X0012004Y0094474D01*
X0011405Y0095072D02*
X0002900Y0095072D01*
X0002900Y0095671D02*
X0011261Y0095671D01*
X0011261Y0096270D02*
X0002900Y0096270D01*
X0002900Y0096868D02*
X0011261Y0096868D01*
X0011261Y0097467D02*
X0002900Y0097467D01*
X0002900Y0098065D02*
X0011261Y0098065D01*
X0011644Y0098664D02*
X0002900Y0098664D01*
X0002900Y0099262D02*
X0012242Y0099262D01*
X0012841Y0099861D02*
X0002900Y0099861D01*
X0002900Y0100459D02*
X0033155Y0100459D01*
X0032557Y0101058D02*
X0002900Y0101058D01*
X0002900Y0101656D02*
X0012303Y0101656D01*
X0011704Y0102255D02*
X0002900Y0102255D01*
X0002900Y0102853D02*
X0011106Y0102853D01*
X0010507Y0103452D02*
X0002900Y0103452D01*
X0002900Y0104050D02*
X0009909Y0104050D01*
X0009480Y0104649D02*
X0002900Y0104649D01*
X0002900Y0105247D02*
X0009480Y0105247D01*
X0009480Y0105846D02*
X0002900Y0105846D01*
X0002900Y0106444D02*
X0009480Y0106444D01*
X0009480Y0107043D02*
X0002900Y0107043D01*
X0002900Y0107641D02*
X0009480Y0107641D01*
X0009480Y0108240D02*
X0002900Y0108240D01*
X0002900Y0108838D02*
X0009480Y0108838D01*
X0009480Y0109437D02*
X0002900Y0109437D01*
X0002900Y0110035D02*
X0009480Y0110035D01*
X0009480Y0110634D02*
X0002900Y0110634D01*
X0002900Y0111232D02*
X0009480Y0111232D01*
X0009480Y0111831D02*
X0002900Y0111831D01*
X0002900Y0112429D02*
X0009480Y0112429D01*
X0009480Y0113028D02*
X0002900Y0113028D01*
X0002900Y0113626D02*
X0009480Y0113626D01*
X0009480Y0114225D02*
X0002900Y0114225D01*
X0002900Y0114823D02*
X0009480Y0114823D01*
X0009480Y0115422D02*
X0002900Y0115422D01*
X0002900Y0116020D02*
X0009480Y0116020D01*
X0009480Y0116619D02*
X0002900Y0116619D01*
X0002900Y0117217D02*
X0009480Y0117217D01*
X0009480Y0117816D02*
X0002900Y0117816D01*
X0002900Y0118414D02*
X0009480Y0118414D01*
X0009480Y0119013D02*
X0002900Y0119013D01*
X0002900Y0119611D02*
X0010073Y0119611D01*
X0010671Y0120210D02*
X0002900Y0120210D01*
X0002900Y0120808D02*
X0011270Y0120808D01*
X0011868Y0121407D02*
X0002900Y0121407D01*
X0002900Y0122005D02*
X0012467Y0122005D01*
X0013188Y0121030D02*
X0010680Y0118522D01*
X0010680Y0104976D01*
X0013188Y0102468D01*
X0034243Y0102468D01*
X0034371Y0102339D01*
X0036560Y0102255D02*
X0037108Y0102255D01*
X0037108Y0102853D02*
X0036560Y0102853D01*
X0036354Y0103452D02*
X0037108Y0103452D01*
X0037108Y0104050D02*
X0035756Y0104050D01*
X0037108Y0104649D02*
X0028094Y0104649D01*
X0028661Y0105247D02*
X0037108Y0105247D01*
X0037108Y0105846D02*
X0028661Y0105846D01*
X0028661Y0106444D02*
X0037108Y0106444D01*
X0037108Y0106567D02*
X0037108Y0060897D01*
X0043702Y0054303D01*
X0044405Y0053600D01*
X0047707Y0053600D01*
X0047707Y0051024D01*
X0048301Y0049591D01*
X0049398Y0048494D01*
X0050831Y0047900D01*
X0052383Y0047900D01*
X0053816Y0048494D01*
X0054913Y0049591D01*
X0055507Y0051024D01*
X0055507Y0058576D01*
X0054913Y0060009D01*
X0053816Y0061106D01*
X0052383Y0061700D01*
X0050831Y0061700D01*
X0049398Y0061106D01*
X0048301Y0060009D01*
X0047707Y0058576D01*
X0047707Y0056000D01*
X0045399Y0056000D01*
X0039508Y0061892D01*
X0039508Y0107561D01*
X0038805Y0108264D01*
X0036954Y0110115D01*
X0036954Y0111514D01*
X0035671Y0112796D01*
X0033858Y0112796D01*
X0032576Y0111514D01*
X0032576Y0109700D01*
X0033858Y0108418D01*
X0035256Y0108418D01*
X0037108Y0106567D01*
X0036632Y0107043D02*
X0028661Y0107043D01*
X0028661Y0107641D02*
X0036033Y0107641D01*
X0035435Y0108240D02*
X0028661Y0108240D01*
X0028105Y0108838D02*
X0033438Y0108838D01*
X0032839Y0109437D02*
X0027506Y0109437D01*
X0026908Y0110035D02*
X0032576Y0110035D01*
X0032576Y0110634D02*
X0020543Y0110634D01*
X0019945Y0110035D02*
X0023015Y0110035D01*
X0022417Y0109437D02*
X0019346Y0109437D01*
X0018748Y0108838D02*
X0021818Y0108838D01*
X0021261Y0108240D02*
X0018661Y0108240D01*
X0018661Y0107641D02*
X0021261Y0107641D01*
X0021261Y0107043D02*
X0018661Y0107043D01*
X0018661Y0106444D02*
X0021261Y0106444D01*
X0021261Y0105846D02*
X0018661Y0105846D01*
X0018661Y0105247D02*
X0021261Y0105247D01*
X0021829Y0104649D02*
X0018094Y0104649D01*
X0017495Y0104050D02*
X0022427Y0104050D01*
X0023429Y0100449D02*
X0021261Y0098281D01*
X0021261Y0095216D01*
X0023429Y0093049D01*
X0026494Y0093049D01*
X0028661Y0095216D01*
X0028661Y0098281D01*
X0026494Y0100449D01*
X0023429Y0100449D01*
X0022841Y0099861D02*
X0017082Y0099861D01*
X0017681Y0099262D02*
X0022242Y0099262D01*
X0021644Y0098664D02*
X0018279Y0098664D01*
X0018661Y0098065D02*
X0021261Y0098065D01*
X0021261Y0097467D02*
X0018661Y0097467D01*
X0018661Y0096868D02*
X0021261Y0096868D01*
X0021261Y0096270D02*
X0018661Y0096270D01*
X0018661Y0095671D02*
X0021261Y0095671D01*
X0021405Y0095072D02*
X0018518Y0095072D01*
X0017919Y0094474D02*
X0022004Y0094474D01*
X0022602Y0093875D02*
X0017321Y0093875D01*
X0016722Y0093277D02*
X0023201Y0093277D01*
X0022699Y0090284D02*
X0017224Y0090284D01*
X0016660Y0090849D02*
X0015261Y0090849D01*
X0015261Y0087049D01*
X0019061Y0087049D01*
X0019061Y0088447D01*
X0016660Y0090849D01*
X0015261Y0090284D02*
X0014661Y0090284D01*
X0014661Y0089686D02*
X0015261Y0089686D01*
X0015261Y0089087D02*
X0014661Y0089087D01*
X0014661Y0088489D02*
X0015261Y0088489D01*
X0015261Y0087890D02*
X0014661Y0087890D01*
X0014661Y0087292D02*
X0015261Y0087292D01*
X0015261Y0085496D02*
X0014661Y0085496D01*
X0014661Y0084898D02*
X0015261Y0084898D01*
X0015261Y0084299D02*
X0014661Y0084299D01*
X0014661Y0083701D02*
X0015261Y0083701D01*
X0015261Y0083102D02*
X0014661Y0083102D01*
X0017113Y0083102D02*
X0022810Y0083102D01*
X0022211Y0083701D02*
X0017712Y0083701D01*
X0018310Y0084299D02*
X0021613Y0084299D01*
X0021014Y0084898D02*
X0018909Y0084898D01*
X0019061Y0085496D02*
X0020861Y0085496D01*
X0020861Y0086095D02*
X0019061Y0086095D01*
X0019061Y0087292D02*
X0020861Y0087292D01*
X0020861Y0087890D02*
X0019061Y0087890D01*
X0019020Y0088489D02*
X0020903Y0088489D01*
X0021502Y0089087D02*
X0018421Y0089087D01*
X0017823Y0089686D02*
X0022100Y0089686D01*
X0026722Y0093277D02*
X0037108Y0093277D01*
X0037108Y0093875D02*
X0027321Y0093875D01*
X0027919Y0094474D02*
X0037108Y0094474D01*
X0037108Y0095072D02*
X0028518Y0095072D01*
X0028661Y0095671D02*
X0037108Y0095671D01*
X0037108Y0096270D02*
X0028661Y0096270D01*
X0028661Y0096868D02*
X0037108Y0096868D01*
X0037108Y0097467D02*
X0028661Y0097467D01*
X0028661Y0098065D02*
X0037108Y0098065D01*
X0037108Y0098664D02*
X0028279Y0098664D01*
X0027681Y0099262D02*
X0037108Y0099262D01*
X0037108Y0099861D02*
X0027082Y0099861D01*
X0027495Y0104050D02*
X0032986Y0104050D01*
X0036560Y0101656D02*
X0037108Y0101656D01*
X0037108Y0101058D02*
X0036185Y0101058D01*
X0035586Y0100459D02*
X0037108Y0100459D01*
X0039508Y0100459D02*
X0128431Y0100459D01*
X0127833Y0099861D02*
X0039508Y0099861D01*
X0039508Y0099262D02*
X0127234Y0099262D01*
X0126636Y0098664D02*
X0039508Y0098664D01*
X0039508Y0098065D02*
X0126037Y0098065D01*
X0125439Y0097467D02*
X0039508Y0097467D01*
X0039508Y0096868D02*
X0124840Y0096868D01*
X0124242Y0096270D02*
X0039508Y0096270D01*
X0039508Y0095671D02*
X0123643Y0095671D01*
X0123045Y0095072D02*
X0039508Y0095072D01*
X0039508Y0094474D02*
X0122446Y0094474D01*
X0121848Y0093875D02*
X0039508Y0093875D01*
X0039508Y0093277D02*
X0121249Y0093277D01*
X0120651Y0092678D02*
X0039508Y0092678D01*
X0039508Y0092080D02*
X0040701Y0092080D01*
X0041207Y0092586D02*
X0039924Y0091303D01*
X0039924Y0089490D01*
X0041207Y0088208D01*
X0043020Y0088208D01*
X0044009Y0089197D01*
X0044530Y0089197D01*
X0045222Y0089888D01*
X0051867Y0089888D01*
X0053608Y0088147D01*
X0057278Y0088147D01*
X0058267Y0087158D01*
X0060081Y0087158D01*
X0061363Y0088441D01*
X0061363Y0090254D01*
X0060081Y0091536D01*
X0058267Y0091536D01*
X0057278Y0090547D01*
X0054602Y0090547D01*
X0053564Y0091585D01*
X0052861Y0092288D01*
X0044227Y0092288D01*
X0043772Y0091833D01*
X0043020Y0092586D01*
X0041207Y0092586D01*
X0040102Y0091481D02*
X0039508Y0091481D01*
X0039508Y0090883D02*
X0039924Y0090883D01*
X0039924Y0090284D02*
X0039508Y0090284D01*
X0039508Y0089686D02*
X0039924Y0089686D01*
X0040327Y0089087D02*
X0039508Y0089087D01*
X0039508Y0088489D02*
X0040925Y0088489D01*
X0039508Y0087890D02*
X0046829Y0087890D01*
X0047307Y0088088D02*
X0045020Y0087141D01*
X0043270Y0085391D01*
X0042323Y0083104D01*
X0042323Y0080629D01*
X0043270Y0078343D01*
X0045020Y0076593D01*
X0047307Y0075646D01*
X0049782Y0075646D01*
X0052068Y0076593D01*
X0053818Y0078343D01*
X0054765Y0080629D01*
X0054765Y0083104D01*
X0053818Y0085391D01*
X0052068Y0087141D01*
X0049782Y0088088D01*
X0047307Y0088088D01*
X0045384Y0087292D02*
X0039508Y0087292D01*
X0039508Y0086693D02*
X0044572Y0086693D01*
X0043974Y0086095D02*
X0039508Y0086095D01*
X0039508Y0085496D02*
X0043375Y0085496D01*
X0043066Y0084898D02*
X0039508Y0084898D01*
X0039508Y0084299D02*
X0042818Y0084299D01*
X0042570Y0083701D02*
X0039508Y0083701D01*
X0039508Y0083102D02*
X0042323Y0083102D01*
X0042323Y0082504D02*
X0039508Y0082504D01*
X0039508Y0081905D02*
X0042323Y0081905D01*
X0042323Y0081307D02*
X0039508Y0081307D01*
X0039508Y0080708D02*
X0042323Y0080708D01*
X0042538Y0080110D02*
X0039508Y0080110D01*
X0039508Y0079511D02*
X0042786Y0079511D01*
X0043034Y0078913D02*
X0039508Y0078913D01*
X0039508Y0078314D02*
X0043299Y0078314D01*
X0043897Y0077716D02*
X0039508Y0077716D01*
X0039508Y0077117D02*
X0044496Y0077117D01*
X0045199Y0076519D02*
X0039508Y0076519D01*
X0039508Y0075920D02*
X0046644Y0075920D01*
X0050444Y0075920D02*
X0056648Y0075920D01*
X0056050Y0075322D02*
X0039508Y0075322D01*
X0039508Y0074723D02*
X0055451Y0074723D01*
X0054853Y0074125D02*
X0039508Y0074125D01*
X0039508Y0073526D02*
X0054254Y0073526D01*
X0053656Y0072928D02*
X0039508Y0072928D01*
X0039508Y0072329D02*
X0053057Y0072329D01*
X0052459Y0071731D02*
X0039508Y0071731D01*
X0039508Y0071132D02*
X0051860Y0071132D01*
X0051262Y0070534D02*
X0039508Y0070534D01*
X0039508Y0069935D02*
X0050663Y0069935D01*
X0050217Y0069489D02*
X0048818Y0069489D01*
X0047536Y0068207D01*
X0047536Y0066393D01*
X0048818Y0065111D01*
X0050632Y0065111D01*
X0051914Y0066393D01*
X0051914Y0067792D01*
X0061246Y0077124D01*
X0073026Y0077124D01*
X0074015Y0076135D01*
X0075829Y0076135D01*
X0077111Y0077417D01*
X0077111Y0079230D01*
X0075829Y0080513D01*
X0074015Y0080513D01*
X0073026Y0079524D01*
X0060252Y0079524D01*
X0050217Y0069489D01*
X0048666Y0069336D02*
X0039508Y0069336D01*
X0039508Y0068738D02*
X0048068Y0068738D01*
X0047536Y0068139D02*
X0039508Y0068139D01*
X0039508Y0067541D02*
X0047536Y0067541D01*
X0047536Y0066942D02*
X0039508Y0066942D01*
X0039508Y0066344D02*
X0047586Y0066344D01*
X0048184Y0065745D02*
X0039508Y0065745D01*
X0039508Y0065147D02*
X0048783Y0065147D01*
X0050668Y0065147D02*
X0105569Y0065147D01*
X0105569Y0065745D02*
X0051266Y0065745D01*
X0051865Y0066344D02*
X0105569Y0066344D01*
X0105569Y0066942D02*
X0051914Y0066942D01*
X0051914Y0067541D02*
X0105569Y0067541D01*
X0105569Y0068139D02*
X0052262Y0068139D01*
X0052860Y0068738D02*
X0105569Y0068738D01*
X0105569Y0069336D02*
X0053459Y0069336D01*
X0054057Y0069935D02*
X0105569Y0069935D01*
X0105569Y0070534D02*
X0054656Y0070534D01*
X0055254Y0071132D02*
X0105569Y0071132D01*
X0105569Y0071731D02*
X0055853Y0071731D01*
X0056451Y0072329D02*
X0105569Y0072329D01*
X0105569Y0072928D02*
X0057050Y0072928D01*
X0057648Y0073526D02*
X0105569Y0073526D01*
X0105569Y0074125D02*
X0058247Y0074125D01*
X0058845Y0074723D02*
X0105569Y0074723D01*
X0105569Y0075322D02*
X0059444Y0075322D01*
X0060042Y0075920D02*
X0105569Y0075920D01*
X0105569Y0076519D02*
X0076213Y0076519D01*
X0076811Y0077117D02*
X0105569Y0077117D01*
X0105688Y0077716D02*
X0077111Y0077716D01*
X0077111Y0078314D02*
X0106286Y0078314D01*
X0106885Y0078913D02*
X0077111Y0078913D01*
X0076830Y0079511D02*
X0107483Y0079511D01*
X0108082Y0080110D02*
X0076232Y0080110D01*
X0074922Y0078324D02*
X0060749Y0078324D01*
X0049725Y0067300D01*
X0050483Y0061556D02*
X0039844Y0061556D01*
X0039508Y0062154D02*
X0105569Y0062154D01*
X0105569Y0061556D02*
X0098050Y0061556D01*
X0097702Y0061700D02*
X0096150Y0061700D01*
X0094717Y0061106D01*
X0093620Y0060009D01*
X0093026Y0058576D01*
X0093026Y0051024D01*
X0093620Y0049591D01*
X0094717Y0048494D01*
X0096150Y0047900D01*
X0097702Y0047900D01*
X0099135Y0048494D01*
X0100232Y0049591D01*
X0100826Y0051024D01*
X0100826Y0058576D01*
X0100232Y0060009D01*
X0099135Y0061106D01*
X0097702Y0061700D01*
X0099284Y0060957D02*
X0104410Y0060957D01*
X0103812Y0060359D02*
X0099883Y0060359D01*
X0100335Y0059760D02*
X0103359Y0059760D01*
X0103111Y0059162D02*
X0100583Y0059162D01*
X0100826Y0058563D02*
X0102869Y0058563D01*
X0102869Y0057965D02*
X0100826Y0057965D01*
X0100826Y0057366D02*
X0102869Y0057366D01*
X0102869Y0056768D02*
X0100826Y0056768D01*
X0100826Y0056169D02*
X0102869Y0056169D01*
X0102869Y0055571D02*
X0100826Y0055571D01*
X0100826Y0054972D02*
X0102869Y0054972D01*
X0102869Y0054374D02*
X0100826Y0054374D01*
X0100826Y0053775D02*
X0102869Y0053775D01*
X0102869Y0053177D02*
X0100826Y0053177D01*
X0100826Y0052578D02*
X0102869Y0052578D01*
X0102869Y0051980D02*
X0100826Y0051980D01*
X0100826Y0051381D02*
X0102869Y0051381D01*
X0102969Y0050783D02*
X0100726Y0050783D01*
X0100478Y0050184D02*
X0103216Y0050184D01*
X0103467Y0049586D02*
X0100227Y0049586D01*
X0099629Y0048987D02*
X0104066Y0048987D01*
X0104813Y0048389D02*
X0098881Y0048389D01*
X0094971Y0048389D02*
X0063405Y0048389D01*
X0063659Y0048494D02*
X0064756Y0049591D01*
X0065350Y0051024D01*
X0065350Y0058576D01*
X0064756Y0060009D01*
X0063659Y0061106D01*
X0062225Y0061700D01*
X0060674Y0061700D01*
X0059240Y0061106D01*
X0058143Y0060009D01*
X0057550Y0058576D01*
X0057550Y0051024D01*
X0058143Y0049591D01*
X0059240Y0048494D01*
X0060674Y0047900D01*
X0062225Y0047900D01*
X0063659Y0048494D01*
X0064152Y0048987D02*
X0094223Y0048987D01*
X0093625Y0049586D02*
X0064751Y0049586D01*
X0065002Y0050184D02*
X0093374Y0050184D01*
X0093126Y0050783D02*
X0065250Y0050783D01*
X0065350Y0051381D02*
X0093026Y0051381D01*
X0093026Y0051980D02*
X0065350Y0051980D01*
X0065350Y0052578D02*
X0093026Y0052578D01*
X0093026Y0053177D02*
X0065350Y0053177D01*
X0065350Y0053775D02*
X0093026Y0053775D01*
X0093026Y0054374D02*
X0065350Y0054374D01*
X0065350Y0054972D02*
X0093026Y0054972D01*
X0093026Y0055571D02*
X0065350Y0055571D01*
X0065350Y0056169D02*
X0093026Y0056169D01*
X0093026Y0056768D02*
X0065350Y0056768D01*
X0065350Y0057366D02*
X0093026Y0057366D01*
X0093026Y0057965D02*
X0065350Y0057965D01*
X0065350Y0058563D02*
X0093026Y0058563D01*
X0093269Y0059162D02*
X0065107Y0059162D01*
X0064859Y0059760D02*
X0093517Y0059760D01*
X0093969Y0060359D02*
X0064406Y0060359D01*
X0063808Y0060957D02*
X0094568Y0060957D01*
X0095802Y0061556D02*
X0062573Y0061556D01*
X0060326Y0061556D02*
X0052731Y0061556D01*
X0053965Y0060957D02*
X0059092Y0060957D01*
X0058493Y0060359D02*
X0054564Y0060359D01*
X0055016Y0059760D02*
X0058040Y0059760D01*
X0057792Y0059162D02*
X0055264Y0059162D01*
X0055507Y0058563D02*
X0057550Y0058563D01*
X0057550Y0057965D02*
X0055507Y0057965D01*
X0055507Y0057366D02*
X0057550Y0057366D01*
X0057550Y0056768D02*
X0055507Y0056768D01*
X0055507Y0056169D02*
X0057550Y0056169D01*
X0057550Y0055571D02*
X0055507Y0055571D01*
X0055507Y0054972D02*
X0057550Y0054972D01*
X0057550Y0054374D02*
X0055507Y0054374D01*
X0055507Y0053775D02*
X0057550Y0053775D01*
X0057550Y0053177D02*
X0055507Y0053177D01*
X0055507Y0052578D02*
X0057550Y0052578D01*
X0057550Y0051980D02*
X0055507Y0051980D01*
X0055507Y0051381D02*
X0057550Y0051381D01*
X0057650Y0050783D02*
X0055407Y0050783D01*
X0055159Y0050184D02*
X0057898Y0050184D01*
X0058149Y0049586D02*
X0054908Y0049586D01*
X0054310Y0048987D02*
X0058747Y0048987D01*
X0059494Y0048389D02*
X0053562Y0048389D01*
X0049652Y0048389D02*
X0036288Y0048389D01*
X0035689Y0048987D02*
X0048905Y0048987D01*
X0048306Y0049586D02*
X0035091Y0049586D01*
X0034492Y0050184D02*
X0048055Y0050184D01*
X0047807Y0050783D02*
X0033894Y0050783D01*
X0033295Y0051381D02*
X0047707Y0051381D01*
X0047707Y0051980D02*
X0032697Y0051980D01*
X0032098Y0052578D02*
X0047707Y0052578D01*
X0047707Y0053177D02*
X0031634Y0053177D01*
X0031634Y0053775D02*
X0044230Y0053775D01*
X0043632Y0054374D02*
X0031634Y0054374D01*
X0031634Y0054972D02*
X0043033Y0054972D01*
X0042435Y0055571D02*
X0031634Y0055571D01*
X0031634Y0056169D02*
X0041836Y0056169D01*
X0041238Y0056768D02*
X0031634Y0056768D01*
X0031634Y0057366D02*
X0040639Y0057366D01*
X0040041Y0057965D02*
X0031634Y0057965D01*
X0031634Y0058563D02*
X0039442Y0058563D01*
X0038844Y0059162D02*
X0031634Y0059162D01*
X0031634Y0059760D02*
X0038245Y0059760D01*
X0037646Y0060359D02*
X0031634Y0060359D01*
X0031634Y0060957D02*
X0037108Y0060957D01*
X0037108Y0061556D02*
X0031634Y0061556D01*
X0031371Y0062154D02*
X0037108Y0062154D01*
X0037108Y0062753D02*
X0030773Y0062753D01*
X0030174Y0063351D02*
X0037108Y0063351D01*
X0037108Y0063950D02*
X0027395Y0063950D01*
X0027994Y0064548D02*
X0037108Y0064548D01*
X0037108Y0065147D02*
X0028592Y0065147D01*
X0028661Y0065745D02*
X0037108Y0065745D01*
X0037108Y0066344D02*
X0028661Y0066344D01*
X0028661Y0066942D02*
X0037108Y0066942D01*
X0037108Y0067541D02*
X0028661Y0067541D01*
X0028661Y0068139D02*
X0037108Y0068139D01*
X0037108Y0068738D02*
X0028205Y0068738D01*
X0027606Y0069336D02*
X0037108Y0069336D01*
X0037108Y0069935D02*
X0027008Y0069935D01*
X0021804Y0062154D02*
X0017307Y0062154D01*
X0017906Y0061556D02*
X0022403Y0061556D01*
X0023339Y0060359D02*
X0019103Y0060359D01*
X0018504Y0060957D02*
X0029174Y0060957D01*
X0029234Y0060359D02*
X0026584Y0060359D01*
X0027182Y0059760D02*
X0029234Y0059760D01*
X0029234Y0059162D02*
X0027781Y0059162D01*
X0028380Y0058563D02*
X0029234Y0058563D01*
X0029234Y0057965D02*
X0028661Y0057965D01*
X0028661Y0057366D02*
X0029234Y0057366D01*
X0029234Y0056768D02*
X0028661Y0056768D01*
X0028661Y0056169D02*
X0029234Y0056169D01*
X0029234Y0055571D02*
X0028661Y0055571D01*
X0028417Y0054972D02*
X0029234Y0054972D01*
X0029234Y0054374D02*
X0027819Y0054374D01*
X0027220Y0053775D02*
X0029234Y0053775D01*
X0029234Y0053177D02*
X0026622Y0053177D01*
X0029234Y0052578D02*
X0020829Y0052578D01*
X0021428Y0051980D02*
X0029303Y0051980D01*
X0029901Y0051381D02*
X0022026Y0051381D01*
X0022625Y0050783D02*
X0030500Y0050783D01*
X0031098Y0050184D02*
X0023223Y0050184D01*
X0023822Y0049586D02*
X0031697Y0049586D01*
X0032295Y0048987D02*
X0024420Y0048987D01*
X0025019Y0048389D02*
X0032894Y0048389D01*
X0033492Y0047790D02*
X0025617Y0047790D01*
X0026216Y0047192D02*
X0034091Y0047192D01*
X0034689Y0046593D02*
X0026814Y0046593D01*
X0026851Y0044859D02*
X0014961Y0056749D01*
X0015158Y0056749D01*
X0018661Y0056768D02*
X0019300Y0056768D01*
X0018701Y0057366D02*
X0018661Y0057366D01*
X0018661Y0056169D02*
X0019898Y0056169D01*
X0020497Y0055571D02*
X0018661Y0055571D01*
X0018435Y0054972D02*
X0021505Y0054972D01*
X0022104Y0054374D02*
X0019034Y0054374D01*
X0019632Y0053775D02*
X0022702Y0053775D01*
X0023301Y0053177D02*
X0020231Y0053177D01*
X0021016Y0056749D02*
X0016735Y0061030D01*
X0013188Y0061030D01*
X0010680Y0058522D01*
X0010680Y0054976D01*
X0013505Y0052151D01*
X0013505Y0047221D01*
X0019410Y0041316D01*
X0171925Y0041316D01*
X0175902Y0044895D01*
X0178117Y0047110D01*
X0178630Y0047572D01*
X0178633Y0047626D01*
X0178672Y0047665D01*
X0178708Y0048355D01*
X0178708Y0066636D01*
X0178724Y0066655D01*
X0178724Y0067323D01*
X0178672Y0067989D01*
X0178672Y0067321D01*
X0178724Y0066655D01*
X0178724Y0060742D01*
X0178859Y0060607D01*
X0176891Y0067251D02*
X0163339Y0078835D01*
X0163339Y0086080D01*
X0175661Y0098402D01*
X0180828Y0098402D01*
X0179266Y0096868D02*
X0175823Y0096868D01*
X0175225Y0096270D02*
X0179865Y0096270D01*
X0181717Y0089087D02*
X0187495Y0089087D01*
X0187495Y0088489D02*
X0183162Y0088489D01*
X0183996Y0087890D02*
X0187495Y0087890D01*
X0187495Y0087292D02*
X0184595Y0087292D01*
X0185193Y0086693D02*
X0187495Y0086693D01*
X0187495Y0086095D02*
X0185512Y0086095D01*
X0185760Y0085496D02*
X0187495Y0085496D01*
X0187495Y0084898D02*
X0186008Y0084898D01*
X0186256Y0084299D02*
X0187495Y0084299D01*
X0187495Y0083701D02*
X0186261Y0083701D01*
X0186261Y0083102D02*
X0187495Y0083102D01*
X0187495Y0082504D02*
X0186261Y0082504D01*
X0186261Y0081905D02*
X0187495Y0081905D01*
X0187495Y0081307D02*
X0186053Y0081307D01*
X0185805Y0080708D02*
X0187495Y0080708D01*
X0187495Y0080110D02*
X0185557Y0080110D01*
X0185301Y0079511D02*
X0187495Y0079511D01*
X0187495Y0078913D02*
X0184703Y0078913D01*
X0184104Y0078314D02*
X0187495Y0078314D01*
X0187495Y0077716D02*
X0183424Y0077716D01*
X0181979Y0077117D02*
X0187495Y0077117D01*
X0178609Y0068126D02*
X0178615Y0068046D01*
X0178672Y0067989D01*
X0178609Y0068126D02*
X0178101Y0068560D01*
X0177628Y0069032D01*
X0165120Y0079724D01*
X0165120Y0083835D01*
X0166309Y0083835D01*
X0166309Y0084161D01*
X0165120Y0084161D02*
X0165120Y0083835D01*
X0164548Y0085496D02*
X0164539Y0085496D01*
X0165050Y0086095D02*
X0165146Y0086095D01*
X0165649Y0086693D02*
X0174887Y0086693D01*
X0165080Y0092891D02*
X0130935Y0058746D01*
X0130935Y0049944D01*
X0127631Y0046640D01*
X0124498Y0048389D02*
X0118566Y0048389D01*
X0118820Y0048494D02*
X0119917Y0049591D01*
X0120511Y0051024D01*
X0120511Y0058576D01*
X0119917Y0060009D01*
X0118820Y0061106D01*
X0117387Y0061700D01*
X0115835Y0061700D01*
X0114402Y0061106D01*
X0113305Y0060009D01*
X0112711Y0058576D01*
X0112711Y0051024D01*
X0113305Y0049591D01*
X0114402Y0048494D01*
X0115835Y0047900D01*
X0117387Y0047900D01*
X0118820Y0048494D01*
X0119314Y0048987D02*
X0123751Y0048987D01*
X0123152Y0049586D02*
X0119912Y0049586D01*
X0120163Y0050184D02*
X0122902Y0050184D01*
X0122654Y0050783D02*
X0120411Y0050783D01*
X0120511Y0051381D02*
X0122554Y0051381D01*
X0122554Y0051980D02*
X0120511Y0051980D01*
X0120511Y0052578D02*
X0122554Y0052578D01*
X0122554Y0053177D02*
X0120511Y0053177D01*
X0120511Y0053775D02*
X0122554Y0053775D01*
X0122554Y0054374D02*
X0120511Y0054374D01*
X0120511Y0054972D02*
X0122554Y0054972D01*
X0122554Y0055571D02*
X0120511Y0055571D01*
X0120511Y0056169D02*
X0122554Y0056169D01*
X0122554Y0056768D02*
X0120511Y0056768D01*
X0120511Y0057366D02*
X0122554Y0057366D01*
X0122554Y0057965D02*
X0120511Y0057965D01*
X0120511Y0058563D02*
X0122554Y0058563D01*
X0122796Y0059162D02*
X0120268Y0059162D01*
X0120020Y0059760D02*
X0123044Y0059760D01*
X0123497Y0060359D02*
X0119568Y0060359D01*
X0118969Y0060957D02*
X0124095Y0060957D01*
X0125254Y0061556D02*
X0117735Y0061556D01*
X0115487Y0061556D02*
X0107968Y0061556D01*
X0107968Y0062154D02*
X0125254Y0062154D01*
X0125254Y0062753D02*
X0107968Y0062753D01*
X0107968Y0063351D02*
X0125254Y0063351D01*
X0125254Y0063950D02*
X0107968Y0063950D01*
X0107968Y0064548D02*
X0125748Y0064548D01*
X0126347Y0065147D02*
X0107968Y0065147D01*
X0107968Y0065745D02*
X0126945Y0065745D01*
X0127544Y0066344D02*
X0107968Y0066344D01*
X0107968Y0066942D02*
X0128142Y0066942D01*
X0128741Y0067541D02*
X0107968Y0067541D01*
X0107968Y0068139D02*
X0129339Y0068139D01*
X0129938Y0068738D02*
X0107968Y0068738D01*
X0107968Y0069336D02*
X0130536Y0069336D01*
X0131135Y0069935D02*
X0107968Y0069935D01*
X0107968Y0070534D02*
X0131733Y0070534D01*
X0132332Y0071132D02*
X0107968Y0071132D01*
X0107968Y0071731D02*
X0132930Y0071731D01*
X0133529Y0072329D02*
X0107968Y0072329D01*
X0107968Y0072928D02*
X0134127Y0072928D01*
X0134726Y0073526D02*
X0111803Y0073526D01*
X0111262Y0072985D02*
X0109448Y0072985D01*
X0108166Y0074267D01*
X0108166Y0076081D01*
X0109448Y0077363D01*
X0110847Y0077363D01*
X0146472Y0112988D01*
X0160034Y0112988D01*
X0161023Y0113977D01*
X0162837Y0113977D01*
X0164119Y0112695D01*
X0164119Y0110881D01*
X0162860Y0109623D01*
X0164119Y0108364D01*
X0164119Y0106551D01*
X0162837Y0105269D01*
X0161023Y0105269D01*
X0160034Y0106257D01*
X0148647Y0106257D01*
X0121205Y0078816D01*
X0121205Y0077417D01*
X0119923Y0076135D01*
X0118110Y0076135D01*
X0116828Y0077417D01*
X0116828Y0079230D01*
X0118110Y0080513D01*
X0119508Y0080513D01*
X0147653Y0108657D01*
X0160034Y0108657D01*
X0161000Y0109623D01*
X0160034Y0110588D01*
X0147466Y0110588D01*
X0112544Y0075666D01*
X0112544Y0074267D01*
X0111262Y0072985D01*
X0112401Y0074125D02*
X0135324Y0074125D01*
X0135923Y0074723D02*
X0112544Y0074723D01*
X0112544Y0075322D02*
X0136521Y0075322D01*
X0137120Y0075920D02*
X0112798Y0075920D01*
X0113397Y0076519D02*
X0117726Y0076519D01*
X0117127Y0077117D02*
X0113995Y0077117D01*
X0114594Y0077716D02*
X0116828Y0077716D01*
X0116828Y0078314D02*
X0115192Y0078314D01*
X0115791Y0078913D02*
X0116828Y0078913D01*
X0117108Y0079511D02*
X0116389Y0079511D01*
X0116988Y0080110D02*
X0117707Y0080110D01*
X0117586Y0080708D02*
X0119704Y0080708D01*
X0120303Y0081307D02*
X0118185Y0081307D01*
X0118783Y0081905D02*
X0120901Y0081905D01*
X0121500Y0082504D02*
X0119382Y0082504D01*
X0119980Y0083102D02*
X0122098Y0083102D01*
X0122697Y0083701D02*
X0120579Y0083701D01*
X0121177Y0084299D02*
X0123295Y0084299D01*
X0123894Y0084898D02*
X0121776Y0084898D01*
X0122374Y0085496D02*
X0124492Y0085496D01*
X0125091Y0086095D02*
X0122973Y0086095D01*
X0123571Y0086693D02*
X0125689Y0086693D01*
X0126288Y0087292D02*
X0124170Y0087292D01*
X0124768Y0087890D02*
X0126886Y0087890D01*
X0127485Y0088489D02*
X0125367Y0088489D01*
X0125966Y0089087D02*
X0128083Y0089087D01*
X0128682Y0089686D02*
X0126564Y0089686D01*
X0127163Y0090284D02*
X0129280Y0090284D01*
X0129879Y0090883D02*
X0127761Y0090883D01*
X0128360Y0091481D02*
X0130477Y0091481D01*
X0131076Y0092080D02*
X0128958Y0092080D01*
X0129557Y0092678D02*
X0131674Y0092678D01*
X0132273Y0093277D02*
X0130155Y0093277D01*
X0130754Y0093875D02*
X0132871Y0093875D01*
X0133470Y0094474D02*
X0131352Y0094474D01*
X0131951Y0095072D02*
X0134068Y0095072D01*
X0134667Y0095671D02*
X0132549Y0095671D01*
X0133148Y0096270D02*
X0135265Y0096270D01*
X0135864Y0096868D02*
X0133746Y0096868D01*
X0134345Y0097467D02*
X0136462Y0097467D01*
X0137061Y0098065D02*
X0134943Y0098065D01*
X0135542Y0098664D02*
X0137659Y0098664D01*
X0138258Y0099262D02*
X0136140Y0099262D01*
X0136739Y0099861D02*
X0138856Y0099861D01*
X0139455Y0100459D02*
X0137337Y0100459D01*
X0137936Y0101058D02*
X0140053Y0101058D01*
X0140652Y0101656D02*
X0138534Y0101656D01*
X0139133Y0102255D02*
X0141250Y0102255D01*
X0141849Y0102853D02*
X0139731Y0102853D01*
X0140330Y0103452D02*
X0142448Y0103452D01*
X0143046Y0104050D02*
X0140928Y0104050D01*
X0141527Y0104649D02*
X0143645Y0104649D01*
X0144243Y0105247D02*
X0142125Y0105247D01*
X0142724Y0105846D02*
X0144842Y0105846D01*
X0145440Y0106444D02*
X0143322Y0106444D01*
X0143921Y0107043D02*
X0146039Y0107043D01*
X0146637Y0107641D02*
X0144519Y0107641D01*
X0145118Y0108240D02*
X0147236Y0108240D01*
X0148150Y0107457D02*
X0119017Y0078324D01*
X0121205Y0078314D02*
X0139514Y0078314D01*
X0138915Y0077716D02*
X0121205Y0077716D01*
X0120906Y0077117D02*
X0138317Y0077117D01*
X0137718Y0076519D02*
X0120307Y0076519D01*
X0121303Y0078913D02*
X0140112Y0078913D01*
X0140711Y0079511D02*
X0121901Y0079511D01*
X0122500Y0080110D02*
X0141309Y0080110D01*
X0141908Y0080708D02*
X0123098Y0080708D01*
X0123697Y0081307D02*
X0142507Y0081307D01*
X0143105Y0081905D02*
X0124295Y0081905D01*
X0124894Y0082504D02*
X0143704Y0082504D01*
X0144302Y0083102D02*
X0125492Y0083102D01*
X0126091Y0083701D02*
X0144901Y0083701D01*
X0145499Y0084299D02*
X0126689Y0084299D01*
X0127288Y0084898D02*
X0146098Y0084898D01*
X0146696Y0085496D02*
X0127886Y0085496D01*
X0128485Y0086095D02*
X0147295Y0086095D01*
X0147893Y0086693D02*
X0129083Y0086693D01*
X0129682Y0087292D02*
X0148492Y0087292D01*
X0149090Y0087890D02*
X0130280Y0087890D01*
X0130879Y0088489D02*
X0149689Y0088489D01*
X0150287Y0089087D02*
X0131477Y0089087D01*
X0132076Y0089686D02*
X0150886Y0089686D01*
X0151484Y0090284D02*
X0132674Y0090284D01*
X0133273Y0090883D02*
X0152083Y0090883D01*
X0152681Y0091481D02*
X0133871Y0091481D01*
X0134470Y0092080D02*
X0153280Y0092080D01*
X0153878Y0092678D02*
X0135068Y0092678D01*
X0135667Y0093277D02*
X0154477Y0093277D01*
X0155075Y0093875D02*
X0136265Y0093875D01*
X0136864Y0094474D02*
X0155674Y0094474D01*
X0156272Y0095072D02*
X0137462Y0095072D01*
X0138061Y0095671D02*
X0156871Y0095671D01*
X0157469Y0096270D02*
X0138659Y0096270D01*
X0139258Y0096868D02*
X0158068Y0096868D01*
X0158666Y0097467D02*
X0139856Y0097467D01*
X0140455Y0098065D02*
X0159265Y0098065D01*
X0159863Y0098664D02*
X0141054Y0098664D01*
X0141652Y0099262D02*
X0160462Y0099262D01*
X0161060Y0099861D02*
X0142251Y0099861D01*
X0142849Y0100459D02*
X0161659Y0100459D01*
X0162257Y0101058D02*
X0143448Y0101058D01*
X0144046Y0101656D02*
X0162856Y0101656D01*
X0163454Y0102255D02*
X0144645Y0102255D01*
X0145243Y0102853D02*
X0164053Y0102853D01*
X0164651Y0103452D02*
X0145842Y0103452D01*
X0146440Y0104050D02*
X0165250Y0104050D01*
X0165848Y0104649D02*
X0147039Y0104649D01*
X0147637Y0105247D02*
X0166447Y0105247D01*
X0167045Y0105846D02*
X0163414Y0105846D01*
X0164012Y0106444D02*
X0167644Y0106444D01*
X0168242Y0107043D02*
X0164119Y0107043D01*
X0164119Y0107641D02*
X0168841Y0107641D01*
X0169440Y0108240D02*
X0164119Y0108240D01*
X0163645Y0108838D02*
X0170038Y0108838D01*
X0170637Y0109437D02*
X0163046Y0109437D01*
X0163273Y0110035D02*
X0171235Y0110035D01*
X0171834Y0110634D02*
X0163871Y0110634D01*
X0164119Y0111232D02*
X0172432Y0111232D01*
X0173031Y0111831D02*
X0164119Y0111831D01*
X0164119Y0112429D02*
X0173629Y0112429D01*
X0174228Y0113028D02*
X0163786Y0113028D01*
X0163187Y0113626D02*
X0174826Y0113626D01*
X0175425Y0114225D02*
X0145591Y0114225D01*
X0144993Y0113626D02*
X0160672Y0113626D01*
X0160074Y0113028D02*
X0144394Y0113028D01*
X0143796Y0112429D02*
X0145913Y0112429D01*
X0145315Y0111831D02*
X0143197Y0111831D01*
X0142599Y0111232D02*
X0144716Y0111232D01*
X0144118Y0110634D02*
X0142000Y0110634D01*
X0141402Y0110035D02*
X0143519Y0110035D01*
X0142921Y0109437D02*
X0140803Y0109437D01*
X0140205Y0108838D02*
X0142322Y0108838D01*
X0141724Y0108240D02*
X0139606Y0108240D01*
X0139008Y0107641D02*
X0141125Y0107641D01*
X0140527Y0107043D02*
X0138409Y0107043D01*
X0137811Y0106444D02*
X0139928Y0106444D01*
X0139330Y0105846D02*
X0137212Y0105846D01*
X0136614Y0105247D02*
X0138731Y0105247D01*
X0138133Y0104649D02*
X0136015Y0104649D01*
X0135416Y0104050D02*
X0137534Y0104050D01*
X0136936Y0103452D02*
X0134818Y0103452D01*
X0134219Y0102853D02*
X0136337Y0102853D01*
X0135739Y0102255D02*
X0133621Y0102255D01*
X0133022Y0101656D02*
X0135140Y0101656D01*
X0134542Y0101058D02*
X0132424Y0101058D01*
X0131825Y0100459D02*
X0133943Y0100459D01*
X0133345Y0099861D02*
X0131227Y0099861D01*
X0130628Y0099262D02*
X0132746Y0099262D01*
X0132148Y0098664D02*
X0130030Y0098664D01*
X0129431Y0098065D02*
X0131549Y0098065D01*
X0130951Y0097467D02*
X0128833Y0097467D01*
X0128234Y0096868D02*
X0130352Y0096868D01*
X0129754Y0096270D02*
X0127636Y0096270D01*
X0127037Y0095671D02*
X0129155Y0095671D01*
X0128557Y0095072D02*
X0126439Y0095072D01*
X0125840Y0094474D02*
X0127958Y0094474D01*
X0127360Y0093875D02*
X0125242Y0093875D01*
X0124643Y0093277D02*
X0126761Y0093277D01*
X0126162Y0092678D02*
X0124045Y0092678D01*
X0123446Y0092080D02*
X0125564Y0092080D01*
X0124965Y0091481D02*
X0122848Y0091481D01*
X0122249Y0090883D02*
X0124367Y0090883D01*
X0123768Y0090284D02*
X0121651Y0090284D01*
X0121052Y0089686D02*
X0123170Y0089686D01*
X0122571Y0089087D02*
X0120454Y0089087D01*
X0119855Y0088489D02*
X0121973Y0088489D01*
X0121374Y0087890D02*
X0119257Y0087890D01*
X0118658Y0087292D02*
X0120776Y0087292D01*
X0120177Y0086693D02*
X0118060Y0086693D01*
X0117461Y0086095D02*
X0119579Y0086095D01*
X0118980Y0085496D02*
X0116863Y0085496D01*
X0116264Y0084898D02*
X0118382Y0084898D01*
X0117783Y0084299D02*
X0115666Y0084299D01*
X0115067Y0083701D02*
X0117185Y0083701D01*
X0116586Y0083102D02*
X0114469Y0083102D01*
X0113870Y0082504D02*
X0115988Y0082504D01*
X0115389Y0081905D02*
X0113272Y0081905D01*
X0112673Y0081307D02*
X0114791Y0081307D01*
X0114192Y0080708D02*
X0112075Y0080708D01*
X0111476Y0080110D02*
X0113594Y0080110D01*
X0112995Y0079511D02*
X0110878Y0079511D01*
X0110279Y0078913D02*
X0112397Y0078913D01*
X0111798Y0078314D02*
X0109680Y0078314D01*
X0109082Y0077716D02*
X0111200Y0077716D01*
X0109203Y0077117D02*
X0108483Y0077117D01*
X0108604Y0076519D02*
X0107968Y0076519D01*
X0107968Y0075920D02*
X0108166Y0075920D01*
X0108166Y0075322D02*
X0107968Y0075322D01*
X0107968Y0074723D02*
X0108166Y0074723D01*
X0108309Y0074125D02*
X0107968Y0074125D01*
X0107968Y0073526D02*
X0108907Y0073526D01*
X0110355Y0075174D02*
X0146969Y0111788D01*
X0161930Y0111788D01*
X0160587Y0110035D02*
X0146913Y0110035D01*
X0146315Y0109437D02*
X0160814Y0109437D01*
X0160215Y0108838D02*
X0145716Y0108838D01*
X0148150Y0107457D02*
X0161930Y0107457D01*
X0160446Y0105846D02*
X0148236Y0105846D01*
X0141000Y0113028D02*
X0028992Y0113028D01*
X0029590Y0113626D02*
X0141599Y0113626D01*
X0142197Y0114225D02*
X0030189Y0114225D01*
X0030787Y0114823D02*
X0142796Y0114823D01*
X0143394Y0115422D02*
X0031386Y0115422D01*
X0031984Y0116020D02*
X0143993Y0116020D01*
X0144591Y0116619D02*
X0032583Y0116619D01*
X0033181Y0117217D02*
X0175898Y0117217D01*
X0176497Y0117816D02*
X0033780Y0117816D01*
X0034378Y0118414D02*
X0177095Y0118414D01*
X0177694Y0119013D02*
X0034977Y0119013D01*
X0035575Y0119611D02*
X0178292Y0119611D01*
X0178891Y0120210D02*
X0036174Y0120210D01*
X0036773Y0120808D02*
X0172649Y0120808D01*
X0174135Y0122418D02*
X0036685Y0122418D01*
X0026735Y0112468D01*
X0020680Y0112468D01*
X0014961Y0106749D01*
X0021142Y0111232D02*
X0032576Y0111232D01*
X0032893Y0111831D02*
X0027795Y0111831D01*
X0028393Y0112429D02*
X0033491Y0112429D01*
X0036038Y0112429D02*
X0140402Y0112429D01*
X0139803Y0111831D02*
X0036637Y0111831D01*
X0036954Y0111232D02*
X0139205Y0111232D01*
X0138606Y0110634D02*
X0036954Y0110634D01*
X0037033Y0110035D02*
X0138008Y0110035D01*
X0137409Y0109437D02*
X0037632Y0109437D01*
X0038230Y0108838D02*
X0136810Y0108838D01*
X0136212Y0108240D02*
X0038829Y0108240D01*
X0039427Y0107641D02*
X0135613Y0107641D01*
X0135015Y0107043D02*
X0039508Y0107043D01*
X0039508Y0106444D02*
X0134416Y0106444D01*
X0133818Y0105846D02*
X0039508Y0105846D01*
X0039508Y0105247D02*
X0133219Y0105247D01*
X0132621Y0104649D02*
X0039508Y0104649D01*
X0039508Y0104050D02*
X0132022Y0104050D01*
X0131424Y0103452D02*
X0039508Y0103452D01*
X0039508Y0102853D02*
X0130825Y0102853D01*
X0130227Y0102255D02*
X0039508Y0102255D01*
X0039508Y0101656D02*
X0129628Y0101656D01*
X0129030Y0101058D02*
X0039508Y0101058D01*
X0038308Y0107064D02*
X0038308Y0061394D01*
X0044902Y0054800D01*
X0051607Y0054800D01*
X0047707Y0056169D02*
X0045230Y0056169D01*
X0044632Y0056768D02*
X0047707Y0056768D01*
X0047707Y0057366D02*
X0044033Y0057366D01*
X0043435Y0057965D02*
X0047707Y0057965D01*
X0047707Y0058563D02*
X0042836Y0058563D01*
X0042238Y0059162D02*
X0047950Y0059162D01*
X0048198Y0059760D02*
X0041639Y0059760D01*
X0041041Y0060359D02*
X0048650Y0060359D01*
X0049249Y0060957D02*
X0040442Y0060957D01*
X0039508Y0062753D02*
X0105569Y0062753D01*
X0105569Y0063351D02*
X0039508Y0063351D01*
X0039508Y0063950D02*
X0105569Y0063950D01*
X0105569Y0064548D02*
X0039508Y0064548D01*
X0051889Y0076519D02*
X0057247Y0076519D01*
X0057845Y0077117D02*
X0052592Y0077117D01*
X0053191Y0077716D02*
X0058444Y0077716D01*
X0059042Y0078314D02*
X0053790Y0078314D01*
X0054054Y0078913D02*
X0059641Y0078913D01*
X0060239Y0079511D02*
X0054302Y0079511D01*
X0054550Y0080110D02*
X0073612Y0080110D01*
X0073033Y0077117D02*
X0061239Y0077117D01*
X0060641Y0076519D02*
X0073631Y0076519D01*
X0060813Y0087890D02*
X0115863Y0087890D01*
X0116461Y0088489D02*
X0061363Y0088489D01*
X0061363Y0089087D02*
X0117060Y0089087D01*
X0117658Y0089686D02*
X0061363Y0089686D01*
X0061333Y0090284D02*
X0118257Y0090284D01*
X0118855Y0090883D02*
X0060734Y0090883D01*
X0060136Y0091481D02*
X0119454Y0091481D01*
X0120052Y0092080D02*
X0053069Y0092080D01*
X0053667Y0091481D02*
X0058213Y0091481D01*
X0057614Y0090883D02*
X0054266Y0090883D01*
X0054105Y0089347D02*
X0052364Y0091088D01*
X0044725Y0091088D01*
X0044033Y0090397D01*
X0042113Y0090397D01*
X0043526Y0092080D02*
X0044019Y0092080D01*
X0045019Y0089686D02*
X0052069Y0089686D01*
X0052667Y0089087D02*
X0043900Y0089087D01*
X0043301Y0088489D02*
X0053266Y0088489D01*
X0054105Y0089347D02*
X0059174Y0089347D01*
X0057535Y0087890D02*
X0050259Y0087890D01*
X0051704Y0087292D02*
X0058134Y0087292D01*
X0060214Y0087292D02*
X0115264Y0087292D01*
X0114666Y0086693D02*
X0052516Y0086693D01*
X0053114Y0086095D02*
X0114067Y0086095D01*
X0113469Y0085496D02*
X0053713Y0085496D01*
X0054023Y0084898D02*
X0112870Y0084898D01*
X0112272Y0084299D02*
X0054270Y0084299D01*
X0054518Y0083701D02*
X0111673Y0083701D01*
X0111074Y0083102D02*
X0054765Y0083102D01*
X0054765Y0082504D02*
X0110476Y0082504D01*
X0109877Y0081905D02*
X0054765Y0081905D01*
X0054765Y0081307D02*
X0109279Y0081307D01*
X0108680Y0080708D02*
X0054765Y0080708D01*
X0038308Y0107064D02*
X0034765Y0110607D01*
X0026735Y0122468D02*
X0020680Y0122468D01*
X0014961Y0116749D01*
X0016724Y0121030D02*
X0013188Y0121030D01*
X0013275Y0123203D02*
X0002900Y0123203D01*
X0002900Y0123801D02*
X0012677Y0123801D01*
X0012078Y0124400D02*
X0002900Y0124400D01*
X0002900Y0124998D02*
X0011480Y0124998D01*
X0011261Y0125597D02*
X0002900Y0125597D01*
X0002900Y0126195D02*
X0011261Y0126195D01*
X0011261Y0126794D02*
X0002900Y0126794D01*
X0002900Y0127392D02*
X0011261Y0127392D01*
X0011261Y0127991D02*
X0002900Y0127991D01*
X0002900Y0128589D02*
X0011569Y0128589D01*
X0012168Y0129188D02*
X0002900Y0129188D01*
X0002900Y0129786D02*
X0012766Y0129786D01*
X0013365Y0130385D02*
X0002900Y0130385D01*
X0002900Y0130983D02*
X0017499Y0130983D01*
X0018097Y0131582D02*
X0002900Y0131582D01*
X0002900Y0132180D02*
X0018696Y0132180D01*
X0019243Y0131030D02*
X0014961Y0126749D01*
X0018661Y0126794D02*
X0021261Y0126794D01*
X0021261Y0127392D02*
X0018661Y0127392D01*
X0018661Y0127991D02*
X0021261Y0127991D01*
X0021569Y0128589D02*
X0018499Y0128589D01*
X0019097Y0129188D02*
X0022168Y0129188D01*
X0022766Y0129786D02*
X0019696Y0129786D01*
X0019243Y0131030D02*
X0026735Y0131030D01*
X0027079Y0130686D01*
X0174135Y0130686D01*
X0180828Y0123993D01*
X0180828Y0120450D01*
X0176103Y0115725D01*
X0145394Y0115725D01*
X0106769Y0077099D01*
X0106769Y0054800D01*
X0110668Y0054972D02*
X0112711Y0054972D01*
X0112711Y0054374D02*
X0110668Y0054374D01*
X0110668Y0053775D02*
X0112711Y0053775D01*
X0112711Y0053177D02*
X0110668Y0053177D01*
X0110668Y0052578D02*
X0112711Y0052578D01*
X0112711Y0051980D02*
X0110668Y0051980D01*
X0110668Y0051381D02*
X0112711Y0051381D01*
X0112811Y0050783D02*
X0110568Y0050783D01*
X0110320Y0050184D02*
X0113059Y0050184D01*
X0113310Y0049586D02*
X0110070Y0049586D01*
X0109471Y0048987D02*
X0113908Y0048987D01*
X0114656Y0048389D02*
X0108724Y0048389D01*
X0110668Y0055571D02*
X0112711Y0055571D01*
X0112711Y0056169D02*
X0110668Y0056169D01*
X0110668Y0056768D02*
X0112711Y0056768D01*
X0112711Y0057366D02*
X0110668Y0057366D01*
X0110668Y0057965D02*
X0112711Y0057965D01*
X0112711Y0058563D02*
X0110668Y0058563D01*
X0110426Y0059162D02*
X0112954Y0059162D01*
X0113202Y0059760D02*
X0110178Y0059760D01*
X0109725Y0060359D02*
X0113654Y0060359D01*
X0114253Y0060957D02*
X0109127Y0060957D01*
X0126454Y0063557D02*
X0126454Y0054800D01*
X0132135Y0055571D02*
X0157110Y0055571D01*
X0157110Y0056169D02*
X0132135Y0056169D01*
X0132135Y0056768D02*
X0157110Y0056768D01*
X0157110Y0057366D02*
X0132135Y0057366D01*
X0132135Y0057965D02*
X0157110Y0057965D01*
X0157165Y0058563D02*
X0132449Y0058563D01*
X0133048Y0059162D02*
X0157306Y0059162D01*
X0157543Y0059760D02*
X0133646Y0059760D01*
X0134245Y0060359D02*
X0157897Y0060359D01*
X0158408Y0060957D02*
X0134843Y0060957D01*
X0135442Y0061556D02*
X0159156Y0061556D01*
X0161110Y0061556D02*
X0161710Y0061556D01*
X0161710Y0060957D02*
X0161110Y0060957D01*
X0161110Y0060359D02*
X0161710Y0060359D01*
X0161710Y0059760D02*
X0161110Y0059760D01*
X0161110Y0059162D02*
X0161710Y0059162D01*
X0161710Y0058563D02*
X0161110Y0058563D01*
X0161110Y0057965D02*
X0161710Y0057965D01*
X0161710Y0057366D02*
X0161110Y0057366D01*
X0161110Y0056768D02*
X0161710Y0056768D01*
X0161710Y0056169D02*
X0161110Y0056169D01*
X0161110Y0055571D02*
X0161710Y0055571D01*
X0161710Y0054972D02*
X0167353Y0054972D01*
X0167353Y0054374D02*
X0165710Y0054374D01*
X0165710Y0053775D02*
X0167353Y0053775D01*
X0167353Y0053177D02*
X0165710Y0053177D01*
X0165710Y0052578D02*
X0167353Y0052578D01*
X0167353Y0051980D02*
X0165710Y0051980D01*
X0165685Y0051381D02*
X0167353Y0051381D01*
X0167485Y0050783D02*
X0165575Y0050783D01*
X0165373Y0050184D02*
X0167733Y0050184D01*
X0168030Y0049586D02*
X0165059Y0049586D01*
X0164600Y0048987D02*
X0168629Y0048987D01*
X0169488Y0048389D02*
X0163922Y0048389D01*
X0165710Y0055571D02*
X0167353Y0055571D01*
X0167353Y0056169D02*
X0165710Y0056169D01*
X0165710Y0056768D02*
X0167353Y0056768D01*
X0167353Y0057366D02*
X0165710Y0057366D01*
X0165710Y0057965D02*
X0167353Y0057965D01*
X0167353Y0058563D02*
X0165655Y0058563D01*
X0165515Y0059162D02*
X0167563Y0059162D01*
X0167811Y0059760D02*
X0165278Y0059760D01*
X0164923Y0060359D02*
X0168217Y0060359D01*
X0168816Y0060957D02*
X0164413Y0060957D01*
X0163665Y0061556D02*
X0169939Y0061556D01*
X0176891Y0067251D02*
X0176891Y0048402D01*
X0172954Y0044859D01*
X0026851Y0044859D01*
X0018421Y0040608D02*
X0002900Y0040608D01*
X0002900Y0041206D02*
X0017822Y0041206D01*
X0017224Y0041805D02*
X0002900Y0041805D01*
X0002900Y0042403D02*
X0016625Y0042403D01*
X0016027Y0043002D02*
X0002900Y0043002D01*
X0002900Y0043601D02*
X0015428Y0043601D01*
X0014830Y0044199D02*
X0002900Y0044199D01*
X0002900Y0044798D02*
X0014231Y0044798D01*
X0013633Y0045396D02*
X0002900Y0045396D01*
X0002900Y0045995D02*
X0013034Y0045995D01*
X0013008Y0046021D02*
X0013008Y0046021D01*
X0012436Y0046593D02*
X0002900Y0046593D01*
X0002900Y0047192D02*
X0012305Y0047192D01*
X0012305Y0047790D02*
X0002900Y0047790D01*
X0002900Y0048389D02*
X0012305Y0048389D01*
X0012305Y0048987D02*
X0002900Y0048987D01*
X0002900Y0049586D02*
X0012305Y0049586D01*
X0012305Y0050184D02*
X0002900Y0050184D01*
X0002900Y0050783D02*
X0012305Y0050783D01*
X0012305Y0051381D02*
X0002900Y0051381D01*
X0002900Y0051980D02*
X0011979Y0051980D01*
X0011381Y0052578D02*
X0002900Y0052578D01*
X0002900Y0053177D02*
X0010782Y0053177D01*
X0010184Y0053775D02*
X0002900Y0053775D01*
X0002900Y0054374D02*
X0009585Y0054374D01*
X0009480Y0054972D02*
X0002900Y0054972D01*
X0002900Y0055571D02*
X0009480Y0055571D01*
X0009480Y0056169D02*
X0002900Y0056169D01*
X0002900Y0056768D02*
X0009480Y0056768D01*
X0009480Y0057366D02*
X0002900Y0057366D01*
X0002900Y0057965D02*
X0009480Y0057965D01*
X0009480Y0058563D02*
X0002900Y0058563D01*
X0002900Y0059162D02*
X0009623Y0059162D01*
X0010221Y0059760D02*
X0002900Y0059760D01*
X0002900Y0060359D02*
X0010820Y0060359D01*
X0011418Y0060957D02*
X0002900Y0060957D01*
X0002900Y0061556D02*
X0012017Y0061556D01*
X0012616Y0062154D02*
X0002900Y0062154D01*
X0019701Y0059760D02*
X0022740Y0059760D01*
X0022142Y0059162D02*
X0020300Y0059162D01*
X0020898Y0058563D02*
X0021543Y0058563D01*
X0021016Y0056749D02*
X0024961Y0056749D01*
X0016724Y0121030D02*
X0019943Y0124249D01*
X0022461Y0124249D01*
X0024961Y0126749D01*
X0021261Y0126195D02*
X0018661Y0126195D01*
X0018661Y0125597D02*
X0021261Y0125597D01*
X0018995Y0124998D02*
X0018443Y0124998D01*
X0018396Y0124400D02*
X0017845Y0124400D01*
X0017798Y0123801D02*
X0017246Y0123801D01*
X0017199Y0123203D02*
X0016648Y0123203D01*
X0016601Y0122604D02*
X0002900Y0122604D01*
X0002900Y0132779D02*
X0173132Y0132779D01*
X0172533Y0132180D02*
X0027281Y0132180D01*
X0026494Y0133049D02*
X0028661Y0135216D01*
X0028661Y0138281D01*
X0026494Y0140449D01*
X0023429Y0140449D01*
X0021261Y0138281D01*
X0021261Y0135216D01*
X0023429Y0133049D01*
X0026494Y0133049D01*
X0026822Y0133377D02*
X0175215Y0133377D01*
X0175137Y0132779D02*
X0175704Y0132779D01*
X0175736Y0132180D02*
X0176209Y0132180D01*
X0176324Y0131582D02*
X0176711Y0131582D01*
X0176324Y0130983D02*
X0177212Y0130983D01*
X0177714Y0130385D02*
X0176324Y0130385D01*
X0176731Y0129786D02*
X0178215Y0129786D01*
X0178717Y0129188D02*
X0177330Y0129188D01*
X0177928Y0128589D02*
X0179219Y0128589D01*
X0179720Y0127991D02*
X0178527Y0127991D01*
X0179125Y0127392D02*
X0180222Y0127392D01*
X0179724Y0126794D02*
X0180723Y0126794D01*
X0180322Y0126195D02*
X0181225Y0126195D01*
X0181409Y0125597D02*
X0180921Y0125597D01*
X0182609Y0126412D02*
X0176497Y0133705D01*
X0174135Y0136591D01*
X0175656Y0138165D02*
X0187495Y0138165D01*
X0187495Y0137567D02*
X0176255Y0137567D01*
X0176324Y0136968D02*
X0187495Y0136968D01*
X0187495Y0136370D02*
X0176324Y0136370D01*
X0176356Y0135771D02*
X0187495Y0135771D01*
X0187495Y0135173D02*
X0176846Y0135173D01*
X0177336Y0134574D02*
X0187495Y0134574D01*
X0187495Y0133976D02*
X0177836Y0133976D01*
X0178337Y0133377D02*
X0187495Y0133377D01*
X0187495Y0132779D02*
X0178839Y0132779D01*
X0179340Y0132180D02*
X0187495Y0132180D01*
X0187495Y0131582D02*
X0179842Y0131582D01*
X0180344Y0130983D02*
X0187495Y0130983D01*
X0187495Y0130385D02*
X0180845Y0130385D01*
X0181347Y0129786D02*
X0187495Y0129786D01*
X0187495Y0129188D02*
X0181848Y0129188D01*
X0182350Y0128589D02*
X0187495Y0128589D01*
X0187495Y0127991D02*
X0182852Y0127991D01*
X0183353Y0127392D02*
X0187495Y0127392D01*
X0187495Y0126794D02*
X0183847Y0126794D01*
X0183809Y0126195D02*
X0187495Y0126195D01*
X0187495Y0125597D02*
X0183809Y0125597D01*
X0183809Y0124998D02*
X0187495Y0124998D01*
X0187495Y0124400D02*
X0183809Y0124400D01*
X0183809Y0123801D02*
X0187495Y0123801D01*
X0187495Y0123203D02*
X0183809Y0123203D01*
X0183809Y0122604D02*
X0187495Y0122604D01*
X0187495Y0122005D02*
X0183809Y0122005D01*
X0183809Y0121407D02*
X0187495Y0121407D01*
X0187495Y0120808D02*
X0183809Y0120808D01*
X0183809Y0120210D02*
X0187495Y0120210D01*
X0187495Y0119611D02*
X0183809Y0119611D01*
X0183607Y0119013D02*
X0187495Y0119013D01*
X0187495Y0118414D02*
X0183008Y0118414D01*
X0182410Y0117816D02*
X0187495Y0117816D01*
X0187495Y0117217D02*
X0181811Y0117217D01*
X0181213Y0116619D02*
X0187495Y0116619D01*
X0187495Y0116020D02*
X0180614Y0116020D01*
X0180016Y0115422D02*
X0187495Y0115422D01*
X0187495Y0114823D02*
X0179417Y0114823D01*
X0178819Y0114225D02*
X0187495Y0114225D01*
X0187495Y0113626D02*
X0178220Y0113626D01*
X0177622Y0113028D02*
X0187495Y0113028D01*
X0187495Y0112429D02*
X0177023Y0112429D01*
X0176425Y0111831D02*
X0187495Y0111831D01*
X0187495Y0111232D02*
X0175826Y0111232D01*
X0175228Y0110634D02*
X0187495Y0110634D01*
X0187495Y0110035D02*
X0174629Y0110035D01*
X0174031Y0109437D02*
X0187495Y0109437D01*
X0187495Y0108838D02*
X0173432Y0108838D01*
X0172834Y0108240D02*
X0187495Y0108240D01*
X0187495Y0107641D02*
X0172235Y0107641D01*
X0171637Y0107043D02*
X0187495Y0107043D01*
X0187495Y0106444D02*
X0171038Y0106444D01*
X0170440Y0105846D02*
X0187495Y0105846D01*
X0187495Y0105247D02*
X0169841Y0105247D01*
X0169243Y0104649D02*
X0187495Y0104649D01*
X0187495Y0104050D02*
X0168644Y0104050D01*
X0168046Y0103452D02*
X0187495Y0103452D01*
X0187495Y0102853D02*
X0167447Y0102853D01*
X0166848Y0102255D02*
X0187495Y0102255D01*
X0187495Y0101656D02*
X0166250Y0101656D01*
X0164166Y0095072D02*
X0159666Y0095072D01*
X0159068Y0094474D02*
X0163567Y0094474D01*
X0162969Y0093875D02*
X0158469Y0093875D01*
X0157871Y0093277D02*
X0162891Y0093277D01*
X0162891Y0092678D02*
X0157272Y0092678D01*
X0156674Y0092080D02*
X0162572Y0092080D01*
X0161973Y0091481D02*
X0156075Y0091481D01*
X0155477Y0090883D02*
X0161375Y0090883D01*
X0160776Y0090284D02*
X0154878Y0090284D01*
X0154280Y0089686D02*
X0160178Y0089686D01*
X0159579Y0089087D02*
X0153681Y0089087D01*
X0153083Y0088489D02*
X0158981Y0088489D01*
X0158382Y0087890D02*
X0152484Y0087890D01*
X0151886Y0087292D02*
X0157784Y0087292D01*
X0157185Y0086693D02*
X0151287Y0086693D01*
X0150689Y0086095D02*
X0156587Y0086095D01*
X0155988Y0085496D02*
X0150090Y0085496D01*
X0149492Y0084898D02*
X0155390Y0084898D01*
X0154791Y0084299D02*
X0148893Y0084299D01*
X0148295Y0083701D02*
X0154193Y0083701D01*
X0153594Y0083102D02*
X0147696Y0083102D01*
X0147098Y0082504D02*
X0152996Y0082504D01*
X0152397Y0081905D02*
X0146499Y0081905D01*
X0145901Y0081307D02*
X0151799Y0081307D01*
X0151200Y0080708D02*
X0145302Y0080708D01*
X0144704Y0080110D02*
X0150602Y0080110D01*
X0150003Y0079511D02*
X0144105Y0079511D01*
X0143507Y0078913D02*
X0149405Y0078913D01*
X0148806Y0078314D02*
X0142908Y0078314D01*
X0142310Y0077716D02*
X0148208Y0077716D01*
X0147609Y0077117D02*
X0141711Y0077117D01*
X0141113Y0076519D02*
X0147011Y0076519D01*
X0146412Y0075920D02*
X0140514Y0075920D01*
X0139915Y0075322D02*
X0145814Y0075322D01*
X0145215Y0074723D02*
X0139317Y0074723D01*
X0138718Y0074125D02*
X0144617Y0074125D01*
X0144018Y0073526D02*
X0138120Y0073526D01*
X0137521Y0072928D02*
X0143419Y0072928D01*
X0142821Y0072329D02*
X0136923Y0072329D01*
X0136324Y0071731D02*
X0142222Y0071731D01*
X0141624Y0071132D02*
X0135726Y0071132D01*
X0135127Y0070534D02*
X0141025Y0070534D01*
X0140427Y0069935D02*
X0134529Y0069935D01*
X0133930Y0069336D02*
X0139828Y0069336D01*
X0139230Y0068738D02*
X0133332Y0068738D01*
X0132733Y0068139D02*
X0138631Y0068139D01*
X0138033Y0067541D02*
X0132135Y0067541D01*
X0131536Y0066942D02*
X0137434Y0066942D01*
X0136836Y0066344D02*
X0130938Y0066344D01*
X0130339Y0065745D02*
X0136237Y0065745D01*
X0135639Y0065147D02*
X0129741Y0065147D01*
X0129142Y0064548D02*
X0135040Y0064548D01*
X0134442Y0063950D02*
X0128544Y0063950D01*
X0127945Y0063351D02*
X0133843Y0063351D01*
X0133245Y0062753D02*
X0127654Y0062753D01*
X0127654Y0062154D02*
X0132646Y0062154D01*
X0132048Y0061556D02*
X0127654Y0061556D01*
X0128812Y0060957D02*
X0131449Y0060957D01*
X0130851Y0060359D02*
X0129410Y0060359D01*
X0129863Y0059760D02*
X0130252Y0059760D01*
X0126454Y0063557D02*
X0182609Y0119712D01*
X0182609Y0126412D01*
X0179322Y0123801D02*
X0175847Y0123801D01*
X0176324Y0123203D02*
X0179628Y0123203D01*
X0179628Y0122604D02*
X0176324Y0122604D01*
X0176324Y0122005D02*
X0179628Y0122005D01*
X0179628Y0121407D02*
X0176219Y0121407D01*
X0175621Y0120808D02*
X0179489Y0120808D01*
X0178724Y0124400D02*
X0175275Y0124400D01*
X0175873Y0124998D02*
X0178125Y0124998D01*
X0177527Y0125597D02*
X0176324Y0125597D01*
X0176324Y0126195D02*
X0176928Y0126195D01*
X0176330Y0126794D02*
X0176324Y0126794D01*
X0174135Y0126355D02*
X0030622Y0126355D01*
X0026735Y0122468D01*
X0016900Y0130385D02*
X0016558Y0130385D01*
X0016494Y0133049D02*
X0013429Y0133049D01*
X0011261Y0135216D01*
X0011261Y0138281D01*
X0013429Y0140449D01*
X0016494Y0140449D01*
X0018661Y0138281D01*
X0018661Y0135216D01*
X0016494Y0133049D01*
X0016822Y0133377D02*
X0023100Y0133377D01*
X0022502Y0133976D02*
X0017421Y0133976D01*
X0018019Y0134574D02*
X0021903Y0134574D01*
X0021305Y0135173D02*
X0018618Y0135173D01*
X0018661Y0135771D02*
X0021261Y0135771D01*
X0021261Y0136370D02*
X0018661Y0136370D01*
X0018661Y0136968D02*
X0021261Y0136968D01*
X0021261Y0137567D02*
X0018661Y0137567D01*
X0018661Y0138165D02*
X0021261Y0138165D01*
X0021744Y0138764D02*
X0018179Y0138764D01*
X0017580Y0139362D02*
X0022342Y0139362D01*
X0022941Y0139961D02*
X0016982Y0139961D01*
X0015697Y0143049D02*
X0017057Y0143612D01*
X0018098Y0144653D01*
X0018661Y0146013D01*
X0018661Y0147485D01*
X0018098Y0148845D01*
X0017057Y0149886D01*
X0015697Y0150449D01*
X0014225Y0150449D01*
X0012866Y0149886D01*
X0011825Y0148845D01*
X0011261Y0147485D01*
X0011261Y0146013D01*
X0011825Y0144653D01*
X0012866Y0143612D01*
X0014225Y0143049D01*
X0015697Y0143049D01*
X0016912Y0143552D02*
X0022926Y0143552D01*
X0023429Y0143049D02*
X0026494Y0143049D01*
X0028661Y0145216D01*
X0028661Y0148281D01*
X0026494Y0150449D01*
X0023429Y0150449D01*
X0021261Y0148281D01*
X0021261Y0145216D01*
X0023429Y0143049D01*
X0022327Y0144150D02*
X0017596Y0144150D01*
X0018138Y0144749D02*
X0021729Y0144749D01*
X0021261Y0145347D02*
X0018386Y0145347D01*
X0018634Y0145946D02*
X0021261Y0145946D01*
X0021261Y0146544D02*
X0018661Y0146544D01*
X0018661Y0147143D02*
X0021261Y0147143D01*
X0021261Y0147741D02*
X0018555Y0147741D01*
X0018307Y0148340D02*
X0021320Y0148340D01*
X0021919Y0148938D02*
X0018004Y0148938D01*
X0017406Y0149537D02*
X0022517Y0149537D01*
X0023116Y0150136D02*
X0016454Y0150136D01*
X0013469Y0150136D02*
X0002900Y0150136D01*
X0002900Y0150734D02*
X0187495Y0150734D01*
X0187495Y0150136D02*
X0026807Y0150136D01*
X0027406Y0149537D02*
X0187495Y0149537D01*
X0187495Y0148938D02*
X0028004Y0148938D01*
X0028603Y0148340D02*
X0187495Y0148340D01*
X0187495Y0147741D02*
X0028661Y0147741D01*
X0028661Y0147143D02*
X0187495Y0147143D01*
X0187495Y0146544D02*
X0028661Y0146544D01*
X0028661Y0145946D02*
X0187495Y0145946D01*
X0187495Y0145347D02*
X0028661Y0145347D01*
X0028194Y0144749D02*
X0187495Y0144749D01*
X0187495Y0144150D02*
X0027596Y0144150D01*
X0026997Y0143552D02*
X0187495Y0143552D01*
X0187495Y0142953D02*
X0002900Y0142953D01*
X0002900Y0142355D02*
X0187495Y0142355D01*
X0187495Y0141756D02*
X0002900Y0141756D01*
X0002900Y0141158D02*
X0187495Y0141158D01*
X0187495Y0140559D02*
X0002900Y0140559D01*
X0002900Y0139961D02*
X0012941Y0139961D01*
X0012342Y0139362D02*
X0002900Y0139362D01*
X0002900Y0138764D02*
X0011744Y0138764D01*
X0011261Y0138165D02*
X0002900Y0138165D01*
X0002900Y0137567D02*
X0011261Y0137567D01*
X0011261Y0136968D02*
X0002900Y0136968D01*
X0002900Y0136370D02*
X0011261Y0136370D01*
X0011261Y0135771D02*
X0002900Y0135771D01*
X0002900Y0135173D02*
X0011305Y0135173D01*
X0011903Y0134574D02*
X0002900Y0134574D01*
X0002900Y0133976D02*
X0012502Y0133976D01*
X0013100Y0133377D02*
X0002900Y0133377D01*
X0002900Y0143552D02*
X0013011Y0143552D01*
X0012327Y0144150D02*
X0002900Y0144150D01*
X0002900Y0144749D02*
X0011785Y0144749D01*
X0011537Y0145347D02*
X0002900Y0145347D01*
X0002900Y0145946D02*
X0011289Y0145946D01*
X0011261Y0146544D02*
X0002900Y0146544D01*
X0002900Y0147143D02*
X0011261Y0147143D01*
X0011368Y0147741D02*
X0002900Y0147741D01*
X0002900Y0148340D02*
X0011616Y0148340D01*
X0011919Y0148938D02*
X0002900Y0148938D01*
X0002900Y0149537D02*
X0012517Y0149537D01*
X0002900Y0151333D02*
X0187495Y0151333D01*
X0187495Y0151931D02*
X0002900Y0151931D01*
X0002900Y0152530D02*
X0187495Y0152530D01*
X0187495Y0153128D02*
X0002900Y0153128D01*
X0002900Y0153727D02*
X0187495Y0153727D01*
X0187495Y0154325D02*
X0182557Y0154325D01*
X0183564Y0154742D02*
X0181278Y0153795D01*
X0178803Y0153795D01*
X0176516Y0154742D01*
X0174766Y0156492D01*
X0173819Y0158779D01*
X0173819Y0161254D01*
X0174766Y0163541D01*
X0176516Y0165291D01*
X0178803Y0166238D01*
X0181278Y0166238D01*
X0183564Y0165291D01*
X0185314Y0163541D01*
X0186261Y0161254D01*
X0186261Y0158779D01*
X0185314Y0156492D01*
X0183564Y0154742D01*
X0183745Y0154924D02*
X0187495Y0154924D01*
X0187495Y0155522D02*
X0184344Y0155522D01*
X0184942Y0156121D02*
X0187495Y0156121D01*
X0187495Y0156719D02*
X0185408Y0156719D01*
X0185656Y0157318D02*
X0187495Y0157318D01*
X0187495Y0157916D02*
X0185904Y0157916D01*
X0186152Y0158515D02*
X0187495Y0158515D01*
X0187495Y0159113D02*
X0186261Y0159113D01*
X0186261Y0159712D02*
X0187495Y0159712D01*
X0187495Y0160310D02*
X0186261Y0160310D01*
X0186261Y0160909D02*
X0187495Y0160909D01*
X0187495Y0161507D02*
X0186157Y0161507D01*
X0185909Y0162106D02*
X0187495Y0162106D01*
X0187495Y0162704D02*
X0185661Y0162704D01*
X0185413Y0163303D02*
X0187495Y0163303D01*
X0187495Y0163901D02*
X0184954Y0163901D01*
X0184355Y0164500D02*
X0187495Y0164500D01*
X0187495Y0165098D02*
X0183757Y0165098D01*
X0182584Y0165697D02*
X0187495Y0165697D01*
X0187495Y0166295D02*
X0052245Y0166295D01*
X0052843Y0165697D02*
X0177497Y0165697D01*
X0176324Y0165098D02*
X0053442Y0165098D01*
X0053910Y0164500D02*
X0175725Y0164500D01*
X0175127Y0163901D02*
X0054158Y0163901D01*
X0054406Y0163303D02*
X0174668Y0163303D01*
X0174420Y0162704D02*
X0054654Y0162704D01*
X0054765Y0162106D02*
X0174172Y0162106D01*
X0173924Y0161507D02*
X0054765Y0161507D01*
X0054765Y0160909D02*
X0173819Y0160909D01*
X0173819Y0160310D02*
X0054765Y0160310D01*
X0054662Y0159712D02*
X0173819Y0159712D01*
X0173819Y0159113D02*
X0054415Y0159113D01*
X0054167Y0158515D02*
X0173928Y0158515D01*
X0174176Y0157916D02*
X0053919Y0157916D01*
X0053462Y0157318D02*
X0174424Y0157318D01*
X0174672Y0156719D02*
X0052864Y0156719D01*
X0052265Y0156121D02*
X0175138Y0156121D01*
X0175736Y0155522D02*
X0051099Y0155522D01*
X0045989Y0155522D02*
X0002900Y0155522D01*
X0002900Y0154924D02*
X0176335Y0154924D01*
X0177524Y0154325D02*
X0002900Y0154325D01*
X0002900Y0156121D02*
X0044823Y0156121D01*
X0044224Y0156719D02*
X0002900Y0156719D01*
X0002900Y0157318D02*
X0043626Y0157318D01*
X0043169Y0157916D02*
X0002900Y0157916D01*
X0002900Y0158515D02*
X0042922Y0158515D01*
X0042674Y0159113D02*
X0002900Y0159113D01*
X0002900Y0159712D02*
X0042426Y0159712D01*
X0042323Y0160310D02*
X0002900Y0160310D01*
X0002900Y0160909D02*
X0042323Y0160909D01*
X0042323Y0161507D02*
X0002900Y0161507D01*
X0002900Y0162106D02*
X0042323Y0162106D01*
X0042434Y0162704D02*
X0002900Y0162704D01*
X0002900Y0163303D02*
X0042682Y0163303D01*
X0042930Y0163901D02*
X0002900Y0163901D01*
X0002900Y0164500D02*
X0043178Y0164500D01*
X0043647Y0165098D02*
X0002900Y0165098D01*
X0002900Y0165697D02*
X0044245Y0165697D01*
X0044844Y0166295D02*
X0002900Y0166295D01*
X0002900Y0166894D02*
X0046039Y0166894D01*
X0051049Y0166894D02*
X0187495Y0166894D01*
X0187495Y0139961D02*
X0026982Y0139961D01*
X0027580Y0139362D02*
X0187495Y0139362D01*
X0187495Y0138764D02*
X0175058Y0138764D01*
X0173211Y0138764D02*
X0028179Y0138764D01*
X0028661Y0138165D02*
X0172613Y0138165D01*
X0172014Y0137567D02*
X0028661Y0137567D01*
X0028661Y0136968D02*
X0171946Y0136968D01*
X0171946Y0136370D02*
X0028661Y0136370D01*
X0028661Y0135771D02*
X0171946Y0135771D01*
X0172458Y0135173D02*
X0028618Y0135173D01*
X0028019Y0134574D02*
X0173056Y0134574D01*
X0174725Y0133976D02*
X0027421Y0133976D01*
D11*
X0043623Y0161198D02*
X0043625Y0161338D01*
X0043631Y0161478D01*
X0043641Y0161617D01*
X0043655Y0161756D01*
X0043673Y0161895D01*
X0043694Y0162033D01*
X0043720Y0162171D01*
X0043750Y0162308D01*
X0043783Y0162443D01*
X0043821Y0162578D01*
X0043862Y0162712D01*
X0043907Y0162845D01*
X0043955Y0162976D01*
X0044008Y0163105D01*
X0044064Y0163234D01*
X0044123Y0163360D01*
X0044187Y0163485D01*
X0044253Y0163608D01*
X0044324Y0163729D01*
X0044397Y0163848D01*
X0044474Y0163965D01*
X0044555Y0164079D01*
X0044638Y0164191D01*
X0044725Y0164301D01*
X0044815Y0164409D01*
X0044907Y0164513D01*
X0045003Y0164615D01*
X0045102Y0164715D01*
X0045203Y0164811D01*
X0045307Y0164905D01*
X0045414Y0164995D01*
X0045523Y0165082D01*
X0045635Y0165167D01*
X0045749Y0165248D01*
X0045865Y0165326D01*
X0045983Y0165400D01*
X0046104Y0165471D01*
X0046226Y0165539D01*
X0046351Y0165603D01*
X0046477Y0165664D01*
X0046604Y0165721D01*
X0046734Y0165774D01*
X0046865Y0165824D01*
X0046997Y0165869D01*
X0047130Y0165912D01*
X0047265Y0165950D01*
X0047400Y0165984D01*
X0047537Y0166015D01*
X0047674Y0166042D01*
X0047812Y0166064D01*
X0047951Y0166083D01*
X0048090Y0166098D01*
X0048229Y0166109D01*
X0048369Y0166116D01*
X0048509Y0166119D01*
X0048649Y0166118D01*
X0048789Y0166113D01*
X0048928Y0166104D01*
X0049068Y0166091D01*
X0049207Y0166074D01*
X0049345Y0166053D01*
X0049483Y0166029D01*
X0049620Y0166000D01*
X0049756Y0165968D01*
X0049891Y0165931D01*
X0050025Y0165891D01*
X0050158Y0165847D01*
X0050289Y0165799D01*
X0050419Y0165748D01*
X0050548Y0165693D01*
X0050675Y0165634D01*
X0050800Y0165571D01*
X0050923Y0165506D01*
X0051045Y0165436D01*
X0051164Y0165363D01*
X0051282Y0165287D01*
X0051397Y0165208D01*
X0051510Y0165125D01*
X0051620Y0165039D01*
X0051728Y0164950D01*
X0051833Y0164858D01*
X0051936Y0164763D01*
X0052036Y0164665D01*
X0052133Y0164565D01*
X0052227Y0164461D01*
X0052319Y0164355D01*
X0052407Y0164247D01*
X0052492Y0164136D01*
X0052574Y0164022D01*
X0052653Y0163906D01*
X0052728Y0163789D01*
X0052800Y0163669D01*
X0052868Y0163547D01*
X0052933Y0163423D01*
X0052995Y0163297D01*
X0053053Y0163170D01*
X0053107Y0163041D01*
X0053158Y0162910D01*
X0053204Y0162778D01*
X0053247Y0162645D01*
X0053287Y0162511D01*
X0053322Y0162376D01*
X0053354Y0162239D01*
X0053381Y0162102D01*
X0053405Y0161964D01*
X0053425Y0161826D01*
X0053441Y0161687D01*
X0053453Y0161547D01*
X0053461Y0161408D01*
X0053465Y0161268D01*
X0053465Y0161128D01*
X0053461Y0160988D01*
X0053453Y0160849D01*
X0053441Y0160709D01*
X0053425Y0160570D01*
X0053405Y0160432D01*
X0053381Y0160294D01*
X0053354Y0160157D01*
X0053322Y0160020D01*
X0053287Y0159885D01*
X0053247Y0159751D01*
X0053204Y0159618D01*
X0053158Y0159486D01*
X0053107Y0159355D01*
X0053053Y0159226D01*
X0052995Y0159099D01*
X0052933Y0158973D01*
X0052868Y0158849D01*
X0052800Y0158727D01*
X0052728Y0158607D01*
X0052653Y0158490D01*
X0052574Y0158374D01*
X0052492Y0158260D01*
X0052407Y0158149D01*
X0052319Y0158041D01*
X0052227Y0157935D01*
X0052133Y0157831D01*
X0052036Y0157731D01*
X0051936Y0157633D01*
X0051833Y0157538D01*
X0051728Y0157446D01*
X0051620Y0157357D01*
X0051510Y0157271D01*
X0051397Y0157188D01*
X0051282Y0157109D01*
X0051164Y0157033D01*
X0051045Y0156960D01*
X0050923Y0156890D01*
X0050800Y0156825D01*
X0050675Y0156762D01*
X0050548Y0156703D01*
X0050419Y0156648D01*
X0050289Y0156597D01*
X0050158Y0156549D01*
X0050025Y0156505D01*
X0049891Y0156465D01*
X0049756Y0156428D01*
X0049620Y0156396D01*
X0049483Y0156367D01*
X0049345Y0156343D01*
X0049207Y0156322D01*
X0049068Y0156305D01*
X0048928Y0156292D01*
X0048789Y0156283D01*
X0048649Y0156278D01*
X0048509Y0156277D01*
X0048369Y0156280D01*
X0048229Y0156287D01*
X0048090Y0156298D01*
X0047951Y0156313D01*
X0047812Y0156332D01*
X0047674Y0156354D01*
X0047537Y0156381D01*
X0047400Y0156412D01*
X0047265Y0156446D01*
X0047130Y0156484D01*
X0046997Y0156527D01*
X0046865Y0156572D01*
X0046734Y0156622D01*
X0046604Y0156675D01*
X0046477Y0156732D01*
X0046351Y0156793D01*
X0046226Y0156857D01*
X0046104Y0156925D01*
X0045983Y0156996D01*
X0045865Y0157070D01*
X0045749Y0157148D01*
X0045635Y0157229D01*
X0045523Y0157314D01*
X0045414Y0157401D01*
X0045307Y0157491D01*
X0045203Y0157585D01*
X0045102Y0157681D01*
X0045003Y0157781D01*
X0044907Y0157883D01*
X0044815Y0157987D01*
X0044725Y0158095D01*
X0044638Y0158205D01*
X0044555Y0158317D01*
X0044474Y0158431D01*
X0044397Y0158548D01*
X0044324Y0158667D01*
X0044253Y0158788D01*
X0044187Y0158911D01*
X0044123Y0159036D01*
X0044064Y0159162D01*
X0044008Y0159291D01*
X0043955Y0159420D01*
X0043907Y0159551D01*
X0043862Y0159684D01*
X0043821Y0159818D01*
X0043783Y0159953D01*
X0043750Y0160088D01*
X0043720Y0160225D01*
X0043694Y0160363D01*
X0043673Y0160501D01*
X0043655Y0160640D01*
X0043641Y0160779D01*
X0043631Y0160918D01*
X0043625Y0161058D01*
X0043623Y0161198D01*
X0043623Y0081867D02*
X0043625Y0082007D01*
X0043631Y0082147D01*
X0043641Y0082286D01*
X0043655Y0082425D01*
X0043673Y0082564D01*
X0043694Y0082702D01*
X0043720Y0082840D01*
X0043750Y0082977D01*
X0043783Y0083112D01*
X0043821Y0083247D01*
X0043862Y0083381D01*
X0043907Y0083514D01*
X0043955Y0083645D01*
X0044008Y0083774D01*
X0044064Y0083903D01*
X0044123Y0084029D01*
X0044187Y0084154D01*
X0044253Y0084277D01*
X0044324Y0084398D01*
X0044397Y0084517D01*
X0044474Y0084634D01*
X0044555Y0084748D01*
X0044638Y0084860D01*
X0044725Y0084970D01*
X0044815Y0085078D01*
X0044907Y0085182D01*
X0045003Y0085284D01*
X0045102Y0085384D01*
X0045203Y0085480D01*
X0045307Y0085574D01*
X0045414Y0085664D01*
X0045523Y0085751D01*
X0045635Y0085836D01*
X0045749Y0085917D01*
X0045865Y0085995D01*
X0045983Y0086069D01*
X0046104Y0086140D01*
X0046226Y0086208D01*
X0046351Y0086272D01*
X0046477Y0086333D01*
X0046604Y0086390D01*
X0046734Y0086443D01*
X0046865Y0086493D01*
X0046997Y0086538D01*
X0047130Y0086581D01*
X0047265Y0086619D01*
X0047400Y0086653D01*
X0047537Y0086684D01*
X0047674Y0086711D01*
X0047812Y0086733D01*
X0047951Y0086752D01*
X0048090Y0086767D01*
X0048229Y0086778D01*
X0048369Y0086785D01*
X0048509Y0086788D01*
X0048649Y0086787D01*
X0048789Y0086782D01*
X0048928Y0086773D01*
X0049068Y0086760D01*
X0049207Y0086743D01*
X0049345Y0086722D01*
X0049483Y0086698D01*
X0049620Y0086669D01*
X0049756Y0086637D01*
X0049891Y0086600D01*
X0050025Y0086560D01*
X0050158Y0086516D01*
X0050289Y0086468D01*
X0050419Y0086417D01*
X0050548Y0086362D01*
X0050675Y0086303D01*
X0050800Y0086240D01*
X0050923Y0086175D01*
X0051045Y0086105D01*
X0051164Y0086032D01*
X0051282Y0085956D01*
X0051397Y0085877D01*
X0051510Y0085794D01*
X0051620Y0085708D01*
X0051728Y0085619D01*
X0051833Y0085527D01*
X0051936Y0085432D01*
X0052036Y0085334D01*
X0052133Y0085234D01*
X0052227Y0085130D01*
X0052319Y0085024D01*
X0052407Y0084916D01*
X0052492Y0084805D01*
X0052574Y0084691D01*
X0052653Y0084575D01*
X0052728Y0084458D01*
X0052800Y0084338D01*
X0052868Y0084216D01*
X0052933Y0084092D01*
X0052995Y0083966D01*
X0053053Y0083839D01*
X0053107Y0083710D01*
X0053158Y0083579D01*
X0053204Y0083447D01*
X0053247Y0083314D01*
X0053287Y0083180D01*
X0053322Y0083045D01*
X0053354Y0082908D01*
X0053381Y0082771D01*
X0053405Y0082633D01*
X0053425Y0082495D01*
X0053441Y0082356D01*
X0053453Y0082216D01*
X0053461Y0082077D01*
X0053465Y0081937D01*
X0053465Y0081797D01*
X0053461Y0081657D01*
X0053453Y0081518D01*
X0053441Y0081378D01*
X0053425Y0081239D01*
X0053405Y0081101D01*
X0053381Y0080963D01*
X0053354Y0080826D01*
X0053322Y0080689D01*
X0053287Y0080554D01*
X0053247Y0080420D01*
X0053204Y0080287D01*
X0053158Y0080155D01*
X0053107Y0080024D01*
X0053053Y0079895D01*
X0052995Y0079768D01*
X0052933Y0079642D01*
X0052868Y0079518D01*
X0052800Y0079396D01*
X0052728Y0079276D01*
X0052653Y0079159D01*
X0052574Y0079043D01*
X0052492Y0078929D01*
X0052407Y0078818D01*
X0052319Y0078710D01*
X0052227Y0078604D01*
X0052133Y0078500D01*
X0052036Y0078400D01*
X0051936Y0078302D01*
X0051833Y0078207D01*
X0051728Y0078115D01*
X0051620Y0078026D01*
X0051510Y0077940D01*
X0051397Y0077857D01*
X0051282Y0077778D01*
X0051164Y0077702D01*
X0051045Y0077629D01*
X0050923Y0077559D01*
X0050800Y0077494D01*
X0050675Y0077431D01*
X0050548Y0077372D01*
X0050419Y0077317D01*
X0050289Y0077266D01*
X0050158Y0077218D01*
X0050025Y0077174D01*
X0049891Y0077134D01*
X0049756Y0077097D01*
X0049620Y0077065D01*
X0049483Y0077036D01*
X0049345Y0077012D01*
X0049207Y0076991D01*
X0049068Y0076974D01*
X0048928Y0076961D01*
X0048789Y0076952D01*
X0048649Y0076947D01*
X0048509Y0076946D01*
X0048369Y0076949D01*
X0048229Y0076956D01*
X0048090Y0076967D01*
X0047951Y0076982D01*
X0047812Y0077001D01*
X0047674Y0077023D01*
X0047537Y0077050D01*
X0047400Y0077081D01*
X0047265Y0077115D01*
X0047130Y0077153D01*
X0046997Y0077196D01*
X0046865Y0077241D01*
X0046734Y0077291D01*
X0046604Y0077344D01*
X0046477Y0077401D01*
X0046351Y0077462D01*
X0046226Y0077526D01*
X0046104Y0077594D01*
X0045983Y0077665D01*
X0045865Y0077739D01*
X0045749Y0077817D01*
X0045635Y0077898D01*
X0045523Y0077983D01*
X0045414Y0078070D01*
X0045307Y0078160D01*
X0045203Y0078254D01*
X0045102Y0078350D01*
X0045003Y0078450D01*
X0044907Y0078552D01*
X0044815Y0078656D01*
X0044725Y0078764D01*
X0044638Y0078874D01*
X0044555Y0078986D01*
X0044474Y0079100D01*
X0044397Y0079217D01*
X0044324Y0079336D01*
X0044253Y0079457D01*
X0044187Y0079580D01*
X0044123Y0079705D01*
X0044064Y0079831D01*
X0044008Y0079960D01*
X0043955Y0080089D01*
X0043907Y0080220D01*
X0043862Y0080353D01*
X0043821Y0080487D01*
X0043783Y0080622D01*
X0043750Y0080757D01*
X0043720Y0080894D01*
X0043694Y0081032D01*
X0043673Y0081170D01*
X0043655Y0081309D01*
X0043641Y0081448D01*
X0043631Y0081587D01*
X0043625Y0081727D01*
X0043623Y0081867D01*
X0175119Y0083048D02*
X0175121Y0083188D01*
X0175127Y0083328D01*
X0175137Y0083467D01*
X0175151Y0083606D01*
X0175169Y0083745D01*
X0175190Y0083883D01*
X0175216Y0084021D01*
X0175246Y0084158D01*
X0175279Y0084293D01*
X0175317Y0084428D01*
X0175358Y0084562D01*
X0175403Y0084695D01*
X0175451Y0084826D01*
X0175504Y0084955D01*
X0175560Y0085084D01*
X0175619Y0085210D01*
X0175683Y0085335D01*
X0175749Y0085458D01*
X0175820Y0085579D01*
X0175893Y0085698D01*
X0175970Y0085815D01*
X0176051Y0085929D01*
X0176134Y0086041D01*
X0176221Y0086151D01*
X0176311Y0086259D01*
X0176403Y0086363D01*
X0176499Y0086465D01*
X0176598Y0086565D01*
X0176699Y0086661D01*
X0176803Y0086755D01*
X0176910Y0086845D01*
X0177019Y0086932D01*
X0177131Y0087017D01*
X0177245Y0087098D01*
X0177361Y0087176D01*
X0177479Y0087250D01*
X0177600Y0087321D01*
X0177722Y0087389D01*
X0177847Y0087453D01*
X0177973Y0087514D01*
X0178100Y0087571D01*
X0178230Y0087624D01*
X0178361Y0087674D01*
X0178493Y0087719D01*
X0178626Y0087762D01*
X0178761Y0087800D01*
X0178896Y0087834D01*
X0179033Y0087865D01*
X0179170Y0087892D01*
X0179308Y0087914D01*
X0179447Y0087933D01*
X0179586Y0087948D01*
X0179725Y0087959D01*
X0179865Y0087966D01*
X0180005Y0087969D01*
X0180145Y0087968D01*
X0180285Y0087963D01*
X0180424Y0087954D01*
X0180564Y0087941D01*
X0180703Y0087924D01*
X0180841Y0087903D01*
X0180979Y0087879D01*
X0181116Y0087850D01*
X0181252Y0087818D01*
X0181387Y0087781D01*
X0181521Y0087741D01*
X0181654Y0087697D01*
X0181785Y0087649D01*
X0181915Y0087598D01*
X0182044Y0087543D01*
X0182171Y0087484D01*
X0182296Y0087421D01*
X0182419Y0087356D01*
X0182541Y0087286D01*
X0182660Y0087213D01*
X0182778Y0087137D01*
X0182893Y0087058D01*
X0183006Y0086975D01*
X0183116Y0086889D01*
X0183224Y0086800D01*
X0183329Y0086708D01*
X0183432Y0086613D01*
X0183532Y0086515D01*
X0183629Y0086415D01*
X0183723Y0086311D01*
X0183815Y0086205D01*
X0183903Y0086097D01*
X0183988Y0085986D01*
X0184070Y0085872D01*
X0184149Y0085756D01*
X0184224Y0085639D01*
X0184296Y0085519D01*
X0184364Y0085397D01*
X0184429Y0085273D01*
X0184491Y0085147D01*
X0184549Y0085020D01*
X0184603Y0084891D01*
X0184654Y0084760D01*
X0184700Y0084628D01*
X0184743Y0084495D01*
X0184783Y0084361D01*
X0184818Y0084226D01*
X0184850Y0084089D01*
X0184877Y0083952D01*
X0184901Y0083814D01*
X0184921Y0083676D01*
X0184937Y0083537D01*
X0184949Y0083397D01*
X0184957Y0083258D01*
X0184961Y0083118D01*
X0184961Y0082978D01*
X0184957Y0082838D01*
X0184949Y0082699D01*
X0184937Y0082559D01*
X0184921Y0082420D01*
X0184901Y0082282D01*
X0184877Y0082144D01*
X0184850Y0082007D01*
X0184818Y0081870D01*
X0184783Y0081735D01*
X0184743Y0081601D01*
X0184700Y0081468D01*
X0184654Y0081336D01*
X0184603Y0081205D01*
X0184549Y0081076D01*
X0184491Y0080949D01*
X0184429Y0080823D01*
X0184364Y0080699D01*
X0184296Y0080577D01*
X0184224Y0080457D01*
X0184149Y0080340D01*
X0184070Y0080224D01*
X0183988Y0080110D01*
X0183903Y0079999D01*
X0183815Y0079891D01*
X0183723Y0079785D01*
X0183629Y0079681D01*
X0183532Y0079581D01*
X0183432Y0079483D01*
X0183329Y0079388D01*
X0183224Y0079296D01*
X0183116Y0079207D01*
X0183006Y0079121D01*
X0182893Y0079038D01*
X0182778Y0078959D01*
X0182660Y0078883D01*
X0182541Y0078810D01*
X0182419Y0078740D01*
X0182296Y0078675D01*
X0182171Y0078612D01*
X0182044Y0078553D01*
X0181915Y0078498D01*
X0181785Y0078447D01*
X0181654Y0078399D01*
X0181521Y0078355D01*
X0181387Y0078315D01*
X0181252Y0078278D01*
X0181116Y0078246D01*
X0180979Y0078217D01*
X0180841Y0078193D01*
X0180703Y0078172D01*
X0180564Y0078155D01*
X0180424Y0078142D01*
X0180285Y0078133D01*
X0180145Y0078128D01*
X0180005Y0078127D01*
X0179865Y0078130D01*
X0179725Y0078137D01*
X0179586Y0078148D01*
X0179447Y0078163D01*
X0179308Y0078182D01*
X0179170Y0078204D01*
X0179033Y0078231D01*
X0178896Y0078262D01*
X0178761Y0078296D01*
X0178626Y0078334D01*
X0178493Y0078377D01*
X0178361Y0078422D01*
X0178230Y0078472D01*
X0178100Y0078525D01*
X0177973Y0078582D01*
X0177847Y0078643D01*
X0177722Y0078707D01*
X0177600Y0078775D01*
X0177479Y0078846D01*
X0177361Y0078920D01*
X0177245Y0078998D01*
X0177131Y0079079D01*
X0177019Y0079164D01*
X0176910Y0079251D01*
X0176803Y0079341D01*
X0176699Y0079435D01*
X0176598Y0079531D01*
X0176499Y0079631D01*
X0176403Y0079733D01*
X0176311Y0079837D01*
X0176221Y0079945D01*
X0176134Y0080055D01*
X0176051Y0080167D01*
X0175970Y0080281D01*
X0175893Y0080398D01*
X0175820Y0080517D01*
X0175749Y0080638D01*
X0175683Y0080761D01*
X0175619Y0080886D01*
X0175560Y0081012D01*
X0175504Y0081141D01*
X0175451Y0081270D01*
X0175403Y0081401D01*
X0175358Y0081534D01*
X0175317Y0081668D01*
X0175279Y0081803D01*
X0175246Y0081938D01*
X0175216Y0082075D01*
X0175190Y0082213D01*
X0175169Y0082351D01*
X0175151Y0082490D01*
X0175137Y0082629D01*
X0175127Y0082768D01*
X0175121Y0082908D01*
X0175119Y0083048D01*
X0175119Y0160017D02*
X0175121Y0160157D01*
X0175127Y0160297D01*
X0175137Y0160436D01*
X0175151Y0160575D01*
X0175169Y0160714D01*
X0175190Y0160852D01*
X0175216Y0160990D01*
X0175246Y0161127D01*
X0175279Y0161262D01*
X0175317Y0161397D01*
X0175358Y0161531D01*
X0175403Y0161664D01*
X0175451Y0161795D01*
X0175504Y0161924D01*
X0175560Y0162053D01*
X0175619Y0162179D01*
X0175683Y0162304D01*
X0175749Y0162427D01*
X0175820Y0162548D01*
X0175893Y0162667D01*
X0175970Y0162784D01*
X0176051Y0162898D01*
X0176134Y0163010D01*
X0176221Y0163120D01*
X0176311Y0163228D01*
X0176403Y0163332D01*
X0176499Y0163434D01*
X0176598Y0163534D01*
X0176699Y0163630D01*
X0176803Y0163724D01*
X0176910Y0163814D01*
X0177019Y0163901D01*
X0177131Y0163986D01*
X0177245Y0164067D01*
X0177361Y0164145D01*
X0177479Y0164219D01*
X0177600Y0164290D01*
X0177722Y0164358D01*
X0177847Y0164422D01*
X0177973Y0164483D01*
X0178100Y0164540D01*
X0178230Y0164593D01*
X0178361Y0164643D01*
X0178493Y0164688D01*
X0178626Y0164731D01*
X0178761Y0164769D01*
X0178896Y0164803D01*
X0179033Y0164834D01*
X0179170Y0164861D01*
X0179308Y0164883D01*
X0179447Y0164902D01*
X0179586Y0164917D01*
X0179725Y0164928D01*
X0179865Y0164935D01*
X0180005Y0164938D01*
X0180145Y0164937D01*
X0180285Y0164932D01*
X0180424Y0164923D01*
X0180564Y0164910D01*
X0180703Y0164893D01*
X0180841Y0164872D01*
X0180979Y0164848D01*
X0181116Y0164819D01*
X0181252Y0164787D01*
X0181387Y0164750D01*
X0181521Y0164710D01*
X0181654Y0164666D01*
X0181785Y0164618D01*
X0181915Y0164567D01*
X0182044Y0164512D01*
X0182171Y0164453D01*
X0182296Y0164390D01*
X0182419Y0164325D01*
X0182541Y0164255D01*
X0182660Y0164182D01*
X0182778Y0164106D01*
X0182893Y0164027D01*
X0183006Y0163944D01*
X0183116Y0163858D01*
X0183224Y0163769D01*
X0183329Y0163677D01*
X0183432Y0163582D01*
X0183532Y0163484D01*
X0183629Y0163384D01*
X0183723Y0163280D01*
X0183815Y0163174D01*
X0183903Y0163066D01*
X0183988Y0162955D01*
X0184070Y0162841D01*
X0184149Y0162725D01*
X0184224Y0162608D01*
X0184296Y0162488D01*
X0184364Y0162366D01*
X0184429Y0162242D01*
X0184491Y0162116D01*
X0184549Y0161989D01*
X0184603Y0161860D01*
X0184654Y0161729D01*
X0184700Y0161597D01*
X0184743Y0161464D01*
X0184783Y0161330D01*
X0184818Y0161195D01*
X0184850Y0161058D01*
X0184877Y0160921D01*
X0184901Y0160783D01*
X0184921Y0160645D01*
X0184937Y0160506D01*
X0184949Y0160366D01*
X0184957Y0160227D01*
X0184961Y0160087D01*
X0184961Y0159947D01*
X0184957Y0159807D01*
X0184949Y0159668D01*
X0184937Y0159528D01*
X0184921Y0159389D01*
X0184901Y0159251D01*
X0184877Y0159113D01*
X0184850Y0158976D01*
X0184818Y0158839D01*
X0184783Y0158704D01*
X0184743Y0158570D01*
X0184700Y0158437D01*
X0184654Y0158305D01*
X0184603Y0158174D01*
X0184549Y0158045D01*
X0184491Y0157918D01*
X0184429Y0157792D01*
X0184364Y0157668D01*
X0184296Y0157546D01*
X0184224Y0157426D01*
X0184149Y0157309D01*
X0184070Y0157193D01*
X0183988Y0157079D01*
X0183903Y0156968D01*
X0183815Y0156860D01*
X0183723Y0156754D01*
X0183629Y0156650D01*
X0183532Y0156550D01*
X0183432Y0156452D01*
X0183329Y0156357D01*
X0183224Y0156265D01*
X0183116Y0156176D01*
X0183006Y0156090D01*
X0182893Y0156007D01*
X0182778Y0155928D01*
X0182660Y0155852D01*
X0182541Y0155779D01*
X0182419Y0155709D01*
X0182296Y0155644D01*
X0182171Y0155581D01*
X0182044Y0155522D01*
X0181915Y0155467D01*
X0181785Y0155416D01*
X0181654Y0155368D01*
X0181521Y0155324D01*
X0181387Y0155284D01*
X0181252Y0155247D01*
X0181116Y0155215D01*
X0180979Y0155186D01*
X0180841Y0155162D01*
X0180703Y0155141D01*
X0180564Y0155124D01*
X0180424Y0155111D01*
X0180285Y0155102D01*
X0180145Y0155097D01*
X0180005Y0155096D01*
X0179865Y0155099D01*
X0179725Y0155106D01*
X0179586Y0155117D01*
X0179447Y0155132D01*
X0179308Y0155151D01*
X0179170Y0155173D01*
X0179033Y0155200D01*
X0178896Y0155231D01*
X0178761Y0155265D01*
X0178626Y0155303D01*
X0178493Y0155346D01*
X0178361Y0155391D01*
X0178230Y0155441D01*
X0178100Y0155494D01*
X0177973Y0155551D01*
X0177847Y0155612D01*
X0177722Y0155676D01*
X0177600Y0155744D01*
X0177479Y0155815D01*
X0177361Y0155889D01*
X0177245Y0155967D01*
X0177131Y0156048D01*
X0177019Y0156133D01*
X0176910Y0156220D01*
X0176803Y0156310D01*
X0176699Y0156404D01*
X0176598Y0156500D01*
X0176499Y0156600D01*
X0176403Y0156702D01*
X0176311Y0156806D01*
X0176221Y0156914D01*
X0176134Y0157024D01*
X0176051Y0157136D01*
X0175970Y0157250D01*
X0175893Y0157367D01*
X0175820Y0157486D01*
X0175749Y0157607D01*
X0175683Y0157730D01*
X0175619Y0157855D01*
X0175560Y0157981D01*
X0175504Y0158110D01*
X0175451Y0158239D01*
X0175403Y0158370D01*
X0175358Y0158503D01*
X0175317Y0158637D01*
X0175279Y0158772D01*
X0175246Y0158907D01*
X0175216Y0159044D01*
X0175190Y0159182D01*
X0175169Y0159320D01*
X0175151Y0159459D01*
X0175137Y0159598D01*
X0175127Y0159737D01*
X0175121Y0159877D01*
X0175119Y0160017D01*
D12*
X0014961Y0146749D03*
D13*
X0024961Y0146749D03*
X0024961Y0136749D03*
X0014961Y0136749D03*
X0014961Y0126749D03*
X0024961Y0126749D03*
X0024961Y0116749D03*
X0014961Y0116749D03*
X0014961Y0106749D03*
X0024961Y0106749D03*
X0024961Y0096749D03*
X0014961Y0096749D03*
X0014961Y0086749D03*
X0014961Y0076749D03*
X0024961Y0076749D03*
X0024961Y0086749D03*
X0024961Y0066749D03*
X0014961Y0066749D03*
X0014961Y0056749D03*
X0024961Y0056749D03*
D14*
X0051607Y0057800D02*
X0051607Y0051800D01*
X0061450Y0051800D02*
X0061450Y0057800D01*
X0096926Y0057800D02*
X0096926Y0051800D01*
X0106769Y0051800D02*
X0106769Y0057800D01*
X0116611Y0057800D02*
X0116611Y0051800D01*
X0126454Y0051800D02*
X0126454Y0057800D01*
X0161410Y0057879D02*
X0161410Y0051879D01*
X0171253Y0051879D02*
X0171253Y0057879D01*
D15*
X0166309Y0084161D03*
X0165080Y0092891D03*
X0180828Y0098402D03*
X0161930Y0107457D03*
X0161930Y0111788D03*
X0174135Y0122418D03*
X0174135Y0126355D03*
X0174135Y0130686D03*
X0174135Y0136591D03*
X0137127Y0085804D03*
X0119017Y0078324D03*
X0110355Y0075174D03*
X0093426Y0099583D03*
X0093032Y0116119D03*
X0092639Y0144072D03*
X0092639Y0151946D03*
X0043426Y0138954D03*
X0034765Y0110607D03*
X0034371Y0102339D03*
X0042113Y0090397D03*
X0059174Y0089347D03*
X0074922Y0078324D03*
X0049725Y0067300D03*
M02*
