G75*
%MOIN*%
%OFA0B0*%
%FSLAX25Y25*%
%IPPOS*%
%LPD*%
%AMOC8*
5,1,8,0,0,1.08239X$1,22.5*
%
%ADD10C,0.00600*%
%ADD11C,0.00000*%
%ADD12C,0.10243*%
%ADD13C,0.00300*%
%ADD14C,0.06000*%
%ADD15OC8,0.06000*%
%ADD16R,0.05800X0.02800*%
%ADD17C,0.06400*%
D10*
X0001300Y0034623D02*
X0001300Y0168875D01*
X0189095Y0168875D01*
X0189095Y0034623D01*
X0001300Y0034623D01*
X0040670Y0073993D02*
X0040670Y0168875D01*
X0040670Y0073993D02*
X0189095Y0073993D01*
D11*
X0175119Y0083048D02*
X0175121Y0083188D01*
X0175127Y0083328D01*
X0175137Y0083467D01*
X0175151Y0083606D01*
X0175169Y0083745D01*
X0175190Y0083883D01*
X0175216Y0084021D01*
X0175246Y0084158D01*
X0175279Y0084293D01*
X0175317Y0084428D01*
X0175358Y0084562D01*
X0175403Y0084695D01*
X0175451Y0084826D01*
X0175504Y0084955D01*
X0175560Y0085084D01*
X0175619Y0085210D01*
X0175683Y0085335D01*
X0175749Y0085458D01*
X0175820Y0085579D01*
X0175893Y0085698D01*
X0175970Y0085815D01*
X0176051Y0085929D01*
X0176134Y0086041D01*
X0176221Y0086151D01*
X0176311Y0086259D01*
X0176403Y0086363D01*
X0176499Y0086465D01*
X0176598Y0086565D01*
X0176699Y0086661D01*
X0176803Y0086755D01*
X0176910Y0086845D01*
X0177019Y0086932D01*
X0177131Y0087017D01*
X0177245Y0087098D01*
X0177361Y0087176D01*
X0177479Y0087250D01*
X0177600Y0087321D01*
X0177722Y0087389D01*
X0177847Y0087453D01*
X0177973Y0087514D01*
X0178100Y0087571D01*
X0178230Y0087624D01*
X0178361Y0087674D01*
X0178493Y0087719D01*
X0178626Y0087762D01*
X0178761Y0087800D01*
X0178896Y0087834D01*
X0179033Y0087865D01*
X0179170Y0087892D01*
X0179308Y0087914D01*
X0179447Y0087933D01*
X0179586Y0087948D01*
X0179725Y0087959D01*
X0179865Y0087966D01*
X0180005Y0087969D01*
X0180145Y0087968D01*
X0180285Y0087963D01*
X0180424Y0087954D01*
X0180564Y0087941D01*
X0180703Y0087924D01*
X0180841Y0087903D01*
X0180979Y0087879D01*
X0181116Y0087850D01*
X0181252Y0087818D01*
X0181387Y0087781D01*
X0181521Y0087741D01*
X0181654Y0087697D01*
X0181785Y0087649D01*
X0181915Y0087598D01*
X0182044Y0087543D01*
X0182171Y0087484D01*
X0182296Y0087421D01*
X0182419Y0087356D01*
X0182541Y0087286D01*
X0182660Y0087213D01*
X0182778Y0087137D01*
X0182893Y0087058D01*
X0183006Y0086975D01*
X0183116Y0086889D01*
X0183224Y0086800D01*
X0183329Y0086708D01*
X0183432Y0086613D01*
X0183532Y0086515D01*
X0183629Y0086415D01*
X0183723Y0086311D01*
X0183815Y0086205D01*
X0183903Y0086097D01*
X0183988Y0085986D01*
X0184070Y0085872D01*
X0184149Y0085756D01*
X0184224Y0085639D01*
X0184296Y0085519D01*
X0184364Y0085397D01*
X0184429Y0085273D01*
X0184491Y0085147D01*
X0184549Y0085020D01*
X0184603Y0084891D01*
X0184654Y0084760D01*
X0184700Y0084628D01*
X0184743Y0084495D01*
X0184783Y0084361D01*
X0184818Y0084226D01*
X0184850Y0084089D01*
X0184877Y0083952D01*
X0184901Y0083814D01*
X0184921Y0083676D01*
X0184937Y0083537D01*
X0184949Y0083397D01*
X0184957Y0083258D01*
X0184961Y0083118D01*
X0184961Y0082978D01*
X0184957Y0082838D01*
X0184949Y0082699D01*
X0184937Y0082559D01*
X0184921Y0082420D01*
X0184901Y0082282D01*
X0184877Y0082144D01*
X0184850Y0082007D01*
X0184818Y0081870D01*
X0184783Y0081735D01*
X0184743Y0081601D01*
X0184700Y0081468D01*
X0184654Y0081336D01*
X0184603Y0081205D01*
X0184549Y0081076D01*
X0184491Y0080949D01*
X0184429Y0080823D01*
X0184364Y0080699D01*
X0184296Y0080577D01*
X0184224Y0080457D01*
X0184149Y0080340D01*
X0184070Y0080224D01*
X0183988Y0080110D01*
X0183903Y0079999D01*
X0183815Y0079891D01*
X0183723Y0079785D01*
X0183629Y0079681D01*
X0183532Y0079581D01*
X0183432Y0079483D01*
X0183329Y0079388D01*
X0183224Y0079296D01*
X0183116Y0079207D01*
X0183006Y0079121D01*
X0182893Y0079038D01*
X0182778Y0078959D01*
X0182660Y0078883D01*
X0182541Y0078810D01*
X0182419Y0078740D01*
X0182296Y0078675D01*
X0182171Y0078612D01*
X0182044Y0078553D01*
X0181915Y0078498D01*
X0181785Y0078447D01*
X0181654Y0078399D01*
X0181521Y0078355D01*
X0181387Y0078315D01*
X0181252Y0078278D01*
X0181116Y0078246D01*
X0180979Y0078217D01*
X0180841Y0078193D01*
X0180703Y0078172D01*
X0180564Y0078155D01*
X0180424Y0078142D01*
X0180285Y0078133D01*
X0180145Y0078128D01*
X0180005Y0078127D01*
X0179865Y0078130D01*
X0179725Y0078137D01*
X0179586Y0078148D01*
X0179447Y0078163D01*
X0179308Y0078182D01*
X0179170Y0078204D01*
X0179033Y0078231D01*
X0178896Y0078262D01*
X0178761Y0078296D01*
X0178626Y0078334D01*
X0178493Y0078377D01*
X0178361Y0078422D01*
X0178230Y0078472D01*
X0178100Y0078525D01*
X0177973Y0078582D01*
X0177847Y0078643D01*
X0177722Y0078707D01*
X0177600Y0078775D01*
X0177479Y0078846D01*
X0177361Y0078920D01*
X0177245Y0078998D01*
X0177131Y0079079D01*
X0177019Y0079164D01*
X0176910Y0079251D01*
X0176803Y0079341D01*
X0176699Y0079435D01*
X0176598Y0079531D01*
X0176499Y0079631D01*
X0176403Y0079733D01*
X0176311Y0079837D01*
X0176221Y0079945D01*
X0176134Y0080055D01*
X0176051Y0080167D01*
X0175970Y0080281D01*
X0175893Y0080398D01*
X0175820Y0080517D01*
X0175749Y0080638D01*
X0175683Y0080761D01*
X0175619Y0080886D01*
X0175560Y0081012D01*
X0175504Y0081141D01*
X0175451Y0081270D01*
X0175403Y0081401D01*
X0175358Y0081534D01*
X0175317Y0081668D01*
X0175279Y0081803D01*
X0175246Y0081938D01*
X0175216Y0082075D01*
X0175190Y0082213D01*
X0175169Y0082351D01*
X0175151Y0082490D01*
X0175137Y0082629D01*
X0175127Y0082768D01*
X0175121Y0082908D01*
X0175119Y0083048D01*
X0175119Y0160017D02*
X0175121Y0160157D01*
X0175127Y0160297D01*
X0175137Y0160436D01*
X0175151Y0160575D01*
X0175169Y0160714D01*
X0175190Y0160852D01*
X0175216Y0160990D01*
X0175246Y0161127D01*
X0175279Y0161262D01*
X0175317Y0161397D01*
X0175358Y0161531D01*
X0175403Y0161664D01*
X0175451Y0161795D01*
X0175504Y0161924D01*
X0175560Y0162053D01*
X0175619Y0162179D01*
X0175683Y0162304D01*
X0175749Y0162427D01*
X0175820Y0162548D01*
X0175893Y0162667D01*
X0175970Y0162784D01*
X0176051Y0162898D01*
X0176134Y0163010D01*
X0176221Y0163120D01*
X0176311Y0163228D01*
X0176403Y0163332D01*
X0176499Y0163434D01*
X0176598Y0163534D01*
X0176699Y0163630D01*
X0176803Y0163724D01*
X0176910Y0163814D01*
X0177019Y0163901D01*
X0177131Y0163986D01*
X0177245Y0164067D01*
X0177361Y0164145D01*
X0177479Y0164219D01*
X0177600Y0164290D01*
X0177722Y0164358D01*
X0177847Y0164422D01*
X0177973Y0164483D01*
X0178100Y0164540D01*
X0178230Y0164593D01*
X0178361Y0164643D01*
X0178493Y0164688D01*
X0178626Y0164731D01*
X0178761Y0164769D01*
X0178896Y0164803D01*
X0179033Y0164834D01*
X0179170Y0164861D01*
X0179308Y0164883D01*
X0179447Y0164902D01*
X0179586Y0164917D01*
X0179725Y0164928D01*
X0179865Y0164935D01*
X0180005Y0164938D01*
X0180145Y0164937D01*
X0180285Y0164932D01*
X0180424Y0164923D01*
X0180564Y0164910D01*
X0180703Y0164893D01*
X0180841Y0164872D01*
X0180979Y0164848D01*
X0181116Y0164819D01*
X0181252Y0164787D01*
X0181387Y0164750D01*
X0181521Y0164710D01*
X0181654Y0164666D01*
X0181785Y0164618D01*
X0181915Y0164567D01*
X0182044Y0164512D01*
X0182171Y0164453D01*
X0182296Y0164390D01*
X0182419Y0164325D01*
X0182541Y0164255D01*
X0182660Y0164182D01*
X0182778Y0164106D01*
X0182893Y0164027D01*
X0183006Y0163944D01*
X0183116Y0163858D01*
X0183224Y0163769D01*
X0183329Y0163677D01*
X0183432Y0163582D01*
X0183532Y0163484D01*
X0183629Y0163384D01*
X0183723Y0163280D01*
X0183815Y0163174D01*
X0183903Y0163066D01*
X0183988Y0162955D01*
X0184070Y0162841D01*
X0184149Y0162725D01*
X0184224Y0162608D01*
X0184296Y0162488D01*
X0184364Y0162366D01*
X0184429Y0162242D01*
X0184491Y0162116D01*
X0184549Y0161989D01*
X0184603Y0161860D01*
X0184654Y0161729D01*
X0184700Y0161597D01*
X0184743Y0161464D01*
X0184783Y0161330D01*
X0184818Y0161195D01*
X0184850Y0161058D01*
X0184877Y0160921D01*
X0184901Y0160783D01*
X0184921Y0160645D01*
X0184937Y0160506D01*
X0184949Y0160366D01*
X0184957Y0160227D01*
X0184961Y0160087D01*
X0184961Y0159947D01*
X0184957Y0159807D01*
X0184949Y0159668D01*
X0184937Y0159528D01*
X0184921Y0159389D01*
X0184901Y0159251D01*
X0184877Y0159113D01*
X0184850Y0158976D01*
X0184818Y0158839D01*
X0184783Y0158704D01*
X0184743Y0158570D01*
X0184700Y0158437D01*
X0184654Y0158305D01*
X0184603Y0158174D01*
X0184549Y0158045D01*
X0184491Y0157918D01*
X0184429Y0157792D01*
X0184364Y0157668D01*
X0184296Y0157546D01*
X0184224Y0157426D01*
X0184149Y0157309D01*
X0184070Y0157193D01*
X0183988Y0157079D01*
X0183903Y0156968D01*
X0183815Y0156860D01*
X0183723Y0156754D01*
X0183629Y0156650D01*
X0183532Y0156550D01*
X0183432Y0156452D01*
X0183329Y0156357D01*
X0183224Y0156265D01*
X0183116Y0156176D01*
X0183006Y0156090D01*
X0182893Y0156007D01*
X0182778Y0155928D01*
X0182660Y0155852D01*
X0182541Y0155779D01*
X0182419Y0155709D01*
X0182296Y0155644D01*
X0182171Y0155581D01*
X0182044Y0155522D01*
X0181915Y0155467D01*
X0181785Y0155416D01*
X0181654Y0155368D01*
X0181521Y0155324D01*
X0181387Y0155284D01*
X0181252Y0155247D01*
X0181116Y0155215D01*
X0180979Y0155186D01*
X0180841Y0155162D01*
X0180703Y0155141D01*
X0180564Y0155124D01*
X0180424Y0155111D01*
X0180285Y0155102D01*
X0180145Y0155097D01*
X0180005Y0155096D01*
X0179865Y0155099D01*
X0179725Y0155106D01*
X0179586Y0155117D01*
X0179447Y0155132D01*
X0179308Y0155151D01*
X0179170Y0155173D01*
X0179033Y0155200D01*
X0178896Y0155231D01*
X0178761Y0155265D01*
X0178626Y0155303D01*
X0178493Y0155346D01*
X0178361Y0155391D01*
X0178230Y0155441D01*
X0178100Y0155494D01*
X0177973Y0155551D01*
X0177847Y0155612D01*
X0177722Y0155676D01*
X0177600Y0155744D01*
X0177479Y0155815D01*
X0177361Y0155889D01*
X0177245Y0155967D01*
X0177131Y0156048D01*
X0177019Y0156133D01*
X0176910Y0156220D01*
X0176803Y0156310D01*
X0176699Y0156404D01*
X0176598Y0156500D01*
X0176499Y0156600D01*
X0176403Y0156702D01*
X0176311Y0156806D01*
X0176221Y0156914D01*
X0176134Y0157024D01*
X0176051Y0157136D01*
X0175970Y0157250D01*
X0175893Y0157367D01*
X0175820Y0157486D01*
X0175749Y0157607D01*
X0175683Y0157730D01*
X0175619Y0157855D01*
X0175560Y0157981D01*
X0175504Y0158110D01*
X0175451Y0158239D01*
X0175403Y0158370D01*
X0175358Y0158503D01*
X0175317Y0158637D01*
X0175279Y0158772D01*
X0175246Y0158907D01*
X0175216Y0159044D01*
X0175190Y0159182D01*
X0175169Y0159320D01*
X0175151Y0159459D01*
X0175137Y0159598D01*
X0175127Y0159737D01*
X0175121Y0159877D01*
X0175119Y0160017D01*
X0043623Y0161198D02*
X0043625Y0161338D01*
X0043631Y0161478D01*
X0043641Y0161617D01*
X0043655Y0161756D01*
X0043673Y0161895D01*
X0043694Y0162033D01*
X0043720Y0162171D01*
X0043750Y0162308D01*
X0043783Y0162443D01*
X0043821Y0162578D01*
X0043862Y0162712D01*
X0043907Y0162845D01*
X0043955Y0162976D01*
X0044008Y0163105D01*
X0044064Y0163234D01*
X0044123Y0163360D01*
X0044187Y0163485D01*
X0044253Y0163608D01*
X0044324Y0163729D01*
X0044397Y0163848D01*
X0044474Y0163965D01*
X0044555Y0164079D01*
X0044638Y0164191D01*
X0044725Y0164301D01*
X0044815Y0164409D01*
X0044907Y0164513D01*
X0045003Y0164615D01*
X0045102Y0164715D01*
X0045203Y0164811D01*
X0045307Y0164905D01*
X0045414Y0164995D01*
X0045523Y0165082D01*
X0045635Y0165167D01*
X0045749Y0165248D01*
X0045865Y0165326D01*
X0045983Y0165400D01*
X0046104Y0165471D01*
X0046226Y0165539D01*
X0046351Y0165603D01*
X0046477Y0165664D01*
X0046604Y0165721D01*
X0046734Y0165774D01*
X0046865Y0165824D01*
X0046997Y0165869D01*
X0047130Y0165912D01*
X0047265Y0165950D01*
X0047400Y0165984D01*
X0047537Y0166015D01*
X0047674Y0166042D01*
X0047812Y0166064D01*
X0047951Y0166083D01*
X0048090Y0166098D01*
X0048229Y0166109D01*
X0048369Y0166116D01*
X0048509Y0166119D01*
X0048649Y0166118D01*
X0048789Y0166113D01*
X0048928Y0166104D01*
X0049068Y0166091D01*
X0049207Y0166074D01*
X0049345Y0166053D01*
X0049483Y0166029D01*
X0049620Y0166000D01*
X0049756Y0165968D01*
X0049891Y0165931D01*
X0050025Y0165891D01*
X0050158Y0165847D01*
X0050289Y0165799D01*
X0050419Y0165748D01*
X0050548Y0165693D01*
X0050675Y0165634D01*
X0050800Y0165571D01*
X0050923Y0165506D01*
X0051045Y0165436D01*
X0051164Y0165363D01*
X0051282Y0165287D01*
X0051397Y0165208D01*
X0051510Y0165125D01*
X0051620Y0165039D01*
X0051728Y0164950D01*
X0051833Y0164858D01*
X0051936Y0164763D01*
X0052036Y0164665D01*
X0052133Y0164565D01*
X0052227Y0164461D01*
X0052319Y0164355D01*
X0052407Y0164247D01*
X0052492Y0164136D01*
X0052574Y0164022D01*
X0052653Y0163906D01*
X0052728Y0163789D01*
X0052800Y0163669D01*
X0052868Y0163547D01*
X0052933Y0163423D01*
X0052995Y0163297D01*
X0053053Y0163170D01*
X0053107Y0163041D01*
X0053158Y0162910D01*
X0053204Y0162778D01*
X0053247Y0162645D01*
X0053287Y0162511D01*
X0053322Y0162376D01*
X0053354Y0162239D01*
X0053381Y0162102D01*
X0053405Y0161964D01*
X0053425Y0161826D01*
X0053441Y0161687D01*
X0053453Y0161547D01*
X0053461Y0161408D01*
X0053465Y0161268D01*
X0053465Y0161128D01*
X0053461Y0160988D01*
X0053453Y0160849D01*
X0053441Y0160709D01*
X0053425Y0160570D01*
X0053405Y0160432D01*
X0053381Y0160294D01*
X0053354Y0160157D01*
X0053322Y0160020D01*
X0053287Y0159885D01*
X0053247Y0159751D01*
X0053204Y0159618D01*
X0053158Y0159486D01*
X0053107Y0159355D01*
X0053053Y0159226D01*
X0052995Y0159099D01*
X0052933Y0158973D01*
X0052868Y0158849D01*
X0052800Y0158727D01*
X0052728Y0158607D01*
X0052653Y0158490D01*
X0052574Y0158374D01*
X0052492Y0158260D01*
X0052407Y0158149D01*
X0052319Y0158041D01*
X0052227Y0157935D01*
X0052133Y0157831D01*
X0052036Y0157731D01*
X0051936Y0157633D01*
X0051833Y0157538D01*
X0051728Y0157446D01*
X0051620Y0157357D01*
X0051510Y0157271D01*
X0051397Y0157188D01*
X0051282Y0157109D01*
X0051164Y0157033D01*
X0051045Y0156960D01*
X0050923Y0156890D01*
X0050800Y0156825D01*
X0050675Y0156762D01*
X0050548Y0156703D01*
X0050419Y0156648D01*
X0050289Y0156597D01*
X0050158Y0156549D01*
X0050025Y0156505D01*
X0049891Y0156465D01*
X0049756Y0156428D01*
X0049620Y0156396D01*
X0049483Y0156367D01*
X0049345Y0156343D01*
X0049207Y0156322D01*
X0049068Y0156305D01*
X0048928Y0156292D01*
X0048789Y0156283D01*
X0048649Y0156278D01*
X0048509Y0156277D01*
X0048369Y0156280D01*
X0048229Y0156287D01*
X0048090Y0156298D01*
X0047951Y0156313D01*
X0047812Y0156332D01*
X0047674Y0156354D01*
X0047537Y0156381D01*
X0047400Y0156412D01*
X0047265Y0156446D01*
X0047130Y0156484D01*
X0046997Y0156527D01*
X0046865Y0156572D01*
X0046734Y0156622D01*
X0046604Y0156675D01*
X0046477Y0156732D01*
X0046351Y0156793D01*
X0046226Y0156857D01*
X0046104Y0156925D01*
X0045983Y0156996D01*
X0045865Y0157070D01*
X0045749Y0157148D01*
X0045635Y0157229D01*
X0045523Y0157314D01*
X0045414Y0157401D01*
X0045307Y0157491D01*
X0045203Y0157585D01*
X0045102Y0157681D01*
X0045003Y0157781D01*
X0044907Y0157883D01*
X0044815Y0157987D01*
X0044725Y0158095D01*
X0044638Y0158205D01*
X0044555Y0158317D01*
X0044474Y0158431D01*
X0044397Y0158548D01*
X0044324Y0158667D01*
X0044253Y0158788D01*
X0044187Y0158911D01*
X0044123Y0159036D01*
X0044064Y0159162D01*
X0044008Y0159291D01*
X0043955Y0159420D01*
X0043907Y0159551D01*
X0043862Y0159684D01*
X0043821Y0159818D01*
X0043783Y0159953D01*
X0043750Y0160088D01*
X0043720Y0160225D01*
X0043694Y0160363D01*
X0043673Y0160501D01*
X0043655Y0160640D01*
X0043641Y0160779D01*
X0043631Y0160918D01*
X0043625Y0161058D01*
X0043623Y0161198D01*
X0043623Y0081867D02*
X0043625Y0082007D01*
X0043631Y0082147D01*
X0043641Y0082286D01*
X0043655Y0082425D01*
X0043673Y0082564D01*
X0043694Y0082702D01*
X0043720Y0082840D01*
X0043750Y0082977D01*
X0043783Y0083112D01*
X0043821Y0083247D01*
X0043862Y0083381D01*
X0043907Y0083514D01*
X0043955Y0083645D01*
X0044008Y0083774D01*
X0044064Y0083903D01*
X0044123Y0084029D01*
X0044187Y0084154D01*
X0044253Y0084277D01*
X0044324Y0084398D01*
X0044397Y0084517D01*
X0044474Y0084634D01*
X0044555Y0084748D01*
X0044638Y0084860D01*
X0044725Y0084970D01*
X0044815Y0085078D01*
X0044907Y0085182D01*
X0045003Y0085284D01*
X0045102Y0085384D01*
X0045203Y0085480D01*
X0045307Y0085574D01*
X0045414Y0085664D01*
X0045523Y0085751D01*
X0045635Y0085836D01*
X0045749Y0085917D01*
X0045865Y0085995D01*
X0045983Y0086069D01*
X0046104Y0086140D01*
X0046226Y0086208D01*
X0046351Y0086272D01*
X0046477Y0086333D01*
X0046604Y0086390D01*
X0046734Y0086443D01*
X0046865Y0086493D01*
X0046997Y0086538D01*
X0047130Y0086581D01*
X0047265Y0086619D01*
X0047400Y0086653D01*
X0047537Y0086684D01*
X0047674Y0086711D01*
X0047812Y0086733D01*
X0047951Y0086752D01*
X0048090Y0086767D01*
X0048229Y0086778D01*
X0048369Y0086785D01*
X0048509Y0086788D01*
X0048649Y0086787D01*
X0048789Y0086782D01*
X0048928Y0086773D01*
X0049068Y0086760D01*
X0049207Y0086743D01*
X0049345Y0086722D01*
X0049483Y0086698D01*
X0049620Y0086669D01*
X0049756Y0086637D01*
X0049891Y0086600D01*
X0050025Y0086560D01*
X0050158Y0086516D01*
X0050289Y0086468D01*
X0050419Y0086417D01*
X0050548Y0086362D01*
X0050675Y0086303D01*
X0050800Y0086240D01*
X0050923Y0086175D01*
X0051045Y0086105D01*
X0051164Y0086032D01*
X0051282Y0085956D01*
X0051397Y0085877D01*
X0051510Y0085794D01*
X0051620Y0085708D01*
X0051728Y0085619D01*
X0051833Y0085527D01*
X0051936Y0085432D01*
X0052036Y0085334D01*
X0052133Y0085234D01*
X0052227Y0085130D01*
X0052319Y0085024D01*
X0052407Y0084916D01*
X0052492Y0084805D01*
X0052574Y0084691D01*
X0052653Y0084575D01*
X0052728Y0084458D01*
X0052800Y0084338D01*
X0052868Y0084216D01*
X0052933Y0084092D01*
X0052995Y0083966D01*
X0053053Y0083839D01*
X0053107Y0083710D01*
X0053158Y0083579D01*
X0053204Y0083447D01*
X0053247Y0083314D01*
X0053287Y0083180D01*
X0053322Y0083045D01*
X0053354Y0082908D01*
X0053381Y0082771D01*
X0053405Y0082633D01*
X0053425Y0082495D01*
X0053441Y0082356D01*
X0053453Y0082216D01*
X0053461Y0082077D01*
X0053465Y0081937D01*
X0053465Y0081797D01*
X0053461Y0081657D01*
X0053453Y0081518D01*
X0053441Y0081378D01*
X0053425Y0081239D01*
X0053405Y0081101D01*
X0053381Y0080963D01*
X0053354Y0080826D01*
X0053322Y0080689D01*
X0053287Y0080554D01*
X0053247Y0080420D01*
X0053204Y0080287D01*
X0053158Y0080155D01*
X0053107Y0080024D01*
X0053053Y0079895D01*
X0052995Y0079768D01*
X0052933Y0079642D01*
X0052868Y0079518D01*
X0052800Y0079396D01*
X0052728Y0079276D01*
X0052653Y0079159D01*
X0052574Y0079043D01*
X0052492Y0078929D01*
X0052407Y0078818D01*
X0052319Y0078710D01*
X0052227Y0078604D01*
X0052133Y0078500D01*
X0052036Y0078400D01*
X0051936Y0078302D01*
X0051833Y0078207D01*
X0051728Y0078115D01*
X0051620Y0078026D01*
X0051510Y0077940D01*
X0051397Y0077857D01*
X0051282Y0077778D01*
X0051164Y0077702D01*
X0051045Y0077629D01*
X0050923Y0077559D01*
X0050800Y0077494D01*
X0050675Y0077431D01*
X0050548Y0077372D01*
X0050419Y0077317D01*
X0050289Y0077266D01*
X0050158Y0077218D01*
X0050025Y0077174D01*
X0049891Y0077134D01*
X0049756Y0077097D01*
X0049620Y0077065D01*
X0049483Y0077036D01*
X0049345Y0077012D01*
X0049207Y0076991D01*
X0049068Y0076974D01*
X0048928Y0076961D01*
X0048789Y0076952D01*
X0048649Y0076947D01*
X0048509Y0076946D01*
X0048369Y0076949D01*
X0048229Y0076956D01*
X0048090Y0076967D01*
X0047951Y0076982D01*
X0047812Y0077001D01*
X0047674Y0077023D01*
X0047537Y0077050D01*
X0047400Y0077081D01*
X0047265Y0077115D01*
X0047130Y0077153D01*
X0046997Y0077196D01*
X0046865Y0077241D01*
X0046734Y0077291D01*
X0046604Y0077344D01*
X0046477Y0077401D01*
X0046351Y0077462D01*
X0046226Y0077526D01*
X0046104Y0077594D01*
X0045983Y0077665D01*
X0045865Y0077739D01*
X0045749Y0077817D01*
X0045635Y0077898D01*
X0045523Y0077983D01*
X0045414Y0078070D01*
X0045307Y0078160D01*
X0045203Y0078254D01*
X0045102Y0078350D01*
X0045003Y0078450D01*
X0044907Y0078552D01*
X0044815Y0078656D01*
X0044725Y0078764D01*
X0044638Y0078874D01*
X0044555Y0078986D01*
X0044474Y0079100D01*
X0044397Y0079217D01*
X0044324Y0079336D01*
X0044253Y0079457D01*
X0044187Y0079580D01*
X0044123Y0079705D01*
X0044064Y0079831D01*
X0044008Y0079960D01*
X0043955Y0080089D01*
X0043907Y0080220D01*
X0043862Y0080353D01*
X0043821Y0080487D01*
X0043783Y0080622D01*
X0043750Y0080757D01*
X0043720Y0080894D01*
X0043694Y0081032D01*
X0043673Y0081170D01*
X0043655Y0081309D01*
X0043641Y0081448D01*
X0043631Y0081587D01*
X0043625Y0081727D01*
X0043623Y0081867D01*
D12*
X0048544Y0081867D03*
X0048544Y0161198D03*
X0180040Y0160017D03*
X0180040Y0083048D03*
D13*
X0177218Y0041610D02*
X0177218Y0038710D01*
X0175606Y0041610D01*
X0175606Y0038710D01*
X0174334Y0038710D02*
X0173690Y0038710D01*
X0174012Y0038710D02*
X0174012Y0041610D01*
X0173690Y0041610D02*
X0174334Y0041610D01*
X0172675Y0041610D02*
X0171708Y0038710D01*
X0170741Y0041610D01*
X0166685Y0040804D02*
X0166685Y0039515D01*
X0166686Y0039515D02*
X0166684Y0039460D01*
X0166678Y0039405D01*
X0166669Y0039351D01*
X0166656Y0039298D01*
X0166639Y0039245D01*
X0166619Y0039194D01*
X0166596Y0039144D01*
X0166569Y0039096D01*
X0166538Y0039050D01*
X0166505Y0039006D01*
X0166469Y0038965D01*
X0166430Y0038926D01*
X0166389Y0038890D01*
X0166345Y0038857D01*
X0166299Y0038826D01*
X0166251Y0038799D01*
X0166201Y0038776D01*
X0166150Y0038756D01*
X0166097Y0038739D01*
X0166044Y0038726D01*
X0165990Y0038717D01*
X0165935Y0038711D01*
X0165880Y0038709D01*
X0165880Y0038710D02*
X0165074Y0038710D01*
X0165074Y0041610D01*
X0165880Y0041610D01*
X0165935Y0041608D01*
X0165990Y0041602D01*
X0166044Y0041593D01*
X0166097Y0041580D01*
X0166150Y0041563D01*
X0166201Y0041543D01*
X0166251Y0041520D01*
X0166299Y0041493D01*
X0166345Y0041462D01*
X0166389Y0041429D01*
X0166430Y0041393D01*
X0166469Y0041354D01*
X0166505Y0041313D01*
X0166538Y0041269D01*
X0166569Y0041223D01*
X0166596Y0041175D01*
X0166619Y0041125D01*
X0166639Y0041074D01*
X0166656Y0041021D01*
X0166669Y0040968D01*
X0166678Y0040914D01*
X0166684Y0040859D01*
X0166686Y0040804D01*
X0163613Y0041610D02*
X0163613Y0038710D01*
X0162002Y0041610D01*
X0162002Y0038710D01*
X0160541Y0038710D02*
X0160541Y0040321D01*
X0160058Y0040321D01*
X0158931Y0040965D02*
X0158933Y0041016D01*
X0158939Y0041066D01*
X0158949Y0041115D01*
X0158963Y0041164D01*
X0158980Y0041211D01*
X0159001Y0041257D01*
X0159026Y0041301D01*
X0159054Y0041344D01*
X0159085Y0041383D01*
X0159120Y0041420D01*
X0159157Y0041455D01*
X0159196Y0041486D01*
X0159239Y0041514D01*
X0159283Y0041539D01*
X0159329Y0041560D01*
X0159376Y0041577D01*
X0159425Y0041591D01*
X0159474Y0041601D01*
X0159524Y0041607D01*
X0159575Y0041609D01*
X0159575Y0041610D02*
X0160541Y0041610D01*
X0158930Y0040965D02*
X0158930Y0039354D01*
X0158931Y0039354D02*
X0158933Y0039306D01*
X0158938Y0039258D01*
X0158947Y0039211D01*
X0158960Y0039164D01*
X0158976Y0039119D01*
X0158995Y0039075D01*
X0159017Y0039032D01*
X0159043Y0038991D01*
X0159072Y0038952D01*
X0159103Y0038916D01*
X0159137Y0038882D01*
X0159173Y0038851D01*
X0159212Y0038822D01*
X0159253Y0038796D01*
X0159296Y0038774D01*
X0159340Y0038755D01*
X0159385Y0038739D01*
X0159432Y0038726D01*
X0159479Y0038717D01*
X0159527Y0038712D01*
X0159575Y0038710D01*
X0160541Y0038710D01*
X0130334Y0039737D02*
X0130334Y0041026D01*
X0129690Y0042121D02*
X0128079Y0042121D01*
X0128079Y0042122D02*
X0128028Y0042124D01*
X0127978Y0042130D01*
X0127929Y0042140D01*
X0127880Y0042154D01*
X0127833Y0042171D01*
X0127787Y0042192D01*
X0127743Y0042217D01*
X0127700Y0042245D01*
X0127661Y0042276D01*
X0127624Y0042311D01*
X0127589Y0042348D01*
X0127558Y0042387D01*
X0127530Y0042429D01*
X0127505Y0042474D01*
X0127484Y0042520D01*
X0127467Y0042567D01*
X0127453Y0042616D01*
X0127443Y0042665D01*
X0127437Y0042715D01*
X0127435Y0042766D01*
X0127434Y0042766D02*
X0127434Y0043410D01*
X0127434Y0044673D02*
X0130334Y0044673D01*
X0129206Y0044673D02*
X0127434Y0046284D01*
X0128562Y0045317D02*
X0130334Y0046284D01*
X0130334Y0043410D02*
X0130334Y0042766D01*
X0130332Y0042718D01*
X0130327Y0042670D01*
X0130318Y0042623D01*
X0130305Y0042576D01*
X0130289Y0042531D01*
X0130270Y0042487D01*
X0130248Y0042444D01*
X0130222Y0042403D01*
X0130193Y0042364D01*
X0130162Y0042328D01*
X0130128Y0042294D01*
X0130092Y0042263D01*
X0130053Y0042234D01*
X0130012Y0042208D01*
X0129969Y0042186D01*
X0129925Y0042167D01*
X0129880Y0042151D01*
X0129833Y0042138D01*
X0129786Y0042129D01*
X0129738Y0042124D01*
X0129690Y0042122D01*
X0130334Y0039737D02*
X0127434Y0039737D01*
X0128643Y0037252D02*
X0128617Y0037212D01*
X0128588Y0037173D01*
X0128556Y0037136D01*
X0128521Y0037102D01*
X0128484Y0037071D01*
X0128445Y0037042D01*
X0128404Y0037016D01*
X0128361Y0036994D01*
X0128316Y0036975D01*
X0128270Y0036959D01*
X0128224Y0036946D01*
X0128176Y0036937D01*
X0128128Y0036932D01*
X0128079Y0036930D01*
X0128079Y0036931D02*
X0128031Y0036933D01*
X0127983Y0036938D01*
X0127936Y0036947D01*
X0127889Y0036960D01*
X0127844Y0036976D01*
X0127800Y0036995D01*
X0127757Y0037017D01*
X0127716Y0037043D01*
X0127677Y0037072D01*
X0127641Y0037103D01*
X0127607Y0037137D01*
X0127576Y0037173D01*
X0127547Y0037212D01*
X0127521Y0037253D01*
X0127499Y0037296D01*
X0127480Y0037340D01*
X0127464Y0037385D01*
X0127451Y0037432D01*
X0127442Y0037479D01*
X0127437Y0037527D01*
X0127435Y0037575D01*
X0127437Y0037640D01*
X0127442Y0037704D01*
X0127451Y0037769D01*
X0127463Y0037832D01*
X0127478Y0037895D01*
X0127497Y0037957D01*
X0127519Y0038018D01*
X0127544Y0038077D01*
X0127573Y0038136D01*
X0127605Y0038192D01*
X0127639Y0038247D01*
X0127677Y0038300D01*
X0129931Y0036851D02*
X0129981Y0036902D01*
X0130028Y0036957D01*
X0130071Y0037013D01*
X0130112Y0037072D01*
X0130150Y0037133D01*
X0130184Y0037196D01*
X0130215Y0037261D01*
X0130243Y0037327D01*
X0130267Y0037394D01*
X0130287Y0037463D01*
X0130304Y0037533D01*
X0130317Y0037603D01*
X0130326Y0037674D01*
X0130332Y0037745D01*
X0130334Y0037817D01*
X0130332Y0037865D01*
X0130327Y0037913D01*
X0130318Y0037960D01*
X0130305Y0038007D01*
X0130289Y0038052D01*
X0130270Y0038096D01*
X0130248Y0038139D01*
X0130222Y0038180D01*
X0130193Y0038219D01*
X0130162Y0038255D01*
X0130128Y0038289D01*
X0130092Y0038320D01*
X0130053Y0038349D01*
X0130012Y0038375D01*
X0129969Y0038397D01*
X0129925Y0038416D01*
X0129880Y0038432D01*
X0129833Y0038445D01*
X0129786Y0038454D01*
X0129738Y0038459D01*
X0129690Y0038461D01*
X0129126Y0038139D02*
X0128643Y0037253D01*
X0129126Y0038140D02*
X0129152Y0038180D01*
X0129181Y0038219D01*
X0129213Y0038256D01*
X0129248Y0038290D01*
X0129285Y0038321D01*
X0129324Y0038350D01*
X0129365Y0038376D01*
X0129408Y0038398D01*
X0129453Y0038417D01*
X0129499Y0038433D01*
X0129545Y0038446D01*
X0129593Y0038455D01*
X0129641Y0038460D01*
X0129690Y0038462D01*
X0118523Y0038861D02*
X0115623Y0038861D01*
X0117234Y0037894D01*
X0115623Y0036928D01*
X0118523Y0036928D01*
X0118523Y0040164D02*
X0118523Y0040809D01*
X0118523Y0040486D02*
X0115623Y0040486D01*
X0115623Y0040164D02*
X0115623Y0040809D01*
X0116832Y0042292D02*
X0117315Y0043178D01*
X0118523Y0042855D02*
X0118521Y0042783D01*
X0118515Y0042712D01*
X0118506Y0042641D01*
X0118493Y0042571D01*
X0118476Y0042501D01*
X0118456Y0042432D01*
X0118432Y0042365D01*
X0118404Y0042299D01*
X0118373Y0042234D01*
X0118339Y0042171D01*
X0118301Y0042110D01*
X0118260Y0042051D01*
X0118217Y0041995D01*
X0118170Y0041940D01*
X0118120Y0041889D01*
X0117315Y0043178D02*
X0117341Y0043218D01*
X0117370Y0043257D01*
X0117402Y0043294D01*
X0117437Y0043328D01*
X0117474Y0043359D01*
X0117513Y0043388D01*
X0117554Y0043414D01*
X0117597Y0043436D01*
X0117642Y0043455D01*
X0117688Y0043471D01*
X0117734Y0043484D01*
X0117782Y0043493D01*
X0117830Y0043498D01*
X0117879Y0043500D01*
X0117879Y0043499D02*
X0117927Y0043497D01*
X0117975Y0043492D01*
X0118022Y0043483D01*
X0118069Y0043470D01*
X0118114Y0043454D01*
X0118158Y0043435D01*
X0118201Y0043413D01*
X0118242Y0043387D01*
X0118281Y0043358D01*
X0118317Y0043327D01*
X0118351Y0043293D01*
X0118382Y0043257D01*
X0118411Y0043218D01*
X0118437Y0043177D01*
X0118459Y0043134D01*
X0118478Y0043090D01*
X0118494Y0043045D01*
X0118507Y0042998D01*
X0118516Y0042951D01*
X0118521Y0042903D01*
X0118523Y0042855D01*
X0115866Y0043339D02*
X0115828Y0043286D01*
X0115794Y0043231D01*
X0115762Y0043175D01*
X0115733Y0043116D01*
X0115708Y0043057D01*
X0115686Y0042996D01*
X0115667Y0042934D01*
X0115652Y0042871D01*
X0115640Y0042808D01*
X0115631Y0042743D01*
X0115626Y0042679D01*
X0115624Y0042614D01*
X0115626Y0042566D01*
X0115631Y0042518D01*
X0115640Y0042471D01*
X0115653Y0042424D01*
X0115669Y0042379D01*
X0115688Y0042335D01*
X0115710Y0042292D01*
X0115736Y0042251D01*
X0115765Y0042212D01*
X0115796Y0042176D01*
X0115830Y0042142D01*
X0115866Y0042111D01*
X0115905Y0042082D01*
X0115946Y0042056D01*
X0115989Y0042034D01*
X0116033Y0042015D01*
X0116078Y0041999D01*
X0116125Y0041986D01*
X0116172Y0041977D01*
X0116220Y0041972D01*
X0116268Y0041970D01*
X0116268Y0041969D02*
X0116317Y0041971D01*
X0116365Y0041976D01*
X0116413Y0041985D01*
X0116459Y0041998D01*
X0116505Y0042014D01*
X0116550Y0042033D01*
X0116593Y0042055D01*
X0116634Y0042081D01*
X0116673Y0042110D01*
X0116710Y0042141D01*
X0116745Y0042175D01*
X0116777Y0042212D01*
X0116806Y0042251D01*
X0116832Y0042291D01*
X0116429Y0044673D02*
X0117718Y0044673D01*
X0117718Y0044672D02*
X0117773Y0044674D01*
X0117828Y0044680D01*
X0117882Y0044689D01*
X0117935Y0044702D01*
X0117988Y0044719D01*
X0118039Y0044739D01*
X0118089Y0044762D01*
X0118137Y0044789D01*
X0118183Y0044820D01*
X0118227Y0044853D01*
X0118268Y0044889D01*
X0118307Y0044928D01*
X0118343Y0044969D01*
X0118376Y0045013D01*
X0118407Y0045059D01*
X0118434Y0045107D01*
X0118457Y0045157D01*
X0118477Y0045208D01*
X0118494Y0045261D01*
X0118507Y0045314D01*
X0118516Y0045368D01*
X0118522Y0045423D01*
X0118524Y0045478D01*
X0118522Y0045533D01*
X0118516Y0045588D01*
X0118507Y0045642D01*
X0118494Y0045695D01*
X0118477Y0045748D01*
X0118457Y0045799D01*
X0118434Y0045849D01*
X0118407Y0045897D01*
X0118376Y0045943D01*
X0118343Y0045987D01*
X0118307Y0046028D01*
X0118268Y0046067D01*
X0118227Y0046103D01*
X0118183Y0046136D01*
X0118137Y0046167D01*
X0118089Y0046194D01*
X0118039Y0046217D01*
X0117988Y0046237D01*
X0117935Y0046254D01*
X0117882Y0046267D01*
X0117828Y0046276D01*
X0117773Y0046282D01*
X0117718Y0046284D01*
X0116429Y0046284D01*
X0116374Y0046282D01*
X0116319Y0046276D01*
X0116265Y0046267D01*
X0116212Y0046254D01*
X0116159Y0046237D01*
X0116108Y0046217D01*
X0116058Y0046194D01*
X0116010Y0046167D01*
X0115964Y0046136D01*
X0115920Y0046103D01*
X0115879Y0046067D01*
X0115840Y0046028D01*
X0115804Y0045987D01*
X0115771Y0045943D01*
X0115740Y0045897D01*
X0115713Y0045849D01*
X0115690Y0045799D01*
X0115670Y0045748D01*
X0115653Y0045695D01*
X0115640Y0045642D01*
X0115631Y0045588D01*
X0115625Y0045533D01*
X0115623Y0045478D01*
X0115625Y0045423D01*
X0115631Y0045368D01*
X0115640Y0045314D01*
X0115653Y0045261D01*
X0115670Y0045208D01*
X0115690Y0045157D01*
X0115713Y0045107D01*
X0115740Y0045059D01*
X0115771Y0045013D01*
X0115804Y0044969D01*
X0115840Y0044928D01*
X0115879Y0044889D01*
X0115920Y0044853D01*
X0115964Y0044820D01*
X0116010Y0044789D01*
X0116058Y0044762D01*
X0116108Y0044739D01*
X0116159Y0044719D01*
X0116212Y0044702D01*
X0116265Y0044689D01*
X0116319Y0044680D01*
X0116374Y0044674D01*
X0116429Y0044672D01*
X0106712Y0045639D02*
X0106712Y0046284D01*
X0106712Y0045962D02*
X0103812Y0045962D01*
X0103812Y0046284D02*
X0103812Y0045639D01*
X0105021Y0043350D02*
X0104995Y0043310D01*
X0104966Y0043271D01*
X0104934Y0043234D01*
X0104899Y0043200D01*
X0104862Y0043169D01*
X0104823Y0043140D01*
X0104782Y0043114D01*
X0104739Y0043092D01*
X0104694Y0043073D01*
X0104648Y0043057D01*
X0104602Y0043044D01*
X0104554Y0043035D01*
X0104506Y0043030D01*
X0104457Y0043028D01*
X0104457Y0043029D02*
X0104409Y0043031D01*
X0104361Y0043036D01*
X0104314Y0043045D01*
X0104267Y0043058D01*
X0104222Y0043074D01*
X0104178Y0043093D01*
X0104135Y0043115D01*
X0104094Y0043141D01*
X0104055Y0043170D01*
X0104019Y0043201D01*
X0103985Y0043235D01*
X0103954Y0043271D01*
X0103925Y0043310D01*
X0103899Y0043351D01*
X0103877Y0043394D01*
X0103858Y0043438D01*
X0103842Y0043483D01*
X0103829Y0043530D01*
X0103820Y0043577D01*
X0103815Y0043625D01*
X0103813Y0043673D01*
X0103815Y0043738D01*
X0103820Y0043802D01*
X0103829Y0043867D01*
X0103841Y0043930D01*
X0103856Y0043993D01*
X0103875Y0044055D01*
X0103897Y0044116D01*
X0103922Y0044175D01*
X0103951Y0044234D01*
X0103983Y0044290D01*
X0104017Y0044345D01*
X0104055Y0044398D01*
X0106309Y0042949D02*
X0106359Y0043000D01*
X0106406Y0043055D01*
X0106449Y0043111D01*
X0106490Y0043170D01*
X0106528Y0043231D01*
X0106562Y0043294D01*
X0106593Y0043359D01*
X0106621Y0043425D01*
X0106645Y0043492D01*
X0106665Y0043561D01*
X0106682Y0043631D01*
X0106695Y0043701D01*
X0106704Y0043772D01*
X0106710Y0043843D01*
X0106712Y0043915D01*
X0106710Y0043963D01*
X0106705Y0044011D01*
X0106696Y0044058D01*
X0106683Y0044105D01*
X0106667Y0044150D01*
X0106648Y0044194D01*
X0106626Y0044237D01*
X0106600Y0044278D01*
X0106571Y0044317D01*
X0106540Y0044353D01*
X0106506Y0044387D01*
X0106470Y0044418D01*
X0106431Y0044447D01*
X0106390Y0044473D01*
X0106347Y0044495D01*
X0106303Y0044514D01*
X0106258Y0044530D01*
X0106211Y0044543D01*
X0106164Y0044552D01*
X0106116Y0044557D01*
X0106068Y0044559D01*
X0105504Y0044237D02*
X0105021Y0043351D01*
X0105504Y0044238D02*
X0105530Y0044278D01*
X0105559Y0044317D01*
X0105591Y0044354D01*
X0105626Y0044388D01*
X0105663Y0044419D01*
X0105702Y0044448D01*
X0105743Y0044474D01*
X0105786Y0044496D01*
X0105831Y0044515D01*
X0105877Y0044531D01*
X0105923Y0044544D01*
X0105971Y0044553D01*
X0106019Y0044558D01*
X0106068Y0044560D01*
X0105907Y0041775D02*
X0104618Y0041775D01*
X0104618Y0041776D02*
X0104563Y0041774D01*
X0104508Y0041768D01*
X0104454Y0041759D01*
X0104401Y0041746D01*
X0104348Y0041729D01*
X0104297Y0041709D01*
X0104247Y0041686D01*
X0104199Y0041659D01*
X0104153Y0041628D01*
X0104109Y0041595D01*
X0104068Y0041559D01*
X0104029Y0041520D01*
X0103993Y0041479D01*
X0103960Y0041435D01*
X0103929Y0041389D01*
X0103902Y0041341D01*
X0103879Y0041291D01*
X0103859Y0041240D01*
X0103842Y0041187D01*
X0103829Y0041134D01*
X0103820Y0041080D01*
X0103814Y0041025D01*
X0103812Y0040970D01*
X0103814Y0040915D01*
X0103820Y0040860D01*
X0103829Y0040806D01*
X0103842Y0040753D01*
X0103859Y0040700D01*
X0103879Y0040649D01*
X0103902Y0040599D01*
X0103929Y0040551D01*
X0103960Y0040505D01*
X0103993Y0040461D01*
X0104029Y0040420D01*
X0104068Y0040381D01*
X0104109Y0040345D01*
X0104153Y0040312D01*
X0104199Y0040281D01*
X0104247Y0040254D01*
X0104297Y0040231D01*
X0104348Y0040211D01*
X0104401Y0040194D01*
X0104454Y0040181D01*
X0104508Y0040172D01*
X0104563Y0040166D01*
X0104618Y0040164D01*
X0105907Y0040164D01*
X0105962Y0040166D01*
X0106017Y0040172D01*
X0106071Y0040181D01*
X0106124Y0040194D01*
X0106177Y0040211D01*
X0106228Y0040231D01*
X0106278Y0040254D01*
X0106326Y0040281D01*
X0106372Y0040312D01*
X0106416Y0040345D01*
X0106457Y0040381D01*
X0106496Y0040420D01*
X0106532Y0040461D01*
X0106565Y0040505D01*
X0106596Y0040551D01*
X0106623Y0040599D01*
X0106646Y0040649D01*
X0106666Y0040700D01*
X0106683Y0040753D01*
X0106696Y0040806D01*
X0106705Y0040860D01*
X0106711Y0040915D01*
X0106713Y0040970D01*
X0106711Y0041025D01*
X0106705Y0041080D01*
X0106696Y0041134D01*
X0106683Y0041187D01*
X0106666Y0041240D01*
X0106646Y0041291D01*
X0106623Y0041341D01*
X0106596Y0041389D01*
X0106565Y0041435D01*
X0106532Y0041479D01*
X0106496Y0041520D01*
X0106457Y0041559D01*
X0106416Y0041595D01*
X0106372Y0041628D01*
X0106326Y0041659D01*
X0106278Y0041686D01*
X0106228Y0041709D01*
X0106177Y0041729D01*
X0106124Y0041746D01*
X0106071Y0041759D01*
X0106017Y0041768D01*
X0105962Y0041774D01*
X0105907Y0041776D01*
X0106712Y0038768D02*
X0103812Y0038768D01*
X0105423Y0037802D01*
X0103812Y0036835D01*
X0106712Y0036835D01*
X0098194Y0043596D02*
X0098145Y0043594D01*
X0098097Y0043589D01*
X0098049Y0043580D01*
X0098003Y0043567D01*
X0097957Y0043551D01*
X0097912Y0043532D01*
X0097869Y0043510D01*
X0097828Y0043484D01*
X0097789Y0043455D01*
X0097752Y0043424D01*
X0097717Y0043390D01*
X0097685Y0043353D01*
X0097656Y0043314D01*
X0097630Y0043274D01*
X0097147Y0042388D01*
X0095939Y0042710D02*
X0095941Y0042775D01*
X0095946Y0042839D01*
X0095955Y0042904D01*
X0095967Y0042967D01*
X0095982Y0043030D01*
X0096001Y0043092D01*
X0096023Y0043153D01*
X0096048Y0043212D01*
X0096077Y0043271D01*
X0096109Y0043327D01*
X0096143Y0043382D01*
X0096181Y0043435D01*
X0097147Y0042387D02*
X0097121Y0042347D01*
X0097092Y0042308D01*
X0097060Y0042271D01*
X0097025Y0042237D01*
X0096988Y0042206D01*
X0096949Y0042177D01*
X0096908Y0042151D01*
X0096865Y0042129D01*
X0096820Y0042110D01*
X0096774Y0042094D01*
X0096728Y0042081D01*
X0096680Y0042072D01*
X0096632Y0042067D01*
X0096583Y0042065D01*
X0096583Y0042066D02*
X0096535Y0042068D01*
X0096487Y0042073D01*
X0096440Y0042082D01*
X0096393Y0042095D01*
X0096348Y0042111D01*
X0096304Y0042130D01*
X0096261Y0042152D01*
X0096220Y0042178D01*
X0096181Y0042207D01*
X0096145Y0042238D01*
X0096111Y0042272D01*
X0096080Y0042308D01*
X0096051Y0042347D01*
X0096025Y0042388D01*
X0096003Y0042431D01*
X0095984Y0042475D01*
X0095968Y0042520D01*
X0095955Y0042567D01*
X0095946Y0042614D01*
X0095941Y0042662D01*
X0095939Y0042710D01*
X0098435Y0041985D02*
X0098485Y0042036D01*
X0098532Y0042091D01*
X0098575Y0042147D01*
X0098616Y0042206D01*
X0098654Y0042267D01*
X0098688Y0042330D01*
X0098719Y0042395D01*
X0098747Y0042461D01*
X0098771Y0042528D01*
X0098791Y0042597D01*
X0098808Y0042667D01*
X0098821Y0042737D01*
X0098830Y0042808D01*
X0098836Y0042879D01*
X0098838Y0042951D01*
X0098836Y0042999D01*
X0098831Y0043047D01*
X0098822Y0043094D01*
X0098809Y0043141D01*
X0098793Y0043186D01*
X0098774Y0043230D01*
X0098752Y0043273D01*
X0098726Y0043314D01*
X0098697Y0043353D01*
X0098666Y0043389D01*
X0098632Y0043423D01*
X0098596Y0043454D01*
X0098557Y0043483D01*
X0098516Y0043509D01*
X0098473Y0043531D01*
X0098429Y0043550D01*
X0098384Y0043566D01*
X0098337Y0043579D01*
X0098290Y0043588D01*
X0098242Y0043593D01*
X0098194Y0043595D01*
X0097147Y0045076D02*
X0097630Y0045962D01*
X0098838Y0045639D02*
X0098836Y0045567D01*
X0098830Y0045496D01*
X0098821Y0045425D01*
X0098808Y0045355D01*
X0098791Y0045285D01*
X0098771Y0045216D01*
X0098747Y0045149D01*
X0098719Y0045083D01*
X0098688Y0045018D01*
X0098654Y0044955D01*
X0098616Y0044894D01*
X0098575Y0044835D01*
X0098532Y0044779D01*
X0098485Y0044724D01*
X0098435Y0044673D01*
X0097630Y0045962D02*
X0097656Y0046002D01*
X0097685Y0046041D01*
X0097717Y0046078D01*
X0097752Y0046112D01*
X0097789Y0046143D01*
X0097828Y0046172D01*
X0097869Y0046198D01*
X0097912Y0046220D01*
X0097957Y0046239D01*
X0098003Y0046255D01*
X0098049Y0046268D01*
X0098097Y0046277D01*
X0098145Y0046282D01*
X0098194Y0046284D01*
X0098194Y0046283D02*
X0098242Y0046281D01*
X0098290Y0046276D01*
X0098337Y0046267D01*
X0098384Y0046254D01*
X0098429Y0046238D01*
X0098473Y0046219D01*
X0098516Y0046197D01*
X0098557Y0046171D01*
X0098596Y0046142D01*
X0098632Y0046111D01*
X0098666Y0046077D01*
X0098697Y0046041D01*
X0098726Y0046002D01*
X0098752Y0045961D01*
X0098774Y0045918D01*
X0098793Y0045874D01*
X0098809Y0045829D01*
X0098822Y0045782D01*
X0098831Y0045735D01*
X0098836Y0045687D01*
X0098838Y0045639D01*
X0096181Y0046123D02*
X0096143Y0046070D01*
X0096109Y0046015D01*
X0096077Y0045959D01*
X0096048Y0045900D01*
X0096023Y0045841D01*
X0096001Y0045780D01*
X0095982Y0045718D01*
X0095967Y0045655D01*
X0095955Y0045592D01*
X0095946Y0045527D01*
X0095941Y0045463D01*
X0095939Y0045398D01*
X0095941Y0045350D01*
X0095946Y0045302D01*
X0095955Y0045255D01*
X0095968Y0045208D01*
X0095984Y0045163D01*
X0096003Y0045119D01*
X0096025Y0045076D01*
X0096051Y0045035D01*
X0096080Y0044996D01*
X0096111Y0044960D01*
X0096145Y0044926D01*
X0096181Y0044895D01*
X0096220Y0044866D01*
X0096261Y0044840D01*
X0096304Y0044818D01*
X0096348Y0044799D01*
X0096393Y0044783D01*
X0096440Y0044770D01*
X0096487Y0044761D01*
X0096535Y0044756D01*
X0096583Y0044754D01*
X0096583Y0044753D02*
X0096632Y0044755D01*
X0096680Y0044760D01*
X0096728Y0044769D01*
X0096774Y0044782D01*
X0096820Y0044798D01*
X0096865Y0044817D01*
X0096908Y0044839D01*
X0096949Y0044865D01*
X0096988Y0044894D01*
X0097025Y0044925D01*
X0097060Y0044959D01*
X0097092Y0044996D01*
X0097121Y0045035D01*
X0097147Y0045075D01*
X0064965Y0041610D02*
X0063032Y0038710D01*
X0061311Y0038710D02*
X0061311Y0041610D01*
X0062116Y0041610D02*
X0060505Y0041610D01*
X0063032Y0041610D02*
X0064965Y0038710D01*
X0053326Y0038710D02*
X0051393Y0041610D01*
X0049500Y0041610D02*
X0048694Y0041610D01*
X0048694Y0038710D01*
X0048694Y0039999D02*
X0049500Y0039999D01*
X0049661Y0039999D02*
X0050305Y0038710D01*
X0051393Y0038710D02*
X0053326Y0041610D01*
X0049500Y0041610D02*
X0049555Y0041608D01*
X0049610Y0041602D01*
X0049664Y0041593D01*
X0049717Y0041580D01*
X0049770Y0041563D01*
X0049821Y0041543D01*
X0049871Y0041520D01*
X0049919Y0041493D01*
X0049965Y0041462D01*
X0050009Y0041429D01*
X0050050Y0041393D01*
X0050089Y0041354D01*
X0050125Y0041313D01*
X0050158Y0041269D01*
X0050189Y0041223D01*
X0050216Y0041175D01*
X0050239Y0041125D01*
X0050259Y0041074D01*
X0050276Y0041021D01*
X0050289Y0040968D01*
X0050298Y0040914D01*
X0050304Y0040859D01*
X0050306Y0040804D01*
X0050304Y0040749D01*
X0050298Y0040694D01*
X0050289Y0040640D01*
X0050276Y0040587D01*
X0050259Y0040534D01*
X0050239Y0040483D01*
X0050216Y0040433D01*
X0050189Y0040385D01*
X0050158Y0040339D01*
X0050125Y0040295D01*
X0050089Y0040254D01*
X0050050Y0040215D01*
X0050009Y0040179D01*
X0049965Y0040146D01*
X0049919Y0040115D01*
X0049871Y0040088D01*
X0049821Y0040065D01*
X0049770Y0040045D01*
X0049717Y0040028D01*
X0049664Y0040015D01*
X0049610Y0040006D01*
X0049555Y0040000D01*
X0049500Y0039998D01*
X0038600Y0056426D02*
X0038646Y0056428D01*
X0038692Y0056433D01*
X0038737Y0056442D01*
X0038782Y0056454D01*
X0038825Y0056470D01*
X0038867Y0056489D01*
X0038908Y0056512D01*
X0038946Y0056537D01*
X0038983Y0056565D01*
X0039017Y0056596D01*
X0039049Y0056630D01*
X0039078Y0056666D01*
X0039104Y0056704D01*
X0039127Y0056744D01*
X0039147Y0056786D01*
X0039164Y0056829D01*
X0038600Y0056427D02*
X0038554Y0056429D01*
X0038508Y0056434D01*
X0038463Y0056443D01*
X0038418Y0056455D01*
X0038375Y0056471D01*
X0038333Y0056490D01*
X0038292Y0056513D01*
X0038254Y0056538D01*
X0038217Y0056566D01*
X0038183Y0056597D01*
X0038151Y0056631D01*
X0038122Y0056667D01*
X0038096Y0056705D01*
X0038073Y0056745D01*
X0038053Y0056787D01*
X0038036Y0056830D01*
X0037956Y0057071D02*
X0039245Y0058682D01*
X0039164Y0058923D02*
X0039147Y0058966D01*
X0039127Y0059008D01*
X0039104Y0059048D01*
X0039078Y0059086D01*
X0039049Y0059122D01*
X0039017Y0059156D01*
X0038983Y0059187D01*
X0038946Y0059215D01*
X0038908Y0059240D01*
X0038867Y0059263D01*
X0038825Y0059282D01*
X0038782Y0059298D01*
X0038737Y0059310D01*
X0038692Y0059319D01*
X0038646Y0059324D01*
X0038600Y0059326D01*
X0038554Y0059324D01*
X0038508Y0059319D01*
X0038463Y0059310D01*
X0038418Y0059298D01*
X0038375Y0059282D01*
X0038333Y0059263D01*
X0038292Y0059240D01*
X0038254Y0059215D01*
X0038217Y0059187D01*
X0038183Y0059156D01*
X0038151Y0059122D01*
X0038122Y0059086D01*
X0038096Y0059048D01*
X0038073Y0059008D01*
X0038053Y0058966D01*
X0038036Y0058923D01*
X0039164Y0058923D02*
X0039202Y0058841D01*
X0039237Y0058758D01*
X0039269Y0058673D01*
X0039298Y0058588D01*
X0039323Y0058501D01*
X0039345Y0058413D01*
X0039363Y0058325D01*
X0039379Y0058236D01*
X0039391Y0058146D01*
X0039399Y0058057D01*
X0039404Y0057966D01*
X0039406Y0057876D01*
X0037794Y0057876D02*
X0037796Y0057966D01*
X0037801Y0058057D01*
X0037809Y0058146D01*
X0037821Y0058236D01*
X0037837Y0058325D01*
X0037855Y0058413D01*
X0037877Y0058501D01*
X0037902Y0058588D01*
X0037931Y0058673D01*
X0037963Y0058758D01*
X0037998Y0058841D01*
X0038036Y0058923D01*
X0039406Y0057876D02*
X0039404Y0057786D01*
X0039399Y0057695D01*
X0039391Y0057606D01*
X0039379Y0057516D01*
X0039363Y0057427D01*
X0039345Y0057339D01*
X0039323Y0057251D01*
X0039298Y0057164D01*
X0039269Y0057079D01*
X0039237Y0056994D01*
X0039202Y0056911D01*
X0039164Y0056829D01*
X0038037Y0056829D02*
X0037999Y0056911D01*
X0037964Y0056994D01*
X0037932Y0057079D01*
X0037903Y0057164D01*
X0037878Y0057251D01*
X0037856Y0057339D01*
X0037838Y0057427D01*
X0037822Y0057516D01*
X0037810Y0057606D01*
X0037802Y0057695D01*
X0037797Y0057786D01*
X0037795Y0057876D01*
X0036284Y0058037D02*
X0034915Y0056426D01*
X0036526Y0056426D01*
X0034915Y0058682D02*
X0034935Y0058737D01*
X0034958Y0058791D01*
X0034985Y0058843D01*
X0035015Y0058893D01*
X0035047Y0058942D01*
X0035083Y0058988D01*
X0035122Y0059032D01*
X0035163Y0059073D01*
X0035207Y0059112D01*
X0035253Y0059148D01*
X0035302Y0059181D01*
X0035352Y0059211D01*
X0035404Y0059237D01*
X0035458Y0059261D01*
X0035513Y0059280D01*
X0035569Y0059297D01*
X0035626Y0059309D01*
X0035684Y0059319D01*
X0035742Y0059324D01*
X0035801Y0059326D01*
X0035853Y0059324D01*
X0035904Y0059319D01*
X0035955Y0059309D01*
X0036005Y0059297D01*
X0036054Y0059280D01*
X0036102Y0059260D01*
X0036148Y0059237D01*
X0036193Y0059211D01*
X0036235Y0059181D01*
X0036276Y0059149D01*
X0036314Y0059114D01*
X0036349Y0059076D01*
X0036381Y0059035D01*
X0036411Y0058993D01*
X0036437Y0058948D01*
X0036460Y0058902D01*
X0036480Y0058854D01*
X0036497Y0058805D01*
X0036509Y0058755D01*
X0036519Y0058704D01*
X0036524Y0058653D01*
X0036526Y0058601D01*
X0036524Y0058548D01*
X0036519Y0058496D01*
X0036510Y0058444D01*
X0036498Y0058393D01*
X0036482Y0058343D01*
X0036463Y0058294D01*
X0036441Y0058247D01*
X0036415Y0058201D01*
X0036387Y0058156D01*
X0036355Y0058114D01*
X0036321Y0058074D01*
X0036284Y0058037D01*
X0036042Y0136741D02*
X0036042Y0138030D01*
X0036526Y0137386D02*
X0034915Y0137386D01*
X0035559Y0139641D01*
X0034915Y0146978D02*
X0036526Y0146978D01*
X0034915Y0146978D02*
X0036284Y0148589D01*
X0035801Y0149877D02*
X0035742Y0149875D01*
X0035684Y0149870D01*
X0035626Y0149860D01*
X0035569Y0149848D01*
X0035513Y0149831D01*
X0035458Y0149812D01*
X0035404Y0149788D01*
X0035352Y0149762D01*
X0035302Y0149732D01*
X0035253Y0149699D01*
X0035207Y0149663D01*
X0035163Y0149624D01*
X0035122Y0149583D01*
X0035083Y0149539D01*
X0035047Y0149493D01*
X0035015Y0149444D01*
X0034985Y0149394D01*
X0034958Y0149342D01*
X0034935Y0149288D01*
X0034915Y0149233D01*
X0036284Y0148589D02*
X0036321Y0148626D01*
X0036355Y0148666D01*
X0036387Y0148708D01*
X0036415Y0148753D01*
X0036441Y0148799D01*
X0036463Y0148846D01*
X0036482Y0148895D01*
X0036498Y0148945D01*
X0036510Y0148996D01*
X0036519Y0149048D01*
X0036524Y0149100D01*
X0036526Y0149153D01*
X0036524Y0149205D01*
X0036519Y0149256D01*
X0036509Y0149307D01*
X0036497Y0149357D01*
X0036480Y0149406D01*
X0036460Y0149454D01*
X0036437Y0149500D01*
X0036411Y0149545D01*
X0036381Y0149587D01*
X0036349Y0149628D01*
X0036314Y0149666D01*
X0036276Y0149701D01*
X0036235Y0149733D01*
X0036193Y0149763D01*
X0036148Y0149789D01*
X0036102Y0149812D01*
X0036054Y0149832D01*
X0036005Y0149849D01*
X0035955Y0149861D01*
X0035904Y0149871D01*
X0035853Y0149876D01*
X0035801Y0149878D01*
X0024585Y0158036D02*
X0024583Y0157980D01*
X0024577Y0157924D01*
X0024568Y0157869D01*
X0024555Y0157814D01*
X0024538Y0157761D01*
X0024517Y0157709D01*
X0024493Y0157658D01*
X0024465Y0157609D01*
X0024435Y0157562D01*
X0024401Y0157517D01*
X0024364Y0157475D01*
X0024324Y0157435D01*
X0024282Y0157398D01*
X0024237Y0157364D01*
X0024190Y0157334D01*
X0024141Y0157306D01*
X0024090Y0157282D01*
X0024038Y0157261D01*
X0023985Y0157244D01*
X0023930Y0157231D01*
X0023875Y0157222D01*
X0023819Y0157216D01*
X0023763Y0157214D01*
X0024585Y0158036D02*
X0024583Y0158090D01*
X0024578Y0158144D01*
X0024569Y0158198D01*
X0024557Y0158250D01*
X0024541Y0158302D01*
X0024523Y0158353D01*
X0024500Y0158402D01*
X0024475Y0158450D01*
X0024447Y0158496D01*
X0024415Y0158541D01*
X0024381Y0158583D01*
X0024344Y0158622D01*
X0024305Y0158660D01*
X0024263Y0158694D01*
X0024220Y0158726D01*
X0024174Y0158755D01*
X0023044Y0159372D01*
X0023455Y0160914D02*
X0023531Y0160912D01*
X0023607Y0160906D01*
X0023683Y0160897D01*
X0023758Y0160884D01*
X0023833Y0160867D01*
X0023906Y0160846D01*
X0023979Y0160822D01*
X0024050Y0160795D01*
X0024119Y0160763D01*
X0024188Y0160729D01*
X0024254Y0160691D01*
X0024318Y0160650D01*
X0024380Y0160606D01*
X0023044Y0159373D02*
X0022998Y0159402D01*
X0022955Y0159434D01*
X0022913Y0159468D01*
X0022874Y0159506D01*
X0022837Y0159545D01*
X0022803Y0159587D01*
X0022771Y0159632D01*
X0022743Y0159678D01*
X0022718Y0159726D01*
X0022695Y0159775D01*
X0022677Y0159826D01*
X0022661Y0159878D01*
X0022649Y0159930D01*
X0022640Y0159984D01*
X0022635Y0160038D01*
X0022633Y0160092D01*
X0022635Y0160148D01*
X0022641Y0160204D01*
X0022650Y0160259D01*
X0022663Y0160314D01*
X0022680Y0160367D01*
X0022701Y0160419D01*
X0022725Y0160470D01*
X0022753Y0160519D01*
X0022783Y0160566D01*
X0022817Y0160611D01*
X0022854Y0160653D01*
X0022894Y0160693D01*
X0022936Y0160730D01*
X0022981Y0160764D01*
X0023028Y0160794D01*
X0023077Y0160822D01*
X0023128Y0160846D01*
X0023180Y0160867D01*
X0023233Y0160884D01*
X0023288Y0160897D01*
X0023343Y0160906D01*
X0023399Y0160912D01*
X0023455Y0160914D01*
X0023386Y0161938D02*
X0023442Y0161940D01*
X0023498Y0161946D01*
X0023553Y0161955D01*
X0023608Y0161968D01*
X0023661Y0161985D01*
X0023713Y0162006D01*
X0023764Y0162030D01*
X0023813Y0162058D01*
X0023860Y0162088D01*
X0023905Y0162122D01*
X0023947Y0162159D01*
X0023987Y0162199D01*
X0024024Y0162241D01*
X0024058Y0162286D01*
X0024088Y0162333D01*
X0024116Y0162382D01*
X0024140Y0162433D01*
X0024161Y0162485D01*
X0024178Y0162538D01*
X0024191Y0162593D01*
X0024200Y0162648D01*
X0024206Y0162704D01*
X0024208Y0162760D01*
X0023797Y0163480D02*
X0022667Y0164097D01*
X0023078Y0165638D02*
X0023154Y0165636D01*
X0023230Y0165630D01*
X0023306Y0165621D01*
X0023381Y0165608D01*
X0023456Y0165591D01*
X0023529Y0165570D01*
X0023602Y0165546D01*
X0023673Y0165519D01*
X0023742Y0165487D01*
X0023811Y0165453D01*
X0023877Y0165415D01*
X0023941Y0165374D01*
X0024003Y0165330D01*
X0022667Y0164097D02*
X0022621Y0164126D01*
X0022578Y0164158D01*
X0022536Y0164192D01*
X0022497Y0164230D01*
X0022460Y0164269D01*
X0022426Y0164311D01*
X0022394Y0164356D01*
X0022366Y0164402D01*
X0022341Y0164450D01*
X0022318Y0164499D01*
X0022300Y0164550D01*
X0022284Y0164602D01*
X0022272Y0164654D01*
X0022263Y0164708D01*
X0022258Y0164762D01*
X0022256Y0164816D01*
X0022258Y0164872D01*
X0022264Y0164928D01*
X0022273Y0164983D01*
X0022286Y0165038D01*
X0022303Y0165091D01*
X0022324Y0165143D01*
X0022348Y0165194D01*
X0022376Y0165243D01*
X0022406Y0165290D01*
X0022440Y0165335D01*
X0022477Y0165377D01*
X0022517Y0165417D01*
X0022559Y0165454D01*
X0022604Y0165488D01*
X0022651Y0165518D01*
X0022700Y0165546D01*
X0022751Y0165570D01*
X0022803Y0165591D01*
X0022856Y0165608D01*
X0022911Y0165621D01*
X0022966Y0165630D01*
X0023022Y0165636D01*
X0023078Y0165638D01*
X0022153Y0162452D02*
X0022211Y0162396D01*
X0022271Y0162343D01*
X0022334Y0162292D01*
X0022400Y0162245D01*
X0022467Y0162201D01*
X0022537Y0162160D01*
X0022608Y0162122D01*
X0022681Y0162088D01*
X0022755Y0162057D01*
X0022831Y0162029D01*
X0022908Y0162005D01*
X0022986Y0161985D01*
X0023065Y0161968D01*
X0023145Y0161955D01*
X0023225Y0161945D01*
X0023305Y0161940D01*
X0023386Y0161938D01*
X0024208Y0162760D02*
X0024206Y0162814D01*
X0024201Y0162868D01*
X0024192Y0162922D01*
X0024180Y0162974D01*
X0024164Y0163026D01*
X0024146Y0163077D01*
X0024123Y0163126D01*
X0024098Y0163174D01*
X0024070Y0163220D01*
X0024038Y0163265D01*
X0024004Y0163307D01*
X0023967Y0163346D01*
X0023928Y0163384D01*
X0023886Y0163418D01*
X0023843Y0163450D01*
X0023797Y0163479D01*
X0020626Y0162863D02*
X0018776Y0162863D01*
X0018467Y0161938D02*
X0019701Y0165638D01*
X0020934Y0161938D01*
X0020100Y0160914D02*
X0019072Y0160914D01*
X0019072Y0157214D01*
X0019072Y0158858D02*
X0020100Y0158858D01*
X0020306Y0158858D02*
X0021128Y0157214D01*
X0020100Y0158858D02*
X0020163Y0158860D01*
X0020226Y0158866D01*
X0020289Y0158876D01*
X0020351Y0158889D01*
X0020412Y0158906D01*
X0020471Y0158927D01*
X0020530Y0158952D01*
X0020586Y0158980D01*
X0020641Y0159012D01*
X0020694Y0159047D01*
X0020744Y0159085D01*
X0020793Y0159126D01*
X0020838Y0159170D01*
X0020881Y0159217D01*
X0020920Y0159266D01*
X0020957Y0159318D01*
X0020990Y0159372D01*
X0021020Y0159428D01*
X0021047Y0159485D01*
X0021070Y0159544D01*
X0021089Y0159605D01*
X0021104Y0159666D01*
X0021116Y0159728D01*
X0021124Y0159791D01*
X0021128Y0159854D01*
X0021128Y0159918D01*
X0021124Y0159981D01*
X0021116Y0160044D01*
X0021104Y0160106D01*
X0021089Y0160167D01*
X0021070Y0160228D01*
X0021047Y0160287D01*
X0021020Y0160344D01*
X0020990Y0160400D01*
X0020957Y0160454D01*
X0020920Y0160506D01*
X0020881Y0160555D01*
X0020838Y0160602D01*
X0020793Y0160646D01*
X0020744Y0160687D01*
X0020694Y0160725D01*
X0020641Y0160760D01*
X0020586Y0160792D01*
X0020530Y0160820D01*
X0020471Y0160845D01*
X0020412Y0160866D01*
X0020351Y0160883D01*
X0020289Y0160896D01*
X0020226Y0160906D01*
X0020163Y0160912D01*
X0020100Y0160914D01*
X0017266Y0160914D02*
X0017266Y0157214D01*
X0015210Y0160914D01*
X0015210Y0157214D01*
X0013724Y0157214D02*
X0012902Y0157214D01*
X0012846Y0157216D01*
X0012790Y0157222D01*
X0012735Y0157231D01*
X0012680Y0157244D01*
X0012627Y0157261D01*
X0012575Y0157282D01*
X0012524Y0157306D01*
X0012475Y0157334D01*
X0012428Y0157364D01*
X0012383Y0157398D01*
X0012341Y0157435D01*
X0012301Y0157475D01*
X0012264Y0157517D01*
X0012230Y0157562D01*
X0012200Y0157609D01*
X0012172Y0157658D01*
X0012148Y0157709D01*
X0012127Y0157761D01*
X0012110Y0157814D01*
X0012097Y0157869D01*
X0012088Y0157924D01*
X0012082Y0157980D01*
X0012080Y0158036D01*
X0012080Y0160092D01*
X0012082Y0160148D01*
X0012088Y0160204D01*
X0012097Y0160259D01*
X0012110Y0160314D01*
X0012127Y0160367D01*
X0012148Y0160419D01*
X0012172Y0160470D01*
X0012200Y0160519D01*
X0012230Y0160566D01*
X0012264Y0160611D01*
X0012301Y0160653D01*
X0012341Y0160693D01*
X0012383Y0160730D01*
X0012428Y0160764D01*
X0012475Y0160794D01*
X0012524Y0160822D01*
X0012575Y0160846D01*
X0012627Y0160867D01*
X0012680Y0160884D01*
X0012735Y0160897D01*
X0012790Y0160906D01*
X0012846Y0160912D01*
X0012902Y0160914D01*
X0013724Y0160914D01*
X0013724Y0161938D02*
X0012080Y0161938D01*
X0012080Y0165638D01*
X0016101Y0165638D02*
X0014867Y0161938D01*
X0015176Y0162863D02*
X0017026Y0162863D01*
X0017334Y0161938D02*
X0016101Y0165638D01*
X0022530Y0157728D02*
X0022588Y0157672D01*
X0022648Y0157619D01*
X0022711Y0157568D01*
X0022777Y0157521D01*
X0022844Y0157477D01*
X0022914Y0157436D01*
X0022985Y0157398D01*
X0023058Y0157364D01*
X0023132Y0157333D01*
X0023208Y0157305D01*
X0023285Y0157281D01*
X0023363Y0157261D01*
X0023442Y0157244D01*
X0023522Y0157231D01*
X0023602Y0157221D01*
X0023682Y0157216D01*
X0023763Y0157214D01*
X0008573Y0146978D02*
X0006962Y0146978D01*
X0007767Y0146978D02*
X0007767Y0149878D01*
X0006962Y0149233D01*
X0006962Y0139641D02*
X0007928Y0139641D01*
X0007977Y0139639D01*
X0008026Y0139633D01*
X0008075Y0139624D01*
X0008122Y0139611D01*
X0008169Y0139594D01*
X0008214Y0139574D01*
X0008257Y0139551D01*
X0008299Y0139524D01*
X0008338Y0139494D01*
X0008375Y0139461D01*
X0008409Y0139425D01*
X0008440Y0139387D01*
X0008469Y0139347D01*
X0008494Y0139305D01*
X0008516Y0139260D01*
X0008534Y0139215D01*
X0008549Y0139168D01*
X0008560Y0139120D01*
X0008568Y0139071D01*
X0008572Y0139022D01*
X0008572Y0138972D01*
X0008568Y0138923D01*
X0008560Y0138874D01*
X0008549Y0138826D01*
X0008534Y0138779D01*
X0008516Y0138734D01*
X0008494Y0138689D01*
X0008469Y0138647D01*
X0008440Y0138607D01*
X0008409Y0138569D01*
X0008375Y0138533D01*
X0008338Y0138500D01*
X0008299Y0138470D01*
X0008257Y0138443D01*
X0008214Y0138420D01*
X0008169Y0138400D01*
X0008122Y0138383D01*
X0008075Y0138370D01*
X0008026Y0138361D01*
X0007977Y0138355D01*
X0007928Y0138353D01*
X0007928Y0138352D02*
X0007284Y0138352D01*
X0007767Y0138353D02*
X0007822Y0138351D01*
X0007877Y0138345D01*
X0007931Y0138336D01*
X0007984Y0138323D01*
X0008037Y0138306D01*
X0008088Y0138286D01*
X0008138Y0138263D01*
X0008186Y0138236D01*
X0008232Y0138205D01*
X0008276Y0138172D01*
X0008317Y0138136D01*
X0008356Y0138097D01*
X0008392Y0138056D01*
X0008425Y0138012D01*
X0008456Y0137966D01*
X0008483Y0137918D01*
X0008506Y0137868D01*
X0008526Y0137817D01*
X0008543Y0137764D01*
X0008556Y0137711D01*
X0008565Y0137657D01*
X0008571Y0137602D01*
X0008573Y0137547D01*
X0008571Y0137492D01*
X0008565Y0137437D01*
X0008556Y0137383D01*
X0008543Y0137330D01*
X0008526Y0137277D01*
X0008506Y0137226D01*
X0008483Y0137176D01*
X0008456Y0137128D01*
X0008425Y0137082D01*
X0008392Y0137038D01*
X0008356Y0136997D01*
X0008317Y0136958D01*
X0008276Y0136922D01*
X0008232Y0136889D01*
X0008186Y0136858D01*
X0008138Y0136831D01*
X0008088Y0136808D01*
X0008037Y0136788D01*
X0007984Y0136771D01*
X0007931Y0136758D01*
X0007877Y0136749D01*
X0007822Y0136743D01*
X0007767Y0136741D01*
X0006962Y0136741D01*
D14*
X0014961Y0146749D03*
D15*
X0024961Y0146749D03*
X0024961Y0136749D03*
X0014961Y0136749D03*
X0014961Y0126749D03*
X0024961Y0126749D03*
X0024961Y0116749D03*
X0014961Y0116749D03*
X0014961Y0106749D03*
X0024961Y0106749D03*
X0024961Y0096749D03*
X0014961Y0096749D03*
X0014961Y0086749D03*
X0014961Y0076749D03*
X0024961Y0076749D03*
X0024961Y0086749D03*
X0024961Y0066749D03*
X0014961Y0066749D03*
X0014961Y0056749D03*
X0024961Y0056749D03*
D16*
X0168386Y0103704D03*
X0168386Y0107644D03*
X0168386Y0111584D03*
X0168386Y0115524D03*
X0168386Y0119464D03*
X0168386Y0123404D03*
X0168386Y0127344D03*
X0168386Y0131284D03*
X0168386Y0135224D03*
X0168386Y0139164D03*
X0180986Y0139164D03*
X0180986Y0135224D03*
X0180986Y0131284D03*
X0180986Y0127344D03*
X0180986Y0123404D03*
X0180986Y0119464D03*
X0180986Y0115524D03*
X0180986Y0111584D03*
X0180986Y0107644D03*
X0180986Y0103704D03*
D17*
X0171253Y0057879D02*
X0171253Y0051879D01*
X0161410Y0051879D02*
X0161410Y0057879D01*
X0126454Y0057800D02*
X0126454Y0051800D01*
X0116611Y0051800D02*
X0116611Y0057800D01*
X0106769Y0057800D02*
X0106769Y0051800D01*
X0096926Y0051800D02*
X0096926Y0057800D01*
X0061450Y0057800D02*
X0061450Y0051800D01*
X0051607Y0051800D02*
X0051607Y0057800D01*
M02*
