G75*
%MOIN*%
%OFA0B0*%
%FSLAX25Y25*%
%IPPOS*%
%LPD*%
%AMOC8*
5,1,8,0,0,1.08239X$1,22.5*
%
%ADD10C,0.00600*%
%ADD11C,0.00000*%
%ADD12C,0.05600*%
%ADD13OC8,0.05600*%
%ADD14R,0.05400X0.02400*%
%ADD15C,0.06000*%
%ADD16C,0.02578*%
%ADD17C,0.00787*%
D10*
X0001300Y0034623D02*
X0001300Y0168875D01*
X0189095Y0168875D01*
X0189095Y0034623D01*
X0001300Y0034623D01*
X0002900Y0036223D02*
X0002900Y0167275D01*
X0046959Y0167275D01*
X0045020Y0166472D01*
X0043270Y0164722D01*
X0042323Y0162435D01*
X0042323Y0159960D01*
X0043270Y0157674D01*
X0045020Y0155924D01*
X0047307Y0154976D01*
X0049782Y0154976D01*
X0052068Y0155924D01*
X0053818Y0157674D01*
X0054765Y0159960D01*
X0054765Y0162435D01*
X0053818Y0164722D01*
X0052068Y0166472D01*
X0050129Y0167275D01*
X0187495Y0167275D01*
X0187495Y0036223D01*
X0002900Y0036223D01*
X0002900Y0036418D02*
X0187495Y0036418D01*
X0187495Y0037017D02*
X0002900Y0037017D01*
X0002900Y0037615D02*
X0187495Y0037615D01*
X0187495Y0038214D02*
X0002900Y0038214D01*
X0002900Y0038812D02*
X0187495Y0038812D01*
X0187495Y0039411D02*
X0002900Y0039411D01*
X0002900Y0040009D02*
X0187495Y0040009D01*
X0187495Y0040608D02*
X0002900Y0040608D01*
X0002900Y0041206D02*
X0187495Y0041206D01*
X0187495Y0041805D02*
X0002900Y0041805D01*
X0002900Y0042403D02*
X0187495Y0042403D01*
X0187495Y0043002D02*
X0002900Y0043002D01*
X0002900Y0043601D02*
X0187495Y0043601D01*
X0187495Y0044199D02*
X0002900Y0044199D01*
X0002900Y0044798D02*
X0187495Y0044798D01*
X0187495Y0045396D02*
X0002900Y0045396D01*
X0002900Y0045995D02*
X0187495Y0045995D01*
X0187495Y0046593D02*
X0109596Y0046593D01*
X0109825Y0046822D02*
X0113096Y0050094D01*
X0113305Y0049591D01*
X0114402Y0048494D01*
X0115835Y0047900D01*
X0117387Y0047900D01*
X0118820Y0048494D01*
X0119917Y0049591D01*
X0120511Y0051024D01*
X0120511Y0058576D01*
X0119917Y0060009D01*
X0118820Y0061106D01*
X0117387Y0061700D01*
X0115835Y0061700D01*
X0114402Y0061106D01*
X0113305Y0060009D01*
X0112711Y0058576D01*
X0112711Y0053102D01*
X0110668Y0051060D01*
X0110668Y0058576D01*
X0110075Y0060009D01*
X0108978Y0061106D01*
X0107544Y0061700D01*
X0105993Y0061700D01*
X0104559Y0061106D01*
X0103462Y0060009D01*
X0102869Y0058576D01*
X0102869Y0051024D01*
X0103462Y0049591D01*
X0104534Y0048519D01*
X0099160Y0048519D01*
X0100232Y0049591D01*
X0100826Y0051024D01*
X0100826Y0058576D01*
X0100232Y0060009D01*
X0099135Y0061106D01*
X0097702Y0061700D01*
X0096150Y0061700D01*
X0094717Y0061106D01*
X0093620Y0060009D01*
X0093026Y0058576D01*
X0093026Y0056000D01*
X0089149Y0056000D01*
X0052861Y0092288D01*
X0046119Y0092288D01*
X0036560Y0101847D01*
X0036560Y0103246D01*
X0035278Y0104528D01*
X0033464Y0104528D01*
X0032182Y0103246D01*
X0032182Y0101433D01*
X0033464Y0100150D01*
X0034863Y0100150D01*
X0042428Y0092586D01*
X0041207Y0092586D01*
X0039924Y0091303D01*
X0039924Y0089905D01*
X0028481Y0078462D01*
X0026494Y0080449D01*
X0023429Y0080449D01*
X0021261Y0078281D01*
X0021261Y0075216D01*
X0023429Y0073049D01*
X0026494Y0073049D01*
X0028661Y0075216D01*
X0028661Y0075549D01*
X0028962Y0075549D01*
X0029665Y0076252D01*
X0041621Y0088208D01*
X0043020Y0088208D01*
X0044302Y0089490D01*
X0044302Y0090711D01*
X0045125Y0089888D01*
X0051867Y0089888D01*
X0078274Y0063481D01*
X0059096Y0063481D01*
X0058393Y0062778D01*
X0055122Y0059506D01*
X0054913Y0060009D01*
X0053816Y0061106D01*
X0052383Y0061700D01*
X0050831Y0061700D01*
X0049398Y0061106D01*
X0048301Y0060009D01*
X0047707Y0058576D01*
X0047707Y0051024D01*
X0047970Y0050390D01*
X0016963Y0050390D01*
X0014304Y0053049D01*
X0016494Y0053049D01*
X0018661Y0055216D01*
X0018661Y0058281D01*
X0016494Y0060449D01*
X0013429Y0060449D01*
X0011880Y0058900D01*
X0011880Y0064597D01*
X0013429Y0063049D01*
X0016494Y0063049D01*
X0018661Y0065216D01*
X0018661Y0068281D01*
X0016494Y0070449D01*
X0013429Y0070449D01*
X0011880Y0068900D01*
X0011880Y0074032D01*
X0013263Y0072649D01*
X0014661Y0072649D01*
X0014661Y0076449D01*
X0015261Y0076449D01*
X0015261Y0072649D01*
X0016660Y0072649D01*
X0019061Y0075051D01*
X0019061Y0076449D01*
X0015261Y0076449D01*
X0015261Y0077049D01*
X0014661Y0077049D01*
X0014661Y0080849D01*
X0013263Y0080849D01*
X0011880Y0079466D01*
X0011880Y0084032D01*
X0013263Y0082649D01*
X0014661Y0082649D01*
X0014661Y0086449D01*
X0015261Y0086449D01*
X0015261Y0082649D01*
X0016660Y0082649D01*
X0019061Y0085051D01*
X0019061Y0086449D01*
X0015261Y0086449D01*
X0015261Y0087049D01*
X0014661Y0087049D01*
X0014661Y0090849D01*
X0013263Y0090849D01*
X0011880Y0089466D01*
X0011880Y0094597D01*
X0013429Y0093049D01*
X0016494Y0093049D01*
X0018661Y0095216D01*
X0018661Y0095549D01*
X0021261Y0095549D01*
X0021261Y0095216D01*
X0023429Y0093049D01*
X0026494Y0093049D01*
X0028661Y0095216D01*
X0028661Y0098281D01*
X0026494Y0100449D01*
X0026161Y0100449D01*
X0026161Y0103049D01*
X0026494Y0103049D01*
X0028661Y0105216D01*
X0028661Y0105455D01*
X0108608Y0105455D01*
X0121127Y0117975D01*
X0154870Y0117975D01*
X0151581Y0114686D01*
X0151581Y0080150D01*
X0152339Y0079392D01*
X0155229Y0076502D01*
X0155259Y0076356D01*
X0155597Y0076134D01*
X0155882Y0075849D01*
X0156031Y0075849D01*
X0170085Y0066603D01*
X0170085Y0061616D01*
X0169044Y0061185D01*
X0167946Y0060088D01*
X0167353Y0058654D01*
X0167353Y0051103D01*
X0167946Y0049670D01*
X0169044Y0048572D01*
X0170477Y0047979D01*
X0172029Y0047979D01*
X0173462Y0048572D01*
X0174559Y0049670D01*
X0175153Y0051103D01*
X0175153Y0058654D01*
X0174559Y0060088D01*
X0173462Y0061185D01*
X0172672Y0061512D01*
X0172672Y0066913D01*
X0172754Y0067037D01*
X0172672Y0067432D01*
X0172672Y0067836D01*
X0172567Y0067941D01*
X0172537Y0068086D01*
X0172200Y0068308D01*
X0171915Y0068594D01*
X0171766Y0068594D01*
X0157240Y0078151D01*
X0154168Y0081222D01*
X0154168Y0113615D01*
X0158529Y0117975D01*
X0164786Y0117975D01*
X0164786Y0117891D01*
X0164903Y0117773D01*
X0164888Y0117764D01*
X0164646Y0117522D01*
X0164474Y0117226D01*
X0164386Y0116895D01*
X0164386Y0115824D01*
X0168086Y0115824D01*
X0168086Y0115224D01*
X0164386Y0115224D01*
X0164386Y0114153D01*
X0164474Y0113822D01*
X0164646Y0113526D01*
X0164888Y0113284D01*
X0164904Y0113274D01*
X0164786Y0113157D01*
X0164786Y0112784D01*
X0164030Y0112784D01*
X0162837Y0113977D01*
X0161023Y0113977D01*
X0159741Y0112695D01*
X0159741Y0110881D01*
X0161000Y0109623D01*
X0159741Y0108364D01*
X0159741Y0106551D01*
X0161023Y0105269D01*
X0162837Y0105269D01*
X0164012Y0106444D01*
X0164786Y0106444D01*
X0164786Y0106071D01*
X0165183Y0105674D01*
X0164786Y0105277D01*
X0164786Y0102131D01*
X0165313Y0101604D01*
X0167186Y0101604D01*
X0167186Y0100894D01*
X0160909Y0094618D01*
X0160909Y0091163D01*
X0165109Y0086964D01*
X0165109Y0086057D01*
X0164120Y0085068D01*
X0164120Y0083255D01*
X0165402Y0081972D01*
X0167215Y0081972D01*
X0168498Y0083255D01*
X0168498Y0085068D01*
X0167509Y0086057D01*
X0167509Y0087958D01*
X0166806Y0088661D01*
X0164765Y0090702D01*
X0165986Y0090702D01*
X0166975Y0091691D01*
X0173057Y0091691D01*
X0173760Y0092393D01*
X0175335Y0093968D01*
X0175335Y0104598D01*
X0176994Y0106257D01*
X0177386Y0106257D01*
X0177386Y0106071D01*
X0177783Y0105674D01*
X0177386Y0105277D01*
X0177386Y0102131D01*
X0177913Y0101604D01*
X0179786Y0101604D01*
X0179786Y0100456D01*
X0178639Y0099309D01*
X0178639Y0097496D01*
X0179921Y0096213D01*
X0181734Y0096213D01*
X0183017Y0097496D01*
X0183017Y0099309D01*
X0182186Y0100140D01*
X0182186Y0101604D01*
X0184059Y0101604D01*
X0184586Y0102131D01*
X0184586Y0105277D01*
X0184189Y0105674D01*
X0184586Y0106071D01*
X0184586Y0109217D01*
X0184468Y0109334D01*
X0184484Y0109344D01*
X0184726Y0109586D01*
X0184897Y0109882D01*
X0184986Y0110213D01*
X0184986Y0111284D01*
X0181286Y0111284D01*
X0181286Y0111884D01*
X0184986Y0111884D01*
X0184986Y0112955D01*
X0184897Y0113286D01*
X0184742Y0113554D01*
X0184897Y0113822D01*
X0184986Y0114153D01*
X0184986Y0115224D01*
X0181286Y0115224D01*
X0181286Y0115824D01*
X0184986Y0115824D01*
X0184986Y0116895D01*
X0184897Y0117226D01*
X0184726Y0117522D01*
X0184484Y0117764D01*
X0184468Y0117773D01*
X0184586Y0117891D01*
X0184586Y0121037D01*
X0184189Y0121434D01*
X0184586Y0121831D01*
X0184586Y0124977D01*
X0184189Y0125374D01*
X0184586Y0125771D01*
X0184586Y0128916D01*
X0184189Y0129314D01*
X0184586Y0129711D01*
X0184586Y0132857D01*
X0184189Y0133254D01*
X0184586Y0133651D01*
X0184586Y0136796D01*
X0184189Y0137194D01*
X0184586Y0137591D01*
X0184586Y0140737D01*
X0184059Y0141264D01*
X0182186Y0141264D01*
X0182186Y0146527D01*
X0172850Y0155863D01*
X0172147Y0156566D01*
X0055256Y0156566D01*
X0051867Y0153176D01*
X0045222Y0153176D01*
X0042535Y0155863D01*
X0041832Y0156566D01*
X0023082Y0156566D01*
X0016593Y0150078D01*
X0015697Y0150449D01*
X0014225Y0150449D01*
X0012866Y0149886D01*
X0011825Y0148845D01*
X0011261Y0147485D01*
X0011261Y0146013D01*
X0011825Y0144653D01*
X0012866Y0143612D01*
X0014225Y0143049D01*
X0015697Y0143049D01*
X0017057Y0143612D01*
X0018098Y0144653D01*
X0018661Y0146013D01*
X0018661Y0147485D01*
X0018290Y0148381D01*
X0024076Y0154166D01*
X0040838Y0154166D01*
X0044227Y0150776D01*
X0052861Y0150776D01*
X0053564Y0151479D01*
X0056251Y0154166D01*
X0171153Y0154166D01*
X0179786Y0145533D01*
X0179786Y0141264D01*
X0177913Y0141264D01*
X0177386Y0140737D01*
X0177386Y0137591D01*
X0177783Y0137194D01*
X0177386Y0136796D01*
X0177386Y0136424D01*
X0176324Y0136424D01*
X0176324Y0137498D01*
X0175335Y0138487D01*
X0175335Y0146393D01*
X0175375Y0146441D01*
X0175335Y0146882D01*
X0175335Y0147325D01*
X0175290Y0147369D01*
X0175285Y0147431D01*
X0174945Y0147715D01*
X0174632Y0148028D01*
X0174569Y0148028D01*
X0172582Y0149683D01*
X0172269Y0149996D01*
X0172207Y0149996D01*
X0172159Y0150036D01*
X0171718Y0149996D01*
X0029466Y0149996D01*
X0027935Y0151527D01*
X0027232Y0152230D01*
X0022691Y0152230D01*
X0020183Y0149722D01*
X0019480Y0149019D01*
X0019480Y0142965D01*
X0016729Y0140214D01*
X0016494Y0140449D01*
X0013429Y0140449D01*
X0011261Y0138281D01*
X0011261Y0135216D01*
X0013429Y0133049D01*
X0013510Y0133049D01*
X0009480Y0129019D01*
X0009480Y0054478D01*
X0010183Y0053776D01*
X0015266Y0048693D01*
X0015266Y0048693D01*
X0015969Y0047990D01*
X0047383Y0047990D01*
X0048551Y0046822D01*
X0049254Y0046119D01*
X0054466Y0046119D01*
X0058083Y0049736D01*
X0058143Y0049591D01*
X0059240Y0048494D01*
X0060674Y0047900D01*
X0062225Y0047900D01*
X0063659Y0048494D01*
X0064756Y0049591D01*
X0065350Y0051024D01*
X0065350Y0058576D01*
X0064756Y0060009D01*
X0063684Y0061081D01*
X0078155Y0061081D01*
X0092414Y0046822D01*
X0093117Y0046119D01*
X0109122Y0046119D01*
X0109825Y0046822D01*
X0110194Y0047192D02*
X0187495Y0047192D01*
X0187495Y0047790D02*
X0162742Y0047790D01*
X0163061Y0047894D02*
X0163664Y0048201D01*
X0164211Y0048599D01*
X0164690Y0049077D01*
X0165088Y0049625D01*
X0165395Y0050228D01*
X0165604Y0050872D01*
X0165710Y0051540D01*
X0165710Y0054579D01*
X0161710Y0054579D01*
X0161710Y0055179D01*
X0161110Y0055179D01*
X0161110Y0062179D01*
X0161072Y0062179D01*
X0160403Y0062073D01*
X0159760Y0061864D01*
X0159157Y0061556D01*
X0158609Y0061159D01*
X0158130Y0060680D01*
X0157733Y0060132D01*
X0157425Y0059529D01*
X0157216Y0058886D01*
X0157110Y0058217D01*
X0157110Y0055179D01*
X0161110Y0055179D01*
X0161110Y0054579D01*
X0157110Y0054579D01*
X0157110Y0051540D01*
X0157216Y0050872D01*
X0157425Y0050228D01*
X0157733Y0049625D01*
X0158130Y0049077D01*
X0158609Y0048599D01*
X0159157Y0048201D01*
X0159760Y0047894D01*
X0160403Y0047685D01*
X0161072Y0047579D01*
X0161110Y0047579D01*
X0161110Y0054579D01*
X0161710Y0054579D01*
X0161710Y0047579D01*
X0161749Y0047579D01*
X0162417Y0047685D01*
X0163061Y0047894D01*
X0163922Y0048389D02*
X0169488Y0048389D01*
X0168629Y0048987D02*
X0164600Y0048987D01*
X0165059Y0049586D02*
X0168030Y0049586D01*
X0167733Y0050184D02*
X0165373Y0050184D01*
X0165575Y0050783D02*
X0167485Y0050783D01*
X0167353Y0051381D02*
X0165685Y0051381D01*
X0165710Y0051980D02*
X0167353Y0051980D01*
X0167353Y0052578D02*
X0165710Y0052578D01*
X0165710Y0053177D02*
X0167353Y0053177D01*
X0167353Y0053775D02*
X0165710Y0053775D01*
X0165710Y0054374D02*
X0167353Y0054374D01*
X0167353Y0054972D02*
X0161710Y0054972D01*
X0161710Y0055179D02*
X0165710Y0055179D01*
X0165710Y0058217D01*
X0165604Y0058886D01*
X0165395Y0059529D01*
X0165088Y0060132D01*
X0164690Y0060680D01*
X0164211Y0061159D01*
X0163664Y0061556D01*
X0163061Y0061864D01*
X0162417Y0062073D01*
X0161749Y0062179D01*
X0161710Y0062179D01*
X0161710Y0055179D01*
X0161710Y0055571D02*
X0161110Y0055571D01*
X0161110Y0056169D02*
X0161710Y0056169D01*
X0161710Y0056768D02*
X0161110Y0056768D01*
X0161110Y0057366D02*
X0161710Y0057366D01*
X0161710Y0057965D02*
X0161110Y0057965D01*
X0161110Y0058563D02*
X0161710Y0058563D01*
X0161710Y0059162D02*
X0161110Y0059162D01*
X0161110Y0059760D02*
X0161710Y0059760D01*
X0161710Y0060359D02*
X0161110Y0060359D01*
X0161110Y0060957D02*
X0161710Y0060957D01*
X0161710Y0061556D02*
X0161110Y0061556D01*
X0161110Y0062154D02*
X0161710Y0062154D01*
X0161903Y0062154D02*
X0170085Y0062154D01*
X0170085Y0062753D02*
X0082396Y0062753D01*
X0081798Y0063351D02*
X0170085Y0063351D01*
X0170085Y0063950D02*
X0081199Y0063950D01*
X0080601Y0064548D02*
X0170085Y0064548D01*
X0170085Y0065147D02*
X0080002Y0065147D01*
X0079403Y0065745D02*
X0170085Y0065745D01*
X0170085Y0066344D02*
X0078805Y0066344D01*
X0078206Y0066942D02*
X0169568Y0066942D01*
X0168659Y0067541D02*
X0077608Y0067541D01*
X0077009Y0068139D02*
X0167749Y0068139D01*
X0166839Y0068738D02*
X0076411Y0068738D01*
X0075812Y0069336D02*
X0165929Y0069336D01*
X0165020Y0069935D02*
X0075214Y0069935D01*
X0074615Y0070534D02*
X0164110Y0070534D01*
X0163200Y0071132D02*
X0074017Y0071132D01*
X0073418Y0071731D02*
X0162291Y0071731D01*
X0161381Y0072329D02*
X0072820Y0072329D01*
X0072221Y0072928D02*
X0160471Y0072928D01*
X0159561Y0073526D02*
X0111803Y0073526D01*
X0111262Y0072985D02*
X0109448Y0072985D01*
X0108459Y0073974D01*
X0072850Y0073974D01*
X0059666Y0087158D01*
X0058267Y0087158D01*
X0056985Y0088441D01*
X0056985Y0090254D01*
X0058267Y0091536D01*
X0060081Y0091536D01*
X0061363Y0090254D01*
X0061363Y0088855D01*
X0072733Y0077485D01*
X0072733Y0079230D01*
X0074015Y0080513D01*
X0075829Y0080513D01*
X0076818Y0079524D01*
X0117121Y0079524D01*
X0118110Y0080513D01*
X0119923Y0080513D01*
X0121205Y0079230D01*
X0121205Y0077417D01*
X0119923Y0076135D01*
X0118110Y0076135D01*
X0117121Y0077124D01*
X0111501Y0077124D01*
X0112544Y0076081D01*
X0112544Y0074267D01*
X0111262Y0072985D01*
X0112401Y0074125D02*
X0158652Y0074125D01*
X0157742Y0074723D02*
X0112544Y0074723D01*
X0112544Y0075322D02*
X0156832Y0075322D01*
X0155811Y0075920D02*
X0112544Y0075920D01*
X0112106Y0076519D02*
X0117726Y0076519D01*
X0117127Y0077117D02*
X0111508Y0077117D01*
X0110355Y0075174D02*
X0073347Y0075174D01*
X0059174Y0089347D01*
X0057614Y0090883D02*
X0054266Y0090883D01*
X0053667Y0091481D02*
X0058213Y0091481D01*
X0057015Y0090284D02*
X0054865Y0090284D01*
X0055463Y0089686D02*
X0056985Y0089686D01*
X0056985Y0089087D02*
X0056062Y0089087D01*
X0056660Y0088489D02*
X0056985Y0088489D01*
X0057259Y0087890D02*
X0057535Y0087890D01*
X0057857Y0087292D02*
X0058134Y0087292D01*
X0058456Y0086693D02*
X0060131Y0086693D01*
X0060729Y0086095D02*
X0059054Y0086095D01*
X0059653Y0085496D02*
X0061328Y0085496D01*
X0061926Y0084898D02*
X0060251Y0084898D01*
X0060850Y0084299D02*
X0062525Y0084299D01*
X0063123Y0083701D02*
X0061448Y0083701D01*
X0062047Y0083102D02*
X0063722Y0083102D01*
X0064320Y0082504D02*
X0062645Y0082504D01*
X0063244Y0081905D02*
X0064919Y0081905D01*
X0065517Y0081307D02*
X0063842Y0081307D01*
X0064441Y0080708D02*
X0066116Y0080708D01*
X0066715Y0080110D02*
X0065039Y0080110D01*
X0065638Y0079511D02*
X0067313Y0079511D01*
X0067912Y0078913D02*
X0066236Y0078913D01*
X0066835Y0078314D02*
X0068510Y0078314D01*
X0069109Y0077716D02*
X0067433Y0077716D01*
X0068032Y0077117D02*
X0069707Y0077117D01*
X0070306Y0076519D02*
X0068630Y0076519D01*
X0069229Y0075920D02*
X0070904Y0075920D01*
X0071503Y0075322D02*
X0069827Y0075322D01*
X0070426Y0074723D02*
X0072101Y0074723D01*
X0072700Y0074125D02*
X0071024Y0074125D01*
X0071623Y0073526D02*
X0108907Y0073526D01*
X0117707Y0080110D02*
X0076232Y0080110D01*
X0074922Y0078324D02*
X0119017Y0078324D01*
X0121205Y0078314D02*
X0153417Y0078314D01*
X0154015Y0077716D02*
X0121205Y0077716D01*
X0120906Y0077117D02*
X0154614Y0077117D01*
X0155212Y0076519D02*
X0120307Y0076519D01*
X0121205Y0078913D02*
X0152818Y0078913D01*
X0152220Y0079511D02*
X0120925Y0079511D01*
X0120326Y0080110D02*
X0151621Y0080110D01*
X0151581Y0080708D02*
X0069510Y0080708D01*
X0070109Y0080110D02*
X0073612Y0080110D01*
X0073014Y0079511D02*
X0070707Y0079511D01*
X0071306Y0078913D02*
X0072733Y0078913D01*
X0072733Y0078314D02*
X0071904Y0078314D01*
X0072503Y0077716D02*
X0072733Y0077716D01*
X0068912Y0081307D02*
X0151581Y0081307D01*
X0151581Y0081905D02*
X0068313Y0081905D01*
X0067715Y0082504D02*
X0151581Y0082504D01*
X0151581Y0083102D02*
X0067116Y0083102D01*
X0066518Y0083701D02*
X0151581Y0083701D01*
X0151581Y0084299D02*
X0065919Y0084299D01*
X0065321Y0084898D02*
X0151581Y0084898D01*
X0151581Y0085496D02*
X0064722Y0085496D01*
X0064123Y0086095D02*
X0151581Y0086095D01*
X0151581Y0086693D02*
X0063525Y0086693D01*
X0062926Y0087292D02*
X0151581Y0087292D01*
X0151581Y0087890D02*
X0062328Y0087890D01*
X0061729Y0088489D02*
X0151581Y0088489D01*
X0151581Y0089087D02*
X0061363Y0089087D01*
X0061363Y0089686D02*
X0151581Y0089686D01*
X0151581Y0090284D02*
X0061333Y0090284D01*
X0060734Y0090883D02*
X0151581Y0090883D01*
X0151581Y0091481D02*
X0060136Y0091481D01*
X0055061Y0086693D02*
X0052516Y0086693D01*
X0052068Y0087141D02*
X0049782Y0088088D01*
X0047307Y0088088D01*
X0045020Y0087141D01*
X0043270Y0085391D01*
X0042323Y0083104D01*
X0042323Y0080629D01*
X0043270Y0078343D01*
X0045020Y0076593D01*
X0047307Y0075646D01*
X0049782Y0075646D01*
X0052068Y0076593D01*
X0053818Y0078343D01*
X0054765Y0080629D01*
X0054765Y0083104D01*
X0053818Y0085391D01*
X0052068Y0087141D01*
X0051704Y0087292D02*
X0054463Y0087292D01*
X0053864Y0087890D02*
X0050259Y0087890D01*
X0052069Y0089686D02*
X0044302Y0089686D01*
X0044302Y0090284D02*
X0044729Y0090284D01*
X0045622Y0091088D02*
X0052364Y0091088D01*
X0088652Y0054800D01*
X0096926Y0054800D01*
X0100826Y0054972D02*
X0102869Y0054972D01*
X0102869Y0054374D02*
X0100826Y0054374D01*
X0100826Y0053775D02*
X0102869Y0053775D01*
X0102869Y0053177D02*
X0100826Y0053177D01*
X0100826Y0052578D02*
X0102869Y0052578D01*
X0102869Y0051980D02*
X0100826Y0051980D01*
X0100826Y0051381D02*
X0102869Y0051381D01*
X0102969Y0050783D02*
X0100726Y0050783D01*
X0100478Y0050184D02*
X0103216Y0050184D01*
X0103467Y0049586D02*
X0100227Y0049586D01*
X0099629Y0048987D02*
X0104066Y0048987D01*
X0108625Y0047319D02*
X0093614Y0047319D01*
X0078652Y0062281D01*
X0059593Y0062281D01*
X0052112Y0054800D01*
X0051607Y0054800D01*
X0047707Y0054972D02*
X0028417Y0054972D01*
X0028661Y0055216D02*
X0026494Y0053049D01*
X0023429Y0053049D01*
X0021261Y0055216D01*
X0021261Y0058281D01*
X0023429Y0060449D01*
X0026494Y0060449D01*
X0028661Y0058281D01*
X0028661Y0055216D01*
X0028661Y0055571D02*
X0047707Y0055571D01*
X0047707Y0056169D02*
X0028661Y0056169D01*
X0028661Y0056768D02*
X0047707Y0056768D01*
X0047707Y0057366D02*
X0028661Y0057366D01*
X0028661Y0057965D02*
X0047707Y0057965D01*
X0047707Y0058563D02*
X0028380Y0058563D01*
X0027781Y0059162D02*
X0047950Y0059162D01*
X0048198Y0059760D02*
X0027182Y0059760D01*
X0026584Y0060359D02*
X0048650Y0060359D01*
X0049249Y0060957D02*
X0011880Y0060957D01*
X0011880Y0060359D02*
X0013339Y0060359D01*
X0012740Y0059760D02*
X0011880Y0059760D01*
X0011880Y0059162D02*
X0012142Y0059162D01*
X0011880Y0061556D02*
X0050483Y0061556D01*
X0052731Y0061556D02*
X0057171Y0061556D01*
X0057770Y0062154D02*
X0011880Y0062154D01*
X0011880Y0062753D02*
X0058368Y0062753D01*
X0058967Y0063351D02*
X0026797Y0063351D01*
X0026494Y0063049D02*
X0028661Y0065216D01*
X0028661Y0066100D01*
X0047830Y0066100D01*
X0048818Y0065111D01*
X0050632Y0065111D01*
X0051914Y0066393D01*
X0051914Y0068207D01*
X0050632Y0069489D01*
X0048818Y0069489D01*
X0047830Y0068500D01*
X0028443Y0068500D01*
X0026494Y0070449D01*
X0023429Y0070449D01*
X0021261Y0068281D01*
X0021261Y0065216D01*
X0023429Y0063049D01*
X0026494Y0063049D01*
X0027395Y0063950D02*
X0077805Y0063950D01*
X0077206Y0064548D02*
X0027994Y0064548D01*
X0028592Y0065147D02*
X0048783Y0065147D01*
X0048184Y0065745D02*
X0028661Y0065745D01*
X0028205Y0068738D02*
X0048068Y0068738D01*
X0048666Y0069336D02*
X0027606Y0069336D01*
X0027008Y0069935D02*
X0071820Y0069935D01*
X0072418Y0069336D02*
X0050784Y0069336D01*
X0051383Y0068738D02*
X0073017Y0068738D01*
X0073615Y0068139D02*
X0051914Y0068139D01*
X0051914Y0067541D02*
X0074214Y0067541D01*
X0074812Y0066942D02*
X0051914Y0066942D01*
X0051865Y0066344D02*
X0075411Y0066344D01*
X0076009Y0065745D02*
X0051266Y0065745D01*
X0050668Y0065147D02*
X0076608Y0065147D01*
X0078279Y0060957D02*
X0063808Y0060957D01*
X0064406Y0060359D02*
X0078877Y0060359D01*
X0079476Y0059760D02*
X0064859Y0059760D01*
X0065107Y0059162D02*
X0080074Y0059162D01*
X0080673Y0058563D02*
X0065350Y0058563D01*
X0065350Y0057965D02*
X0081271Y0057965D01*
X0081870Y0057366D02*
X0065350Y0057366D01*
X0065350Y0056768D02*
X0082468Y0056768D01*
X0083067Y0056169D02*
X0065350Y0056169D01*
X0065350Y0055571D02*
X0083665Y0055571D01*
X0084264Y0054972D02*
X0065350Y0054972D01*
X0065350Y0054374D02*
X0084862Y0054374D01*
X0085461Y0053775D02*
X0065350Y0053775D01*
X0065350Y0053177D02*
X0086059Y0053177D01*
X0086658Y0052578D02*
X0065350Y0052578D01*
X0065350Y0051980D02*
X0087256Y0051980D01*
X0087855Y0051381D02*
X0065350Y0051381D01*
X0065250Y0050783D02*
X0088453Y0050783D01*
X0089052Y0050184D02*
X0065002Y0050184D01*
X0064751Y0049586D02*
X0089650Y0049586D01*
X0090249Y0048987D02*
X0064152Y0048987D01*
X0063405Y0048389D02*
X0090847Y0048389D01*
X0091446Y0047790D02*
X0056137Y0047790D01*
X0056735Y0048389D02*
X0059494Y0048389D01*
X0058747Y0048987D02*
X0057334Y0048987D01*
X0057932Y0049586D02*
X0058149Y0049586D01*
X0055538Y0047192D02*
X0092044Y0047192D01*
X0092643Y0046593D02*
X0054940Y0046593D01*
X0053969Y0047319D02*
X0061450Y0054800D01*
X0055974Y0060359D02*
X0054564Y0060359D01*
X0055016Y0059760D02*
X0055376Y0059760D01*
X0056573Y0060957D02*
X0053965Y0060957D01*
X0049725Y0067300D02*
X0025513Y0067300D01*
X0024961Y0066749D01*
X0022317Y0069336D02*
X0017606Y0069336D01*
X0018205Y0068738D02*
X0021718Y0068738D01*
X0021261Y0068139D02*
X0018661Y0068139D01*
X0018661Y0067541D02*
X0021261Y0067541D01*
X0021261Y0066942D02*
X0018661Y0066942D01*
X0018661Y0066344D02*
X0021261Y0066344D01*
X0021261Y0065745D02*
X0018661Y0065745D01*
X0018592Y0065147D02*
X0021331Y0065147D01*
X0021929Y0064548D02*
X0017994Y0064548D01*
X0017395Y0063950D02*
X0022528Y0063950D01*
X0023126Y0063351D02*
X0016797Y0063351D01*
X0016584Y0060359D02*
X0023339Y0060359D01*
X0022740Y0059760D02*
X0017182Y0059760D01*
X0017781Y0059162D02*
X0022142Y0059162D01*
X0021543Y0058563D02*
X0018380Y0058563D01*
X0018661Y0057965D02*
X0021261Y0057965D01*
X0021261Y0057366D02*
X0018661Y0057366D01*
X0018661Y0056768D02*
X0021261Y0056768D01*
X0021261Y0056169D02*
X0018661Y0056169D01*
X0018661Y0055571D02*
X0021261Y0055571D01*
X0021505Y0054972D02*
X0018417Y0054972D01*
X0017819Y0054374D02*
X0022104Y0054374D01*
X0022702Y0053775D02*
X0017220Y0053775D01*
X0016622Y0053177D02*
X0023301Y0053177D01*
X0026622Y0053177D02*
X0047707Y0053177D01*
X0047707Y0053775D02*
X0027220Y0053775D01*
X0027819Y0054374D02*
X0047707Y0054374D01*
X0047707Y0052578D02*
X0014775Y0052578D01*
X0015373Y0051980D02*
X0047707Y0051980D01*
X0047707Y0051381D02*
X0015972Y0051381D01*
X0016570Y0050783D02*
X0047807Y0050783D01*
X0047880Y0049190D02*
X0016466Y0049190D01*
X0010680Y0054976D01*
X0010680Y0128522D01*
X0014961Y0132803D01*
X0014961Y0136749D01*
X0020680Y0142468D01*
X0020680Y0148522D01*
X0023188Y0151030D01*
X0026735Y0151030D01*
X0028969Y0148796D01*
X0171772Y0148796D01*
X0174135Y0146828D01*
X0174135Y0136591D01*
X0175502Y0135224D01*
X0180986Y0135224D01*
X0177558Y0136968D02*
X0176324Y0136968D01*
X0176255Y0137567D02*
X0177410Y0137567D01*
X0177386Y0138165D02*
X0175656Y0138165D01*
X0175335Y0138764D02*
X0177386Y0138764D01*
X0177386Y0139362D02*
X0175335Y0139362D01*
X0175335Y0139961D02*
X0177386Y0139961D01*
X0177386Y0140559D02*
X0175335Y0140559D01*
X0175335Y0141158D02*
X0177807Y0141158D01*
X0179786Y0141756D02*
X0175335Y0141756D01*
X0175335Y0142355D02*
X0179786Y0142355D01*
X0179786Y0142953D02*
X0175335Y0142953D01*
X0175335Y0143552D02*
X0179786Y0143552D01*
X0179786Y0144150D02*
X0175335Y0144150D01*
X0175335Y0144749D02*
X0179786Y0144749D01*
X0179786Y0145347D02*
X0175335Y0145347D01*
X0175335Y0145946D02*
X0179373Y0145946D01*
X0178774Y0146544D02*
X0175365Y0146544D01*
X0175335Y0147143D02*
X0178176Y0147143D01*
X0177577Y0147741D02*
X0174918Y0147741D01*
X0174194Y0148340D02*
X0176979Y0148340D01*
X0176380Y0148938D02*
X0173476Y0148938D01*
X0172758Y0149537D02*
X0175782Y0149537D01*
X0175183Y0150136D02*
X0029326Y0150136D01*
X0028728Y0150734D02*
X0174585Y0150734D01*
X0173986Y0151333D02*
X0053417Y0151333D01*
X0054015Y0151931D02*
X0173388Y0151931D01*
X0172789Y0152530D02*
X0054614Y0152530D01*
X0055212Y0153128D02*
X0172191Y0153128D01*
X0171592Y0153727D02*
X0055811Y0153727D01*
X0055753Y0155366D02*
X0052364Y0151976D01*
X0044725Y0151976D01*
X0041335Y0155366D01*
X0023579Y0155366D01*
X0014961Y0146749D01*
X0012517Y0149537D02*
X0002900Y0149537D01*
X0002900Y0148938D02*
X0011919Y0148938D01*
X0011616Y0148340D02*
X0002900Y0148340D01*
X0002900Y0147741D02*
X0011368Y0147741D01*
X0011261Y0147143D02*
X0002900Y0147143D01*
X0002900Y0146544D02*
X0011261Y0146544D01*
X0011289Y0145946D02*
X0002900Y0145946D01*
X0002900Y0145347D02*
X0011537Y0145347D01*
X0011785Y0144749D02*
X0002900Y0144749D01*
X0002900Y0144150D02*
X0012327Y0144150D01*
X0013011Y0143552D02*
X0002900Y0143552D01*
X0002900Y0142953D02*
X0019469Y0142953D01*
X0019480Y0143552D02*
X0016912Y0143552D01*
X0017596Y0144150D02*
X0019480Y0144150D01*
X0019480Y0144749D02*
X0018138Y0144749D01*
X0018386Y0145347D02*
X0019480Y0145347D01*
X0019480Y0145946D02*
X0018634Y0145946D01*
X0018661Y0146544D02*
X0019480Y0146544D01*
X0019480Y0147143D02*
X0018661Y0147143D01*
X0018555Y0147741D02*
X0019480Y0147741D01*
X0019480Y0148340D02*
X0018307Y0148340D01*
X0018848Y0148938D02*
X0019480Y0148938D01*
X0019447Y0149537D02*
X0019998Y0149537D01*
X0020045Y0150136D02*
X0020597Y0150136D01*
X0020644Y0150734D02*
X0021195Y0150734D01*
X0021242Y0151333D02*
X0021794Y0151333D01*
X0021841Y0151931D02*
X0022392Y0151931D01*
X0022439Y0152530D02*
X0042474Y0152530D01*
X0041876Y0153128D02*
X0023038Y0153128D01*
X0023636Y0153727D02*
X0041277Y0153727D01*
X0042876Y0155522D02*
X0045989Y0155522D01*
X0044823Y0156121D02*
X0042277Y0156121D01*
X0043474Y0154924D02*
X0053614Y0154924D01*
X0054212Y0155522D02*
X0051099Y0155522D01*
X0052265Y0156121D02*
X0054811Y0156121D01*
X0055753Y0155366D02*
X0171650Y0155366D01*
X0180986Y0146030D01*
X0180986Y0139164D01*
X0182186Y0141756D02*
X0187495Y0141756D01*
X0187495Y0141158D02*
X0184165Y0141158D01*
X0184586Y0140559D02*
X0187495Y0140559D01*
X0187495Y0139961D02*
X0184586Y0139961D01*
X0184586Y0139362D02*
X0187495Y0139362D01*
X0187495Y0138764D02*
X0184586Y0138764D01*
X0184586Y0138165D02*
X0187495Y0138165D01*
X0187495Y0137567D02*
X0184562Y0137567D01*
X0184414Y0136968D02*
X0187495Y0136968D01*
X0187495Y0136370D02*
X0184586Y0136370D01*
X0184586Y0135771D02*
X0187495Y0135771D01*
X0187495Y0135173D02*
X0184586Y0135173D01*
X0184586Y0134574D02*
X0187495Y0134574D01*
X0187495Y0133976D02*
X0184586Y0133976D01*
X0184312Y0133377D02*
X0187495Y0133377D01*
X0187495Y0132779D02*
X0184586Y0132779D01*
X0184586Y0132180D02*
X0187495Y0132180D01*
X0187495Y0131582D02*
X0184586Y0131582D01*
X0184586Y0130983D02*
X0187495Y0130983D01*
X0187495Y0130385D02*
X0184586Y0130385D01*
X0184586Y0129786D02*
X0187495Y0129786D01*
X0187495Y0129188D02*
X0184315Y0129188D01*
X0184586Y0128589D02*
X0187495Y0128589D01*
X0187495Y0127991D02*
X0184586Y0127991D01*
X0184586Y0127392D02*
X0187495Y0127392D01*
X0187495Y0126794D02*
X0184586Y0126794D01*
X0184586Y0126195D02*
X0187495Y0126195D01*
X0187495Y0125597D02*
X0184411Y0125597D01*
X0184564Y0124998D02*
X0187495Y0124998D01*
X0187495Y0124400D02*
X0184586Y0124400D01*
X0184586Y0123801D02*
X0187495Y0123801D01*
X0187495Y0123203D02*
X0184586Y0123203D01*
X0184586Y0122604D02*
X0187495Y0122604D01*
X0187495Y0122005D02*
X0184586Y0122005D01*
X0184215Y0121407D02*
X0187495Y0121407D01*
X0187495Y0120808D02*
X0184586Y0120808D01*
X0184586Y0120210D02*
X0187495Y0120210D01*
X0187495Y0119611D02*
X0184586Y0119611D01*
X0184586Y0119013D02*
X0187495Y0119013D01*
X0187495Y0118414D02*
X0184586Y0118414D01*
X0184511Y0117816D02*
X0187495Y0117816D01*
X0187495Y0117217D02*
X0184899Y0117217D01*
X0184986Y0116619D02*
X0187495Y0116619D01*
X0187495Y0116020D02*
X0184986Y0116020D01*
X0184986Y0114823D02*
X0187495Y0114823D01*
X0187495Y0114225D02*
X0184986Y0114225D01*
X0184784Y0113626D02*
X0187495Y0113626D01*
X0187495Y0113028D02*
X0184966Y0113028D01*
X0184986Y0112429D02*
X0187495Y0112429D01*
X0187495Y0111831D02*
X0181286Y0111831D01*
X0181286Y0111884D02*
X0180686Y0111884D01*
X0180686Y0114084D01*
X0180686Y0115224D01*
X0181286Y0115224D01*
X0181286Y0111884D01*
X0181286Y0112429D02*
X0180686Y0112429D01*
X0180686Y0111884D02*
X0180686Y0111284D01*
X0176986Y0111284D01*
X0176986Y0110213D01*
X0177074Y0109882D01*
X0177246Y0109586D01*
X0177488Y0109344D01*
X0177503Y0109334D01*
X0177386Y0109217D01*
X0177386Y0108657D01*
X0176000Y0108657D01*
X0173638Y0106295D01*
X0172935Y0105592D01*
X0172935Y0094962D01*
X0172063Y0094091D01*
X0166975Y0094091D01*
X0165986Y0095080D01*
X0164765Y0095080D01*
X0169586Y0099900D01*
X0169586Y0100894D01*
X0169586Y0101604D01*
X0171459Y0101604D01*
X0171986Y0102131D01*
X0171986Y0105277D01*
X0171589Y0105674D01*
X0171986Y0106071D01*
X0171986Y0109217D01*
X0171589Y0109614D01*
X0171986Y0110011D01*
X0171986Y0113157D01*
X0171868Y0113274D01*
X0171884Y0113284D01*
X0172126Y0113526D01*
X0172297Y0113822D01*
X0172386Y0114153D01*
X0172386Y0115224D01*
X0168686Y0115224D01*
X0168686Y0115824D01*
X0172386Y0115824D01*
X0172386Y0116895D01*
X0172297Y0117226D01*
X0172126Y0117522D01*
X0171884Y0117764D01*
X0171868Y0117773D01*
X0171986Y0117891D01*
X0171986Y0118264D01*
X0172392Y0118264D01*
X0172407Y0118248D01*
X0175862Y0118248D01*
X0175878Y0118264D01*
X0177386Y0118264D01*
X0177386Y0117891D01*
X0177503Y0117773D01*
X0177488Y0117764D01*
X0177246Y0117522D01*
X0177074Y0117226D01*
X0176986Y0116895D01*
X0176986Y0115824D01*
X0180686Y0115824D01*
X0180686Y0115224D01*
X0176986Y0115224D01*
X0176986Y0114153D01*
X0177074Y0113822D01*
X0177229Y0113554D01*
X0177074Y0113286D01*
X0176986Y0112955D01*
X0176986Y0111884D01*
X0180686Y0111884D01*
X0180686Y0111831D02*
X0171986Y0111831D01*
X0171986Y0112429D02*
X0176986Y0112429D01*
X0177005Y0113028D02*
X0171986Y0113028D01*
X0172184Y0113626D02*
X0177188Y0113626D01*
X0176986Y0114225D02*
X0172386Y0114225D01*
X0172386Y0114823D02*
X0176986Y0114823D01*
X0176986Y0116020D02*
X0172386Y0116020D01*
X0172386Y0116619D02*
X0176986Y0116619D01*
X0177072Y0117217D02*
X0172299Y0117217D01*
X0171911Y0117816D02*
X0177461Y0117816D01*
X0175381Y0119464D02*
X0175365Y0119448D01*
X0172904Y0119448D01*
X0172889Y0119464D01*
X0168386Y0119464D01*
X0168191Y0119269D01*
X0164861Y0117816D02*
X0158370Y0117816D01*
X0157771Y0117217D02*
X0164472Y0117217D01*
X0164386Y0116619D02*
X0157173Y0116619D01*
X0156574Y0116020D02*
X0164386Y0116020D01*
X0164386Y0114823D02*
X0155377Y0114823D01*
X0154779Y0114225D02*
X0164386Y0114225D01*
X0164588Y0113626D02*
X0163187Y0113626D01*
X0163786Y0113028D02*
X0164786Y0113028D01*
X0162134Y0111584D02*
X0161930Y0111788D01*
X0162134Y0111584D02*
X0168386Y0111584D01*
X0171986Y0111232D02*
X0176986Y0111232D01*
X0176986Y0110634D02*
X0171986Y0110634D01*
X0171986Y0110035D02*
X0177033Y0110035D01*
X0177394Y0109437D02*
X0171766Y0109437D01*
X0171986Y0108838D02*
X0177386Y0108838D01*
X0176497Y0107457D02*
X0174135Y0105095D01*
X0174135Y0094465D01*
X0172560Y0092891D01*
X0165080Y0092891D01*
X0166592Y0094474D02*
X0172446Y0094474D01*
X0172935Y0095072D02*
X0165993Y0095072D01*
X0165357Y0095671D02*
X0172935Y0095671D01*
X0172935Y0096270D02*
X0165955Y0096270D01*
X0166554Y0096868D02*
X0172935Y0096868D01*
X0172935Y0097467D02*
X0167152Y0097467D01*
X0167751Y0098065D02*
X0172935Y0098065D01*
X0172935Y0098664D02*
X0168349Y0098664D01*
X0168948Y0099262D02*
X0172935Y0099262D01*
X0172935Y0099861D02*
X0169546Y0099861D01*
X0169586Y0100459D02*
X0172935Y0100459D01*
X0172935Y0101058D02*
X0169586Y0101058D01*
X0168386Y0100397D02*
X0162109Y0094121D01*
X0162109Y0091660D01*
X0166309Y0087461D01*
X0166309Y0084161D01*
X0168498Y0084299D02*
X0173825Y0084299D01*
X0173819Y0084286D02*
X0173819Y0081811D01*
X0174766Y0079524D01*
X0176516Y0077774D01*
X0178803Y0076827D01*
X0181278Y0076827D01*
X0183564Y0077774D01*
X0185314Y0079524D01*
X0186261Y0081811D01*
X0186261Y0084286D01*
X0185314Y0086572D01*
X0183564Y0088322D01*
X0181278Y0089269D01*
X0178803Y0089269D01*
X0176516Y0088322D01*
X0174766Y0086572D01*
X0173819Y0084286D01*
X0173819Y0083701D02*
X0168498Y0083701D01*
X0168345Y0083102D02*
X0173819Y0083102D01*
X0173819Y0082504D02*
X0167747Y0082504D01*
X0168498Y0084898D02*
X0174073Y0084898D01*
X0174320Y0085496D02*
X0168069Y0085496D01*
X0167509Y0086095D02*
X0174568Y0086095D01*
X0174887Y0086693D02*
X0167509Y0086693D01*
X0167509Y0087292D02*
X0175486Y0087292D01*
X0176084Y0087890D02*
X0167509Y0087890D01*
X0166978Y0088489D02*
X0176919Y0088489D01*
X0178363Y0089087D02*
X0166379Y0089087D01*
X0165781Y0089686D02*
X0187495Y0089686D01*
X0187495Y0090284D02*
X0165182Y0090284D01*
X0166168Y0090883D02*
X0187495Y0090883D01*
X0187495Y0091481D02*
X0166766Y0091481D01*
X0163584Y0088489D02*
X0154168Y0088489D01*
X0154168Y0089087D02*
X0162985Y0089087D01*
X0162387Y0089686D02*
X0154168Y0089686D01*
X0154168Y0090284D02*
X0161788Y0090284D01*
X0161190Y0090883D02*
X0154168Y0090883D01*
X0154168Y0091481D02*
X0160909Y0091481D01*
X0160909Y0092080D02*
X0154168Y0092080D01*
X0154168Y0092678D02*
X0160909Y0092678D01*
X0160909Y0093277D02*
X0154168Y0093277D01*
X0154168Y0093875D02*
X0160909Y0093875D01*
X0160909Y0094474D02*
X0154168Y0094474D01*
X0154168Y0095072D02*
X0161364Y0095072D01*
X0161963Y0095671D02*
X0154168Y0095671D01*
X0154168Y0096270D02*
X0162561Y0096270D01*
X0163160Y0096868D02*
X0154168Y0096868D01*
X0154168Y0097467D02*
X0163758Y0097467D01*
X0164357Y0098065D02*
X0154168Y0098065D01*
X0154168Y0098664D02*
X0164955Y0098664D01*
X0165554Y0099262D02*
X0154168Y0099262D01*
X0154168Y0099861D02*
X0166152Y0099861D01*
X0166751Y0100459D02*
X0154168Y0100459D01*
X0154168Y0101058D02*
X0167186Y0101058D01*
X0168386Y0100397D02*
X0168386Y0103704D01*
X0171986Y0103452D02*
X0172935Y0103452D01*
X0172935Y0104050D02*
X0171986Y0104050D01*
X0171986Y0104649D02*
X0172935Y0104649D01*
X0172935Y0105247D02*
X0171986Y0105247D01*
X0171760Y0105846D02*
X0173188Y0105846D01*
X0173787Y0106444D02*
X0171986Y0106444D01*
X0171986Y0107043D02*
X0174385Y0107043D01*
X0174984Y0107641D02*
X0171986Y0107641D01*
X0171986Y0108240D02*
X0175582Y0108240D01*
X0176497Y0107457D02*
X0180799Y0107457D01*
X0180986Y0107644D01*
X0177611Y0105846D02*
X0176582Y0105846D01*
X0175984Y0105247D02*
X0177386Y0105247D01*
X0177386Y0104649D02*
X0175385Y0104649D01*
X0175335Y0104050D02*
X0177386Y0104050D01*
X0177386Y0103452D02*
X0175335Y0103452D01*
X0175335Y0102853D02*
X0177386Y0102853D01*
X0177386Y0102255D02*
X0175335Y0102255D01*
X0175335Y0101656D02*
X0177861Y0101656D01*
X0179786Y0101058D02*
X0175335Y0101058D01*
X0175335Y0100459D02*
X0179786Y0100459D01*
X0179190Y0099861D02*
X0175335Y0099861D01*
X0175335Y0099262D02*
X0178639Y0099262D01*
X0178639Y0098664D02*
X0175335Y0098664D01*
X0175335Y0098065D02*
X0178639Y0098065D01*
X0178668Y0097467D02*
X0175335Y0097467D01*
X0175335Y0096868D02*
X0179266Y0096868D01*
X0179865Y0096270D02*
X0175335Y0096270D01*
X0175335Y0095671D02*
X0187495Y0095671D01*
X0187495Y0096270D02*
X0181790Y0096270D01*
X0182389Y0096868D02*
X0187495Y0096868D01*
X0187495Y0097467D02*
X0182987Y0097467D01*
X0183017Y0098065D02*
X0187495Y0098065D01*
X0187495Y0098664D02*
X0183017Y0098664D01*
X0183017Y0099262D02*
X0187495Y0099262D01*
X0187495Y0099861D02*
X0182465Y0099861D01*
X0182186Y0100459D02*
X0187495Y0100459D01*
X0187495Y0101058D02*
X0182186Y0101058D01*
X0184111Y0101656D02*
X0187495Y0101656D01*
X0187495Y0102255D02*
X0184586Y0102255D01*
X0184586Y0102853D02*
X0187495Y0102853D01*
X0187495Y0103452D02*
X0184586Y0103452D01*
X0184586Y0104050D02*
X0187495Y0104050D01*
X0187495Y0104649D02*
X0184586Y0104649D01*
X0184586Y0105247D02*
X0187495Y0105247D01*
X0187495Y0105846D02*
X0184360Y0105846D01*
X0184586Y0106444D02*
X0187495Y0106444D01*
X0187495Y0107043D02*
X0184586Y0107043D01*
X0184586Y0107641D02*
X0187495Y0107641D01*
X0187495Y0108240D02*
X0184586Y0108240D01*
X0184586Y0108838D02*
X0187495Y0108838D01*
X0187495Y0109437D02*
X0184577Y0109437D01*
X0184938Y0110035D02*
X0187495Y0110035D01*
X0187495Y0110634D02*
X0184986Y0110634D01*
X0184986Y0111232D02*
X0187495Y0111232D01*
X0187495Y0115422D02*
X0181286Y0115422D01*
X0181286Y0114823D02*
X0180686Y0114823D01*
X0180686Y0114225D02*
X0181286Y0114225D01*
X0181286Y0113626D02*
X0180686Y0113626D01*
X0180686Y0113028D02*
X0181286Y0113028D01*
X0180686Y0115422D02*
X0168686Y0115422D01*
X0168086Y0115422D02*
X0155976Y0115422D01*
X0154180Y0113626D02*
X0160672Y0113626D01*
X0160074Y0113028D02*
X0154168Y0113028D01*
X0154168Y0112429D02*
X0159741Y0112429D01*
X0159741Y0111831D02*
X0154168Y0111831D01*
X0154168Y0111232D02*
X0159741Y0111232D01*
X0159989Y0110634D02*
X0154168Y0110634D01*
X0154168Y0110035D02*
X0160587Y0110035D01*
X0160814Y0109437D02*
X0154168Y0109437D01*
X0154168Y0108838D02*
X0160215Y0108838D01*
X0159741Y0108240D02*
X0154168Y0108240D01*
X0154168Y0107641D02*
X0159741Y0107641D01*
X0159741Y0107043D02*
X0154168Y0107043D01*
X0154168Y0106444D02*
X0159848Y0106444D01*
X0160446Y0105846D02*
X0154168Y0105846D01*
X0154168Y0105247D02*
X0164786Y0105247D01*
X0164786Y0104649D02*
X0154168Y0104649D01*
X0154168Y0104050D02*
X0164786Y0104050D01*
X0164786Y0103452D02*
X0154168Y0103452D01*
X0154168Y0102853D02*
X0164786Y0102853D01*
X0164786Y0102255D02*
X0154168Y0102255D01*
X0154168Y0101656D02*
X0165261Y0101656D01*
X0165011Y0105846D02*
X0163414Y0105846D01*
X0161930Y0107457D02*
X0162117Y0107644D01*
X0168386Y0107644D01*
X0171986Y0102853D02*
X0172935Y0102853D01*
X0172935Y0102255D02*
X0171986Y0102255D01*
X0171511Y0101656D02*
X0172935Y0101656D01*
X0175335Y0095072D02*
X0187495Y0095072D01*
X0187495Y0094474D02*
X0175335Y0094474D01*
X0175242Y0093875D02*
X0187495Y0093875D01*
X0187495Y0093277D02*
X0174643Y0093277D01*
X0174045Y0092678D02*
X0187495Y0092678D01*
X0187495Y0092080D02*
X0173446Y0092080D01*
X0180986Y0098167D02*
X0180828Y0098402D01*
X0180986Y0098167D02*
X0180986Y0103704D01*
X0181717Y0089087D02*
X0187495Y0089087D01*
X0187495Y0088489D02*
X0183162Y0088489D01*
X0183996Y0087890D02*
X0187495Y0087890D01*
X0187495Y0087292D02*
X0184595Y0087292D01*
X0185193Y0086693D02*
X0187495Y0086693D01*
X0187495Y0086095D02*
X0185512Y0086095D01*
X0185760Y0085496D02*
X0187495Y0085496D01*
X0187495Y0084898D02*
X0186008Y0084898D01*
X0186256Y0084299D02*
X0187495Y0084299D01*
X0187495Y0083701D02*
X0186261Y0083701D01*
X0186261Y0083102D02*
X0187495Y0083102D01*
X0187495Y0082504D02*
X0186261Y0082504D01*
X0186261Y0081905D02*
X0187495Y0081905D01*
X0187495Y0081307D02*
X0186053Y0081307D01*
X0185805Y0080708D02*
X0187495Y0080708D01*
X0187495Y0080110D02*
X0185557Y0080110D01*
X0185301Y0079511D02*
X0187495Y0079511D01*
X0187495Y0078913D02*
X0184703Y0078913D01*
X0184104Y0078314D02*
X0187495Y0078314D01*
X0187495Y0077716D02*
X0183424Y0077716D01*
X0181979Y0077117D02*
X0187495Y0077117D01*
X0187495Y0076519D02*
X0159720Y0076519D01*
X0158810Y0077117D02*
X0178102Y0077117D01*
X0176657Y0077716D02*
X0157901Y0077716D01*
X0157076Y0078314D02*
X0175976Y0078314D01*
X0175377Y0078913D02*
X0156478Y0078913D01*
X0155879Y0079511D02*
X0174779Y0079511D01*
X0174523Y0080110D02*
X0155280Y0080110D01*
X0154682Y0080708D02*
X0174275Y0080708D01*
X0174028Y0081307D02*
X0154168Y0081307D01*
X0154168Y0081905D02*
X0173819Y0081905D01*
X0164871Y0082504D02*
X0154168Y0082504D01*
X0154168Y0083102D02*
X0164272Y0083102D01*
X0164120Y0083701D02*
X0154168Y0083701D01*
X0154168Y0084299D02*
X0164120Y0084299D01*
X0164120Y0084898D02*
X0154168Y0084898D01*
X0154168Y0085496D02*
X0164548Y0085496D01*
X0165109Y0086095D02*
X0154168Y0086095D01*
X0154168Y0086693D02*
X0165109Y0086693D01*
X0164781Y0087292D02*
X0154168Y0087292D01*
X0154168Y0087890D02*
X0164182Y0087890D01*
X0160630Y0075920D02*
X0187495Y0075920D01*
X0187495Y0075322D02*
X0161540Y0075322D01*
X0162449Y0074723D02*
X0187495Y0074723D01*
X0187495Y0074125D02*
X0163359Y0074125D01*
X0164269Y0073526D02*
X0187495Y0073526D01*
X0187495Y0072928D02*
X0165179Y0072928D01*
X0166088Y0072329D02*
X0187495Y0072329D01*
X0187495Y0071731D02*
X0166998Y0071731D01*
X0167908Y0071132D02*
X0187495Y0071132D01*
X0187495Y0070534D02*
X0168818Y0070534D01*
X0169727Y0069935D02*
X0187495Y0069935D01*
X0187495Y0069336D02*
X0170637Y0069336D01*
X0171547Y0068738D02*
X0187495Y0068738D01*
X0187495Y0068139D02*
X0172457Y0068139D01*
X0172672Y0067541D02*
X0187495Y0067541D01*
X0187495Y0066942D02*
X0172692Y0066942D01*
X0172672Y0066344D02*
X0187495Y0066344D01*
X0187495Y0065745D02*
X0172672Y0065745D01*
X0172672Y0065147D02*
X0187495Y0065147D01*
X0187495Y0064548D02*
X0172672Y0064548D01*
X0172672Y0063950D02*
X0187495Y0063950D01*
X0187495Y0063351D02*
X0172672Y0063351D01*
X0172672Y0062753D02*
X0187495Y0062753D01*
X0187495Y0062154D02*
X0172672Y0062154D01*
X0172672Y0061556D02*
X0187495Y0061556D01*
X0187495Y0060957D02*
X0173690Y0060957D01*
X0174288Y0060359D02*
X0187495Y0060359D01*
X0187495Y0059760D02*
X0174695Y0059760D01*
X0174943Y0059162D02*
X0187495Y0059162D01*
X0187495Y0058563D02*
X0175153Y0058563D01*
X0175153Y0057965D02*
X0187495Y0057965D01*
X0187495Y0057366D02*
X0175153Y0057366D01*
X0175153Y0056768D02*
X0187495Y0056768D01*
X0187495Y0056169D02*
X0175153Y0056169D01*
X0175153Y0055571D02*
X0187495Y0055571D01*
X0187495Y0054972D02*
X0175153Y0054972D01*
X0175153Y0054374D02*
X0187495Y0054374D01*
X0187495Y0053775D02*
X0175153Y0053775D01*
X0175153Y0053177D02*
X0187495Y0053177D01*
X0187495Y0052578D02*
X0175153Y0052578D01*
X0175153Y0051980D02*
X0187495Y0051980D01*
X0187495Y0051381D02*
X0175153Y0051381D01*
X0175020Y0050783D02*
X0187495Y0050783D01*
X0187495Y0050184D02*
X0174772Y0050184D01*
X0174475Y0049586D02*
X0187495Y0049586D01*
X0187495Y0048987D02*
X0173877Y0048987D01*
X0173018Y0048389D02*
X0187495Y0048389D01*
X0171379Y0055005D02*
X0171253Y0054879D01*
X0167353Y0055571D02*
X0165710Y0055571D01*
X0165710Y0056169D02*
X0167353Y0056169D01*
X0167353Y0056768D02*
X0165710Y0056768D01*
X0165710Y0057366D02*
X0167353Y0057366D01*
X0167353Y0057965D02*
X0165710Y0057965D01*
X0165655Y0058563D02*
X0167353Y0058563D01*
X0167563Y0059162D02*
X0165515Y0059162D01*
X0165278Y0059760D02*
X0167811Y0059760D01*
X0168217Y0060359D02*
X0164923Y0060359D01*
X0164413Y0060957D02*
X0168816Y0060957D01*
X0169939Y0061556D02*
X0163665Y0061556D01*
X0160918Y0062154D02*
X0082995Y0062154D01*
X0083593Y0061556D02*
X0095802Y0061556D01*
X0094568Y0060957D02*
X0084192Y0060957D01*
X0084790Y0060359D02*
X0093969Y0060359D01*
X0093517Y0059760D02*
X0085389Y0059760D01*
X0085987Y0059162D02*
X0093269Y0059162D01*
X0093026Y0058563D02*
X0086586Y0058563D01*
X0087184Y0057965D02*
X0093026Y0057965D01*
X0093026Y0057366D02*
X0087783Y0057366D01*
X0088381Y0056768D02*
X0093026Y0056768D01*
X0093026Y0056169D02*
X0088980Y0056169D01*
X0098050Y0061556D02*
X0105645Y0061556D01*
X0104410Y0060957D02*
X0099284Y0060957D01*
X0099883Y0060359D02*
X0103812Y0060359D01*
X0103359Y0059760D02*
X0100335Y0059760D01*
X0100583Y0059162D02*
X0103111Y0059162D01*
X0102869Y0058563D02*
X0100826Y0058563D01*
X0100826Y0057965D02*
X0102869Y0057965D01*
X0102869Y0057366D02*
X0100826Y0057366D01*
X0100826Y0056768D02*
X0102869Y0056768D01*
X0102869Y0056169D02*
X0100826Y0056169D01*
X0100826Y0055571D02*
X0102869Y0055571D01*
X0109127Y0060957D02*
X0114253Y0060957D01*
X0113654Y0060359D02*
X0109725Y0060359D01*
X0110178Y0059760D02*
X0113202Y0059760D01*
X0112954Y0059162D02*
X0110426Y0059162D01*
X0110668Y0058563D02*
X0112711Y0058563D01*
X0112711Y0057965D02*
X0110668Y0057965D01*
X0110668Y0057366D02*
X0112711Y0057366D01*
X0112711Y0056768D02*
X0110668Y0056768D01*
X0110668Y0056169D02*
X0112711Y0056169D01*
X0112711Y0055571D02*
X0110668Y0055571D01*
X0110668Y0054972D02*
X0112711Y0054972D01*
X0112711Y0054374D02*
X0110668Y0054374D01*
X0110668Y0053775D02*
X0112711Y0053775D01*
X0112711Y0053177D02*
X0110668Y0053177D01*
X0110668Y0052578D02*
X0112187Y0052578D01*
X0111588Y0051980D02*
X0110668Y0051980D01*
X0110668Y0051381D02*
X0110990Y0051381D01*
X0112588Y0049586D02*
X0113310Y0049586D01*
X0113908Y0048987D02*
X0111990Y0048987D01*
X0111391Y0048389D02*
X0114656Y0048389D01*
X0110793Y0047790D02*
X0160079Y0047790D01*
X0161110Y0047790D02*
X0161710Y0047790D01*
X0161710Y0048389D02*
X0161110Y0048389D01*
X0161110Y0048987D02*
X0161710Y0048987D01*
X0161710Y0049586D02*
X0161110Y0049586D01*
X0161110Y0050184D02*
X0161710Y0050184D01*
X0161710Y0050783D02*
X0161110Y0050783D01*
X0161110Y0051381D02*
X0161710Y0051381D01*
X0161710Y0051980D02*
X0161110Y0051980D01*
X0161110Y0052578D02*
X0161710Y0052578D01*
X0161710Y0053177D02*
X0161110Y0053177D01*
X0161110Y0053775D02*
X0161710Y0053775D01*
X0161710Y0054374D02*
X0161110Y0054374D01*
X0161110Y0054972D02*
X0130354Y0054972D01*
X0130354Y0054374D02*
X0157110Y0054374D01*
X0157110Y0053775D02*
X0130354Y0053775D01*
X0130354Y0053177D02*
X0157110Y0053177D01*
X0157110Y0052578D02*
X0130354Y0052578D01*
X0130354Y0051980D02*
X0157110Y0051980D01*
X0157135Y0051381D02*
X0130354Y0051381D01*
X0130354Y0051024D02*
X0129760Y0049591D01*
X0128663Y0048494D01*
X0127229Y0047900D01*
X0125678Y0047900D01*
X0124244Y0048494D01*
X0123147Y0049591D01*
X0122554Y0051024D01*
X0122554Y0058576D01*
X0123147Y0060009D01*
X0124244Y0061106D01*
X0125678Y0061700D01*
X0127229Y0061700D01*
X0128663Y0061106D01*
X0129760Y0060009D01*
X0130354Y0058576D01*
X0130354Y0051024D01*
X0130253Y0050783D02*
X0157245Y0050783D01*
X0157448Y0050184D02*
X0130006Y0050184D01*
X0129755Y0049586D02*
X0157761Y0049586D01*
X0158221Y0048987D02*
X0129156Y0048987D01*
X0128409Y0048389D02*
X0158898Y0048389D01*
X0157110Y0055571D02*
X0130354Y0055571D01*
X0130354Y0056169D02*
X0157110Y0056169D01*
X0157110Y0056768D02*
X0130354Y0056768D01*
X0130354Y0057366D02*
X0157110Y0057366D01*
X0157110Y0057965D02*
X0130354Y0057965D01*
X0130354Y0058563D02*
X0157165Y0058563D01*
X0157306Y0059162D02*
X0130111Y0059162D01*
X0129863Y0059760D02*
X0157543Y0059760D01*
X0157897Y0060359D02*
X0129410Y0060359D01*
X0128812Y0060957D02*
X0158408Y0060957D01*
X0159156Y0061556D02*
X0127577Y0061556D01*
X0125330Y0061556D02*
X0117735Y0061556D01*
X0118969Y0060957D02*
X0124095Y0060957D01*
X0123497Y0060359D02*
X0119568Y0060359D01*
X0120020Y0059760D02*
X0123044Y0059760D01*
X0122796Y0059162D02*
X0120268Y0059162D01*
X0120511Y0058563D02*
X0122554Y0058563D01*
X0122554Y0057965D02*
X0120511Y0057965D01*
X0120511Y0057366D02*
X0122554Y0057366D01*
X0122554Y0056768D02*
X0120511Y0056768D01*
X0120511Y0056169D02*
X0122554Y0056169D01*
X0122554Y0055571D02*
X0120511Y0055571D01*
X0120511Y0054972D02*
X0122554Y0054972D01*
X0122554Y0054374D02*
X0120511Y0054374D01*
X0120511Y0053775D02*
X0122554Y0053775D01*
X0122554Y0053177D02*
X0120511Y0053177D01*
X0120511Y0052578D02*
X0122554Y0052578D01*
X0122554Y0051980D02*
X0120511Y0051980D01*
X0120511Y0051381D02*
X0122554Y0051381D01*
X0122654Y0050783D02*
X0120411Y0050783D01*
X0120163Y0050184D02*
X0122902Y0050184D01*
X0123152Y0049586D02*
X0119912Y0049586D01*
X0119314Y0048987D02*
X0123751Y0048987D01*
X0124498Y0048389D02*
X0118566Y0048389D01*
X0116611Y0054800D02*
X0116106Y0054800D01*
X0108625Y0047319D01*
X0107892Y0061556D02*
X0115487Y0061556D01*
X0132796Y0085804D02*
X0137127Y0085804D01*
X0151581Y0092080D02*
X0053069Y0092080D01*
X0052667Y0089087D02*
X0043900Y0089087D01*
X0043301Y0088489D02*
X0053266Y0088489D01*
X0053114Y0086095D02*
X0055660Y0086095D01*
X0056259Y0085496D02*
X0053713Y0085496D01*
X0054023Y0084898D02*
X0056857Y0084898D01*
X0057456Y0084299D02*
X0054270Y0084299D01*
X0054518Y0083701D02*
X0058054Y0083701D01*
X0058653Y0083102D02*
X0054765Y0083102D01*
X0054765Y0082504D02*
X0059251Y0082504D01*
X0059850Y0081905D02*
X0054765Y0081905D01*
X0054765Y0081307D02*
X0060448Y0081307D01*
X0061047Y0080708D02*
X0054765Y0080708D01*
X0054550Y0080110D02*
X0061645Y0080110D01*
X0062244Y0079511D02*
X0054302Y0079511D01*
X0054054Y0078913D02*
X0062842Y0078913D01*
X0063441Y0078314D02*
X0053790Y0078314D01*
X0053191Y0077716D02*
X0064039Y0077716D01*
X0064638Y0077117D02*
X0052592Y0077117D01*
X0051889Y0076519D02*
X0065236Y0076519D01*
X0065835Y0075920D02*
X0050444Y0075920D01*
X0046644Y0075920D02*
X0029334Y0075920D01*
X0029932Y0076519D02*
X0045199Y0076519D01*
X0044496Y0077117D02*
X0030531Y0077117D01*
X0031129Y0077716D02*
X0043897Y0077716D01*
X0043299Y0078314D02*
X0031728Y0078314D01*
X0032326Y0078913D02*
X0043034Y0078913D01*
X0042786Y0079511D02*
X0032925Y0079511D01*
X0033523Y0080110D02*
X0042538Y0080110D01*
X0042323Y0080708D02*
X0034122Y0080708D01*
X0034720Y0081307D02*
X0042323Y0081307D01*
X0042323Y0081905D02*
X0035319Y0081905D01*
X0035917Y0082504D02*
X0042323Y0082504D01*
X0042323Y0083102D02*
X0036516Y0083102D01*
X0037114Y0083701D02*
X0042570Y0083701D01*
X0042818Y0084299D02*
X0037713Y0084299D01*
X0038311Y0084898D02*
X0043066Y0084898D01*
X0043375Y0085496D02*
X0038910Y0085496D01*
X0039508Y0086095D02*
X0043974Y0086095D01*
X0044572Y0086693D02*
X0040107Y0086693D01*
X0040705Y0087292D02*
X0045384Y0087292D01*
X0046829Y0087890D02*
X0041304Y0087890D01*
X0039705Y0089686D02*
X0027823Y0089686D01*
X0028421Y0089087D02*
X0039107Y0089087D01*
X0038508Y0088489D02*
X0029020Y0088489D01*
X0029061Y0088447D02*
X0026660Y0090849D01*
X0025261Y0090849D01*
X0025261Y0087049D01*
X0024661Y0087049D01*
X0024661Y0086449D01*
X0020861Y0086449D01*
X0020861Y0085051D01*
X0023263Y0082649D01*
X0024661Y0082649D01*
X0024661Y0086449D01*
X0025261Y0086449D01*
X0025261Y0082649D01*
X0026660Y0082649D01*
X0029061Y0085051D01*
X0029061Y0086449D01*
X0025261Y0086449D01*
X0025261Y0087049D01*
X0029061Y0087049D01*
X0029061Y0088447D01*
X0029061Y0087890D02*
X0037910Y0087890D01*
X0037311Y0087292D02*
X0029061Y0087292D01*
X0029061Y0086095D02*
X0036114Y0086095D01*
X0035516Y0085496D02*
X0029061Y0085496D01*
X0028909Y0084898D02*
X0034917Y0084898D01*
X0034319Y0084299D02*
X0028310Y0084299D01*
X0027712Y0083701D02*
X0033720Y0083701D01*
X0033122Y0083102D02*
X0027113Y0083102D01*
X0025261Y0083102D02*
X0024661Y0083102D01*
X0024661Y0083701D02*
X0025261Y0083701D01*
X0025261Y0084299D02*
X0024661Y0084299D01*
X0024661Y0084898D02*
X0025261Y0084898D01*
X0025261Y0085496D02*
X0024661Y0085496D01*
X0024661Y0086095D02*
X0025261Y0086095D01*
X0025261Y0086693D02*
X0036713Y0086693D01*
X0032523Y0082504D02*
X0011880Y0082504D01*
X0011880Y0083102D02*
X0012810Y0083102D01*
X0012211Y0083701D02*
X0011880Y0083701D01*
X0011880Y0081905D02*
X0031925Y0081905D01*
X0031326Y0081307D02*
X0011880Y0081307D01*
X0011880Y0080708D02*
X0013123Y0080708D01*
X0012524Y0080110D02*
X0011880Y0080110D01*
X0011880Y0079511D02*
X0011926Y0079511D01*
X0014661Y0079511D02*
X0015261Y0079511D01*
X0015261Y0078913D02*
X0014661Y0078913D01*
X0014661Y0078314D02*
X0015261Y0078314D01*
X0015261Y0077716D02*
X0014661Y0077716D01*
X0014661Y0077117D02*
X0015261Y0077117D01*
X0015261Y0077049D02*
X0015261Y0080849D01*
X0016660Y0080849D01*
X0019061Y0078447D01*
X0019061Y0077049D01*
X0015261Y0077049D01*
X0015261Y0076519D02*
X0021261Y0076519D01*
X0021261Y0077117D02*
X0019061Y0077117D01*
X0019061Y0077716D02*
X0021261Y0077716D01*
X0021294Y0078314D02*
X0019061Y0078314D01*
X0018596Y0078913D02*
X0021893Y0078913D01*
X0022491Y0079511D02*
X0017997Y0079511D01*
X0017399Y0080110D02*
X0023090Y0080110D01*
X0022810Y0083102D02*
X0017113Y0083102D01*
X0017712Y0083701D02*
X0022211Y0083701D01*
X0021613Y0084299D02*
X0018310Y0084299D01*
X0018909Y0084898D02*
X0021014Y0084898D01*
X0020861Y0085496D02*
X0019061Y0085496D01*
X0019061Y0086095D02*
X0020861Y0086095D01*
X0020861Y0087049D02*
X0024661Y0087049D01*
X0024661Y0090849D01*
X0023263Y0090849D01*
X0020861Y0088447D01*
X0020861Y0087049D01*
X0020861Y0087292D02*
X0019061Y0087292D01*
X0019061Y0087049D02*
X0019061Y0088447D01*
X0016660Y0090849D01*
X0015261Y0090849D01*
X0015261Y0087049D01*
X0019061Y0087049D01*
X0019061Y0087890D02*
X0020861Y0087890D01*
X0020903Y0088489D02*
X0019020Y0088489D01*
X0018421Y0089087D02*
X0021502Y0089087D01*
X0022100Y0089686D02*
X0017823Y0089686D01*
X0017224Y0090284D02*
X0022699Y0090284D01*
X0024661Y0090284D02*
X0025261Y0090284D01*
X0025261Y0089686D02*
X0024661Y0089686D01*
X0024661Y0089087D02*
X0025261Y0089087D01*
X0025261Y0088489D02*
X0024661Y0088489D01*
X0024661Y0087890D02*
X0025261Y0087890D01*
X0025261Y0087292D02*
X0024661Y0087292D01*
X0024661Y0086693D02*
X0015261Y0086693D01*
X0015261Y0086095D02*
X0014661Y0086095D01*
X0014661Y0085496D02*
X0015261Y0085496D01*
X0015261Y0084898D02*
X0014661Y0084898D01*
X0014661Y0084299D02*
X0015261Y0084299D01*
X0015261Y0083701D02*
X0014661Y0083701D01*
X0014661Y0083102D02*
X0015261Y0083102D01*
X0015261Y0080708D02*
X0014661Y0080708D01*
X0014661Y0080110D02*
X0015261Y0080110D01*
X0016800Y0080708D02*
X0030728Y0080708D01*
X0030129Y0080110D02*
X0026833Y0080110D01*
X0027432Y0079511D02*
X0029531Y0079511D01*
X0028932Y0078913D02*
X0028030Y0078913D01*
X0028465Y0076749D02*
X0024961Y0076749D01*
X0028465Y0076749D02*
X0042113Y0090397D01*
X0039924Y0090284D02*
X0027224Y0090284D01*
X0026722Y0093277D02*
X0041736Y0093277D01*
X0041138Y0093875D02*
X0027321Y0093875D01*
X0027919Y0094474D02*
X0040539Y0094474D01*
X0039941Y0095072D02*
X0028518Y0095072D01*
X0028661Y0095671D02*
X0039342Y0095671D01*
X0038744Y0096270D02*
X0028661Y0096270D01*
X0028661Y0096868D02*
X0038145Y0096868D01*
X0037547Y0097467D02*
X0028661Y0097467D01*
X0028661Y0098065D02*
X0036948Y0098065D01*
X0036350Y0098664D02*
X0028279Y0098664D01*
X0027681Y0099262D02*
X0035751Y0099262D01*
X0035153Y0099861D02*
X0027082Y0099861D01*
X0026161Y0100459D02*
X0033155Y0100459D01*
X0032557Y0101058D02*
X0026161Y0101058D01*
X0026161Y0101656D02*
X0032182Y0101656D01*
X0032182Y0102255D02*
X0026161Y0102255D01*
X0026161Y0102853D02*
X0032182Y0102853D01*
X0032387Y0103452D02*
X0026897Y0103452D01*
X0027495Y0104050D02*
X0032986Y0104050D01*
X0034371Y0102339D02*
X0045622Y0091088D01*
X0045729Y0092678D02*
X0151581Y0092678D01*
X0151581Y0093277D02*
X0045130Y0093277D01*
X0044532Y0093875D02*
X0151581Y0093875D01*
X0151581Y0094474D02*
X0043933Y0094474D01*
X0043335Y0095072D02*
X0151581Y0095072D01*
X0151581Y0095671D02*
X0042736Y0095671D01*
X0042138Y0096270D02*
X0151581Y0096270D01*
X0151581Y0096868D02*
X0041539Y0096868D01*
X0040941Y0097467D02*
X0151581Y0097467D01*
X0151581Y0098065D02*
X0040342Y0098065D01*
X0039744Y0098664D02*
X0151581Y0098664D01*
X0151581Y0099262D02*
X0039145Y0099262D01*
X0038547Y0099861D02*
X0151581Y0099861D01*
X0151581Y0100459D02*
X0037948Y0100459D01*
X0037350Y0101058D02*
X0151581Y0101058D01*
X0151581Y0101656D02*
X0036751Y0101656D01*
X0036560Y0102255D02*
X0151581Y0102255D01*
X0151581Y0102853D02*
X0036560Y0102853D01*
X0036354Y0103452D02*
X0151581Y0103452D01*
X0151581Y0104050D02*
X0035756Y0104050D01*
X0035671Y0108418D02*
X0033858Y0108418D01*
X0032576Y0109700D01*
X0032576Y0109830D01*
X0027113Y0109830D01*
X0028661Y0108281D01*
X0028661Y0108043D01*
X0107536Y0108043D01*
X0120055Y0120562D01*
X0164786Y0120562D01*
X0164786Y0121037D01*
X0165183Y0121434D01*
X0164786Y0121831D01*
X0164786Y0124977D01*
X0165183Y0125374D01*
X0164786Y0125771D01*
X0164786Y0126144D01*
X0036053Y0126144D01*
X0028426Y0118517D01*
X0028661Y0118281D01*
X0028661Y0115216D01*
X0026494Y0113049D01*
X0023429Y0113049D01*
X0021398Y0115080D01*
X0021398Y0114254D01*
X0023421Y0112230D01*
X0033292Y0112230D01*
X0033858Y0112796D01*
X0035671Y0112796D01*
X0036954Y0111514D01*
X0036954Y0109700D01*
X0035671Y0108418D01*
X0036091Y0108838D02*
X0108332Y0108838D01*
X0108930Y0109437D02*
X0036690Y0109437D01*
X0036954Y0110035D02*
X0109529Y0110035D01*
X0110127Y0110634D02*
X0036954Y0110634D01*
X0036954Y0111232D02*
X0110726Y0111232D01*
X0111324Y0111831D02*
X0036637Y0111831D01*
X0036038Y0112429D02*
X0111923Y0112429D01*
X0112521Y0113028D02*
X0022624Y0113028D01*
X0022851Y0113626D02*
X0022025Y0113626D01*
X0022253Y0114225D02*
X0021427Y0114225D01*
X0021398Y0114823D02*
X0021654Y0114823D01*
X0020198Y0113757D02*
X0020198Y0133835D01*
X0023111Y0136749D01*
X0024961Y0136749D01*
X0026487Y0135224D01*
X0168386Y0135224D01*
X0171589Y0137194D02*
X0171986Y0137591D01*
X0171986Y0140737D01*
X0171459Y0141264D01*
X0165313Y0141264D01*
X0164786Y0140737D01*
X0164786Y0140364D01*
X0050012Y0140364D01*
X0043051Y0147325D01*
X0042780Y0147596D01*
X0171338Y0147596D01*
X0172935Y0146266D01*
X0172935Y0138487D01*
X0171946Y0137498D01*
X0171946Y0136837D01*
X0171589Y0137194D01*
X0171814Y0136968D02*
X0171946Y0136968D01*
X0171962Y0137567D02*
X0172014Y0137567D01*
X0171986Y0138165D02*
X0172613Y0138165D01*
X0172935Y0138764D02*
X0171986Y0138764D01*
X0171986Y0139362D02*
X0172935Y0139362D01*
X0172935Y0139961D02*
X0171986Y0139961D01*
X0171986Y0140559D02*
X0172935Y0140559D01*
X0172935Y0141158D02*
X0171565Y0141158D01*
X0172935Y0141756D02*
X0048619Y0141756D01*
X0048021Y0142355D02*
X0172935Y0142355D01*
X0172935Y0142953D02*
X0047422Y0142953D01*
X0046824Y0143552D02*
X0172935Y0143552D01*
X0172935Y0144150D02*
X0046225Y0144150D01*
X0045627Y0144749D02*
X0172935Y0144749D01*
X0172935Y0145347D02*
X0045028Y0145347D01*
X0044430Y0145946D02*
X0172935Y0145946D01*
X0172600Y0146544D02*
X0043831Y0146544D01*
X0043233Y0147143D02*
X0171882Y0147143D01*
X0176782Y0151931D02*
X0187495Y0151931D01*
X0187495Y0151333D02*
X0177380Y0151333D01*
X0177979Y0150734D02*
X0187495Y0150734D01*
X0187495Y0150136D02*
X0178577Y0150136D01*
X0179176Y0149537D02*
X0187495Y0149537D01*
X0187495Y0148938D02*
X0179774Y0148938D01*
X0180373Y0148340D02*
X0187495Y0148340D01*
X0187495Y0147741D02*
X0180971Y0147741D01*
X0181570Y0147143D02*
X0187495Y0147143D01*
X0187495Y0146544D02*
X0182168Y0146544D01*
X0182186Y0145946D02*
X0187495Y0145946D01*
X0187495Y0145347D02*
X0182186Y0145347D01*
X0182186Y0144749D02*
X0187495Y0144749D01*
X0187495Y0144150D02*
X0182186Y0144150D01*
X0182186Y0143552D02*
X0187495Y0143552D01*
X0187495Y0142953D02*
X0182186Y0142953D01*
X0182186Y0142355D02*
X0187495Y0142355D01*
X0187495Y0152530D02*
X0176183Y0152530D01*
X0175585Y0153128D02*
X0187495Y0153128D01*
X0187495Y0153727D02*
X0174986Y0153727D01*
X0174388Y0154325D02*
X0177524Y0154325D01*
X0176516Y0154742D02*
X0178803Y0153795D01*
X0181278Y0153795D01*
X0183564Y0154742D01*
X0185314Y0156492D01*
X0186261Y0158779D01*
X0186261Y0161254D01*
X0185314Y0163541D01*
X0183564Y0165291D01*
X0181278Y0166238D01*
X0178803Y0166238D01*
X0176516Y0165291D01*
X0174766Y0163541D01*
X0173819Y0161254D01*
X0173819Y0158779D01*
X0174766Y0156492D01*
X0176516Y0154742D01*
X0176335Y0154924D02*
X0173789Y0154924D01*
X0173191Y0155522D02*
X0175736Y0155522D01*
X0175138Y0156121D02*
X0172592Y0156121D01*
X0174672Y0156719D02*
X0052864Y0156719D01*
X0053462Y0157318D02*
X0174424Y0157318D01*
X0174176Y0157916D02*
X0053919Y0157916D01*
X0054167Y0158515D02*
X0173928Y0158515D01*
X0173819Y0159113D02*
X0054415Y0159113D01*
X0054662Y0159712D02*
X0173819Y0159712D01*
X0173819Y0160310D02*
X0054765Y0160310D01*
X0054765Y0160909D02*
X0173819Y0160909D01*
X0173924Y0161507D02*
X0054765Y0161507D01*
X0054765Y0162106D02*
X0174172Y0162106D01*
X0174420Y0162704D02*
X0054654Y0162704D01*
X0054406Y0163303D02*
X0174668Y0163303D01*
X0175127Y0163901D02*
X0054158Y0163901D01*
X0053910Y0164500D02*
X0175725Y0164500D01*
X0176324Y0165098D02*
X0053442Y0165098D01*
X0052843Y0165697D02*
X0177497Y0165697D01*
X0182584Y0165697D02*
X0187495Y0165697D01*
X0187495Y0166295D02*
X0052245Y0166295D01*
X0051049Y0166894D02*
X0187495Y0166894D01*
X0187495Y0165098D02*
X0183757Y0165098D01*
X0184355Y0164500D02*
X0187495Y0164500D01*
X0187495Y0163901D02*
X0184954Y0163901D01*
X0185413Y0163303D02*
X0187495Y0163303D01*
X0187495Y0162704D02*
X0185661Y0162704D01*
X0185909Y0162106D02*
X0187495Y0162106D01*
X0187495Y0161507D02*
X0186157Y0161507D01*
X0186261Y0160909D02*
X0187495Y0160909D01*
X0187495Y0160310D02*
X0186261Y0160310D01*
X0186261Y0159712D02*
X0187495Y0159712D01*
X0187495Y0159113D02*
X0186261Y0159113D01*
X0186152Y0158515D02*
X0187495Y0158515D01*
X0187495Y0157916D02*
X0185904Y0157916D01*
X0185656Y0157318D02*
X0187495Y0157318D01*
X0187495Y0156719D02*
X0185408Y0156719D01*
X0184942Y0156121D02*
X0187495Y0156121D01*
X0187495Y0155522D02*
X0184344Y0155522D01*
X0183745Y0154924D02*
X0187495Y0154924D01*
X0187495Y0154325D02*
X0182557Y0154325D01*
X0168386Y0139164D02*
X0049515Y0139164D01*
X0041851Y0146828D01*
X0025040Y0146828D01*
X0024961Y0146749D01*
X0022327Y0144150D02*
X0021880Y0144150D01*
X0021880Y0144597D02*
X0023429Y0143049D01*
X0026494Y0143049D01*
X0028661Y0145216D01*
X0028661Y0145628D01*
X0041354Y0145628D01*
X0049018Y0137964D01*
X0164786Y0137964D01*
X0164786Y0137591D01*
X0165183Y0137194D01*
X0164786Y0136796D01*
X0164786Y0136424D01*
X0028661Y0136424D01*
X0028661Y0138281D01*
X0026494Y0140449D01*
X0023429Y0140449D01*
X0021261Y0138281D01*
X0021261Y0136596D01*
X0019701Y0135035D01*
X0019701Y0135035D01*
X0018998Y0134332D01*
X0018998Y0113260D01*
X0019701Y0112557D01*
X0021754Y0110504D01*
X0022456Y0109801D01*
X0022781Y0109801D01*
X0021261Y0108281D01*
X0021261Y0105216D01*
X0023429Y0103049D01*
X0023761Y0103049D01*
X0023761Y0100449D01*
X0023429Y0100449D01*
X0021261Y0098281D01*
X0021261Y0097949D01*
X0018661Y0097949D01*
X0018661Y0098281D01*
X0016494Y0100449D01*
X0013429Y0100449D01*
X0011880Y0098900D01*
X0011880Y0104597D01*
X0013429Y0103049D01*
X0016494Y0103049D01*
X0018661Y0105216D01*
X0018661Y0108281D01*
X0016494Y0110449D01*
X0013429Y0110449D01*
X0011880Y0108900D01*
X0011880Y0114597D01*
X0013429Y0113049D01*
X0016494Y0113049D01*
X0018661Y0115216D01*
X0018661Y0118281D01*
X0016494Y0120449D01*
X0013429Y0120449D01*
X0011880Y0118900D01*
X0011880Y0124597D01*
X0013429Y0123049D01*
X0016494Y0123049D01*
X0018661Y0125216D01*
X0018661Y0128281D01*
X0016494Y0130449D01*
X0014304Y0130449D01*
X0016161Y0132306D01*
X0016161Y0133049D01*
X0016494Y0133049D01*
X0018661Y0135216D01*
X0018661Y0138281D01*
X0018426Y0138517D01*
X0021177Y0141268D01*
X0021880Y0141971D01*
X0021880Y0144597D01*
X0021880Y0143552D02*
X0022926Y0143552D01*
X0021880Y0142953D02*
X0044028Y0142953D01*
X0044627Y0142355D02*
X0021880Y0142355D01*
X0021666Y0141756D02*
X0045225Y0141756D01*
X0045824Y0141158D02*
X0021067Y0141158D01*
X0020469Y0140559D02*
X0046422Y0140559D01*
X0047021Y0139961D02*
X0026982Y0139961D01*
X0027580Y0139362D02*
X0047619Y0139362D01*
X0048218Y0138764D02*
X0028179Y0138764D01*
X0028661Y0138165D02*
X0048816Y0138165D01*
X0046576Y0138954D02*
X0043426Y0138954D01*
X0049218Y0141158D02*
X0165207Y0141158D01*
X0164786Y0140559D02*
X0049816Y0140559D01*
X0043430Y0143552D02*
X0026997Y0143552D01*
X0027596Y0144150D02*
X0042831Y0144150D01*
X0042233Y0144749D02*
X0028194Y0144749D01*
X0028661Y0145347D02*
X0041634Y0145347D01*
X0043671Y0151333D02*
X0028129Y0151333D01*
X0027531Y0151931D02*
X0043073Y0151931D01*
X0044671Y0153727D02*
X0052417Y0153727D01*
X0053015Y0154325D02*
X0044073Y0154325D01*
X0044224Y0156719D02*
X0002900Y0156719D01*
X0002900Y0156121D02*
X0022636Y0156121D01*
X0022038Y0155522D02*
X0002900Y0155522D01*
X0002900Y0154924D02*
X0021439Y0154924D01*
X0020841Y0154325D02*
X0002900Y0154325D01*
X0002900Y0153727D02*
X0020242Y0153727D01*
X0019644Y0153128D02*
X0002900Y0153128D01*
X0002900Y0152530D02*
X0019045Y0152530D01*
X0018447Y0151931D02*
X0002900Y0151931D01*
X0002900Y0151333D02*
X0017848Y0151333D01*
X0017250Y0150734D02*
X0002900Y0150734D01*
X0002900Y0150136D02*
X0013469Y0150136D01*
X0016454Y0150136D02*
X0016651Y0150136D01*
X0018870Y0142355D02*
X0002900Y0142355D01*
X0002900Y0141756D02*
X0018272Y0141756D01*
X0017673Y0141158D02*
X0002900Y0141158D01*
X0002900Y0140559D02*
X0017075Y0140559D01*
X0018673Y0138764D02*
X0021744Y0138764D01*
X0021261Y0138165D02*
X0018661Y0138165D01*
X0018661Y0137567D02*
X0021261Y0137567D01*
X0021261Y0136968D02*
X0018661Y0136968D01*
X0018661Y0136370D02*
X0021035Y0136370D01*
X0020436Y0135771D02*
X0018661Y0135771D01*
X0018618Y0135173D02*
X0019838Y0135173D01*
X0019239Y0134574D02*
X0018019Y0134574D01*
X0017421Y0133976D02*
X0018998Y0133976D01*
X0018998Y0133377D02*
X0016822Y0133377D01*
X0016161Y0132779D02*
X0018998Y0132779D01*
X0018998Y0132180D02*
X0016035Y0132180D01*
X0015437Y0131582D02*
X0018998Y0131582D01*
X0018998Y0130983D02*
X0014838Y0130983D01*
X0016558Y0130385D02*
X0018998Y0130385D01*
X0018998Y0129786D02*
X0017157Y0129786D01*
X0017755Y0129188D02*
X0018998Y0129188D01*
X0018998Y0128589D02*
X0018354Y0128589D01*
X0018661Y0127991D02*
X0018998Y0127991D01*
X0018998Y0127392D02*
X0018661Y0127392D01*
X0018661Y0126794D02*
X0018998Y0126794D01*
X0018998Y0126195D02*
X0018661Y0126195D01*
X0018661Y0125597D02*
X0018998Y0125597D01*
X0018998Y0124998D02*
X0018443Y0124998D01*
X0018998Y0124400D02*
X0017845Y0124400D01*
X0017246Y0123801D02*
X0018998Y0123801D01*
X0018998Y0123203D02*
X0016648Y0123203D01*
X0018998Y0122604D02*
X0011880Y0122604D01*
X0011880Y0123203D02*
X0013275Y0123203D01*
X0012677Y0123801D02*
X0011880Y0123801D01*
X0011880Y0124400D02*
X0012078Y0124400D01*
X0011880Y0122005D02*
X0018998Y0122005D01*
X0018998Y0121407D02*
X0011880Y0121407D01*
X0011880Y0120808D02*
X0018998Y0120808D01*
X0018998Y0120210D02*
X0016733Y0120210D01*
X0017331Y0119611D02*
X0018998Y0119611D01*
X0018998Y0119013D02*
X0017930Y0119013D01*
X0018528Y0118414D02*
X0018998Y0118414D01*
X0018998Y0117816D02*
X0018661Y0117816D01*
X0018661Y0117217D02*
X0018998Y0117217D01*
X0018998Y0116619D02*
X0018661Y0116619D01*
X0018661Y0116020D02*
X0018998Y0116020D01*
X0018998Y0115422D02*
X0018661Y0115422D01*
X0018998Y0114823D02*
X0018269Y0114823D01*
X0017670Y0114225D02*
X0018998Y0114225D01*
X0018998Y0113626D02*
X0017072Y0113626D01*
X0019229Y0113028D02*
X0011880Y0113028D01*
X0011880Y0113626D02*
X0012851Y0113626D01*
X0012253Y0114225D02*
X0011880Y0114225D01*
X0011880Y0112429D02*
X0019828Y0112429D01*
X0020426Y0111831D02*
X0011880Y0111831D01*
X0011880Y0111232D02*
X0021025Y0111232D01*
X0021623Y0110634D02*
X0011880Y0110634D01*
X0011880Y0110035D02*
X0013015Y0110035D01*
X0012417Y0109437D02*
X0011880Y0109437D01*
X0009480Y0109437D02*
X0002900Y0109437D01*
X0002900Y0110035D02*
X0009480Y0110035D01*
X0009480Y0110634D02*
X0002900Y0110634D01*
X0002900Y0111232D02*
X0009480Y0111232D01*
X0009480Y0111831D02*
X0002900Y0111831D01*
X0002900Y0112429D02*
X0009480Y0112429D01*
X0009480Y0113028D02*
X0002900Y0113028D01*
X0002900Y0113626D02*
X0009480Y0113626D01*
X0009480Y0114225D02*
X0002900Y0114225D01*
X0002900Y0114823D02*
X0009480Y0114823D01*
X0009480Y0115422D02*
X0002900Y0115422D01*
X0002900Y0116020D02*
X0009480Y0116020D01*
X0009480Y0116619D02*
X0002900Y0116619D01*
X0002900Y0117217D02*
X0009480Y0117217D01*
X0009480Y0117816D02*
X0002900Y0117816D01*
X0002900Y0118414D02*
X0009480Y0118414D01*
X0009480Y0119013D02*
X0002900Y0119013D01*
X0002900Y0119611D02*
X0009480Y0119611D01*
X0009480Y0120210D02*
X0002900Y0120210D01*
X0002900Y0120808D02*
X0009480Y0120808D01*
X0009480Y0121407D02*
X0002900Y0121407D01*
X0002900Y0122005D02*
X0009480Y0122005D01*
X0009480Y0122604D02*
X0002900Y0122604D01*
X0002900Y0123203D02*
X0009480Y0123203D01*
X0009480Y0123801D02*
X0002900Y0123801D01*
X0002900Y0124400D02*
X0009480Y0124400D01*
X0009480Y0124998D02*
X0002900Y0124998D01*
X0002900Y0125597D02*
X0009480Y0125597D01*
X0009480Y0126195D02*
X0002900Y0126195D01*
X0002900Y0126794D02*
X0009480Y0126794D01*
X0009480Y0127392D02*
X0002900Y0127392D01*
X0002900Y0127991D02*
X0009480Y0127991D01*
X0009480Y0128589D02*
X0002900Y0128589D01*
X0002900Y0129188D02*
X0009649Y0129188D01*
X0010247Y0129786D02*
X0002900Y0129786D01*
X0002900Y0130385D02*
X0010846Y0130385D01*
X0011444Y0130983D02*
X0002900Y0130983D01*
X0002900Y0131582D02*
X0012043Y0131582D01*
X0012641Y0132180D02*
X0002900Y0132180D01*
X0002900Y0132779D02*
X0013240Y0132779D01*
X0013100Y0133377D02*
X0002900Y0133377D01*
X0002900Y0133976D02*
X0012502Y0133976D01*
X0011903Y0134574D02*
X0002900Y0134574D01*
X0002900Y0135173D02*
X0011305Y0135173D01*
X0011261Y0135771D02*
X0002900Y0135771D01*
X0002900Y0136370D02*
X0011261Y0136370D01*
X0011261Y0136968D02*
X0002900Y0136968D01*
X0002900Y0137567D02*
X0011261Y0137567D01*
X0011261Y0138165D02*
X0002900Y0138165D01*
X0002900Y0138764D02*
X0011744Y0138764D01*
X0012342Y0139362D02*
X0002900Y0139362D01*
X0002900Y0139961D02*
X0012941Y0139961D01*
X0019272Y0139362D02*
X0022342Y0139362D01*
X0022941Y0139961D02*
X0019870Y0139961D01*
X0028661Y0137567D02*
X0164810Y0137567D01*
X0164958Y0136968D02*
X0028661Y0136968D01*
X0029496Y0131284D02*
X0024961Y0126749D01*
X0029496Y0131284D02*
X0168386Y0131284D01*
X0168386Y0127344D02*
X0035556Y0127344D01*
X0024961Y0116749D01*
X0028661Y0116619D02*
X0116112Y0116619D01*
X0115514Y0116020D02*
X0028661Y0116020D01*
X0028661Y0115422D02*
X0114915Y0115422D01*
X0114317Y0114823D02*
X0028269Y0114823D01*
X0027670Y0114225D02*
X0113718Y0114225D01*
X0113120Y0113626D02*
X0027072Y0113626D01*
X0028661Y0117217D02*
X0116711Y0117217D01*
X0117309Y0117816D02*
X0028661Y0117816D01*
X0028528Y0118414D02*
X0117908Y0118414D01*
X0118506Y0119013D02*
X0028923Y0119013D01*
X0029521Y0119611D02*
X0119105Y0119611D01*
X0119703Y0120210D02*
X0030120Y0120210D01*
X0030718Y0120808D02*
X0164786Y0120808D01*
X0165156Y0121407D02*
X0031317Y0121407D01*
X0031915Y0122005D02*
X0164786Y0122005D01*
X0164786Y0122604D02*
X0032514Y0122604D01*
X0033112Y0123203D02*
X0164786Y0123203D01*
X0164786Y0123801D02*
X0033711Y0123801D01*
X0034309Y0124400D02*
X0164786Y0124400D01*
X0164807Y0124998D02*
X0034908Y0124998D01*
X0035506Y0125597D02*
X0164960Y0125597D01*
X0174135Y0126355D02*
X0175123Y0127344D01*
X0180986Y0127344D01*
X0180388Y0130686D02*
X0174135Y0130686D01*
X0180388Y0130686D02*
X0180986Y0131284D01*
X0180986Y0123404D02*
X0175384Y0123404D01*
X0175365Y0123385D01*
X0175102Y0123385D01*
X0174135Y0122418D01*
X0175381Y0119464D02*
X0180986Y0119464D01*
X0154711Y0117816D02*
X0120968Y0117816D01*
X0120370Y0117217D02*
X0154112Y0117217D01*
X0153514Y0116619D02*
X0119771Y0116619D01*
X0119173Y0116020D02*
X0152915Y0116020D01*
X0152317Y0115422D02*
X0118574Y0115422D01*
X0117976Y0114823D02*
X0151718Y0114823D01*
X0151581Y0114225D02*
X0117377Y0114225D01*
X0116779Y0113626D02*
X0151581Y0113626D01*
X0151581Y0113028D02*
X0116180Y0113028D01*
X0115582Y0112429D02*
X0151581Y0112429D01*
X0151581Y0111831D02*
X0114983Y0111831D01*
X0114385Y0111232D02*
X0151581Y0111232D01*
X0151581Y0110634D02*
X0113786Y0110634D01*
X0113188Y0110035D02*
X0151581Y0110035D01*
X0151581Y0109437D02*
X0112589Y0109437D01*
X0111991Y0108838D02*
X0151581Y0108838D01*
X0151581Y0108240D02*
X0111392Y0108240D01*
X0110794Y0107641D02*
X0151581Y0107641D01*
X0151581Y0107043D02*
X0110195Y0107043D01*
X0109597Y0106444D02*
X0151581Y0106444D01*
X0151581Y0105846D02*
X0108998Y0105846D01*
X0107733Y0108240D02*
X0028661Y0108240D01*
X0028105Y0108838D02*
X0033438Y0108838D01*
X0032839Y0109437D02*
X0027506Y0109437D01*
X0024961Y0106749D02*
X0024961Y0096749D01*
X0014961Y0096749D01*
X0012602Y0093875D02*
X0011880Y0093875D01*
X0011880Y0093277D02*
X0013201Y0093277D01*
X0011880Y0092678D02*
X0042335Y0092678D01*
X0040701Y0092080D02*
X0011880Y0092080D01*
X0011880Y0091481D02*
X0040102Y0091481D01*
X0039924Y0090883D02*
X0011880Y0090883D01*
X0011880Y0090284D02*
X0012699Y0090284D01*
X0012100Y0089686D02*
X0011880Y0089686D01*
X0014661Y0089686D02*
X0015261Y0089686D01*
X0015261Y0090284D02*
X0014661Y0090284D01*
X0014661Y0089087D02*
X0015261Y0089087D01*
X0015261Y0088489D02*
X0014661Y0088489D01*
X0014661Y0087890D02*
X0015261Y0087890D01*
X0015261Y0087292D02*
X0014661Y0087292D01*
X0009480Y0087292D02*
X0002900Y0087292D01*
X0002900Y0087890D02*
X0009480Y0087890D01*
X0009480Y0088489D02*
X0002900Y0088489D01*
X0002900Y0089087D02*
X0009480Y0089087D01*
X0009480Y0089686D02*
X0002900Y0089686D01*
X0002900Y0090284D02*
X0009480Y0090284D01*
X0009480Y0090883D02*
X0002900Y0090883D01*
X0002900Y0091481D02*
X0009480Y0091481D01*
X0009480Y0092080D02*
X0002900Y0092080D01*
X0002900Y0092678D02*
X0009480Y0092678D01*
X0009480Y0093277D02*
X0002900Y0093277D01*
X0002900Y0093875D02*
X0009480Y0093875D01*
X0009480Y0094474D02*
X0002900Y0094474D01*
X0002900Y0095072D02*
X0009480Y0095072D01*
X0009480Y0095671D02*
X0002900Y0095671D01*
X0002900Y0096270D02*
X0009480Y0096270D01*
X0009480Y0096868D02*
X0002900Y0096868D01*
X0002900Y0097467D02*
X0009480Y0097467D01*
X0009480Y0098065D02*
X0002900Y0098065D01*
X0002900Y0098664D02*
X0009480Y0098664D01*
X0009480Y0099262D02*
X0002900Y0099262D01*
X0002900Y0099861D02*
X0009480Y0099861D01*
X0009480Y0100459D02*
X0002900Y0100459D01*
X0002900Y0101058D02*
X0009480Y0101058D01*
X0009480Y0101656D02*
X0002900Y0101656D01*
X0002900Y0102255D02*
X0009480Y0102255D01*
X0009480Y0102853D02*
X0002900Y0102853D01*
X0002900Y0103452D02*
X0009480Y0103452D01*
X0009480Y0104050D02*
X0002900Y0104050D01*
X0002900Y0104649D02*
X0009480Y0104649D01*
X0009480Y0105247D02*
X0002900Y0105247D01*
X0002900Y0105846D02*
X0009480Y0105846D01*
X0009480Y0106444D02*
X0002900Y0106444D01*
X0002900Y0107043D02*
X0009480Y0107043D01*
X0009480Y0107641D02*
X0002900Y0107641D01*
X0002900Y0108240D02*
X0009480Y0108240D01*
X0009480Y0108838D02*
X0002900Y0108838D01*
X0011880Y0104050D02*
X0012427Y0104050D01*
X0011880Y0103452D02*
X0013026Y0103452D01*
X0011880Y0102853D02*
X0023761Y0102853D01*
X0023761Y0102255D02*
X0011880Y0102255D01*
X0011880Y0101656D02*
X0023761Y0101656D01*
X0023761Y0101058D02*
X0011880Y0101058D01*
X0011880Y0100459D02*
X0023761Y0100459D01*
X0022841Y0099861D02*
X0017082Y0099861D01*
X0017681Y0099262D02*
X0022242Y0099262D01*
X0021644Y0098664D02*
X0018279Y0098664D01*
X0018661Y0098065D02*
X0021261Y0098065D01*
X0021405Y0095072D02*
X0018518Y0095072D01*
X0017919Y0094474D02*
X0022004Y0094474D01*
X0022602Y0093875D02*
X0017321Y0093875D01*
X0016722Y0093277D02*
X0023201Y0093277D01*
X0012004Y0094474D02*
X0011880Y0094474D01*
X0011880Y0099262D02*
X0012242Y0099262D01*
X0011880Y0099861D02*
X0012841Y0099861D01*
X0016897Y0103452D02*
X0023026Y0103452D01*
X0022427Y0104050D02*
X0017495Y0104050D01*
X0018094Y0104649D02*
X0021829Y0104649D01*
X0021261Y0105247D02*
X0018661Y0105247D01*
X0018661Y0105846D02*
X0021261Y0105846D01*
X0021261Y0106444D02*
X0018661Y0106444D01*
X0018661Y0107043D02*
X0021261Y0107043D01*
X0021261Y0107641D02*
X0018661Y0107641D01*
X0018661Y0108240D02*
X0021261Y0108240D01*
X0021818Y0108838D02*
X0018105Y0108838D01*
X0017506Y0109437D02*
X0022417Y0109437D01*
X0022222Y0110035D02*
X0016908Y0110035D01*
X0020198Y0113757D02*
X0022954Y0111001D01*
X0023159Y0111001D01*
X0023188Y0111030D01*
X0034342Y0111030D01*
X0034765Y0110607D01*
X0033491Y0112429D02*
X0023222Y0112429D01*
X0028661Y0105247D02*
X0151581Y0105247D01*
X0151581Y0104649D02*
X0028094Y0104649D01*
X0011993Y0119013D02*
X0011880Y0119013D01*
X0011880Y0119611D02*
X0012591Y0119611D01*
X0013190Y0120210D02*
X0011880Y0120210D01*
X0009480Y0086693D02*
X0002900Y0086693D01*
X0002900Y0086095D02*
X0009480Y0086095D01*
X0009480Y0085496D02*
X0002900Y0085496D01*
X0002900Y0084898D02*
X0009480Y0084898D01*
X0009480Y0084299D02*
X0002900Y0084299D01*
X0002900Y0083701D02*
X0009480Y0083701D01*
X0009480Y0083102D02*
X0002900Y0083102D01*
X0002900Y0082504D02*
X0009480Y0082504D01*
X0009480Y0081905D02*
X0002900Y0081905D01*
X0002900Y0081307D02*
X0009480Y0081307D01*
X0009480Y0080708D02*
X0002900Y0080708D01*
X0002900Y0080110D02*
X0009480Y0080110D01*
X0009480Y0079511D02*
X0002900Y0079511D01*
X0002900Y0078913D02*
X0009480Y0078913D01*
X0009480Y0078314D02*
X0002900Y0078314D01*
X0002900Y0077716D02*
X0009480Y0077716D01*
X0009480Y0077117D02*
X0002900Y0077117D01*
X0002900Y0076519D02*
X0009480Y0076519D01*
X0009480Y0075920D02*
X0002900Y0075920D01*
X0002900Y0075322D02*
X0009480Y0075322D01*
X0009480Y0074723D02*
X0002900Y0074723D01*
X0002900Y0074125D02*
X0009480Y0074125D01*
X0009480Y0073526D02*
X0002900Y0073526D01*
X0002900Y0072928D02*
X0009480Y0072928D01*
X0009480Y0072329D02*
X0002900Y0072329D01*
X0002900Y0071731D02*
X0009480Y0071731D01*
X0009480Y0071132D02*
X0002900Y0071132D01*
X0002900Y0070534D02*
X0009480Y0070534D01*
X0009480Y0069935D02*
X0002900Y0069935D01*
X0002900Y0069336D02*
X0009480Y0069336D01*
X0009480Y0068738D02*
X0002900Y0068738D01*
X0002900Y0068139D02*
X0009480Y0068139D01*
X0009480Y0067541D02*
X0002900Y0067541D01*
X0002900Y0066942D02*
X0009480Y0066942D01*
X0009480Y0066344D02*
X0002900Y0066344D01*
X0002900Y0065745D02*
X0009480Y0065745D01*
X0009480Y0065147D02*
X0002900Y0065147D01*
X0002900Y0064548D02*
X0009480Y0064548D01*
X0009480Y0063950D02*
X0002900Y0063950D01*
X0002900Y0063351D02*
X0009480Y0063351D01*
X0009480Y0062753D02*
X0002900Y0062753D01*
X0002900Y0062154D02*
X0009480Y0062154D01*
X0009480Y0061556D02*
X0002900Y0061556D01*
X0002900Y0060957D02*
X0009480Y0060957D01*
X0009480Y0060359D02*
X0002900Y0060359D01*
X0002900Y0059760D02*
X0009480Y0059760D01*
X0009480Y0059162D02*
X0002900Y0059162D01*
X0002900Y0058563D02*
X0009480Y0058563D01*
X0009480Y0057965D02*
X0002900Y0057965D01*
X0002900Y0057366D02*
X0009480Y0057366D01*
X0009480Y0056768D02*
X0002900Y0056768D01*
X0002900Y0056169D02*
X0009480Y0056169D01*
X0009480Y0055571D02*
X0002900Y0055571D01*
X0002900Y0054972D02*
X0009480Y0054972D01*
X0009585Y0054374D02*
X0002900Y0054374D01*
X0002900Y0053775D02*
X0010184Y0053775D01*
X0010183Y0053776D02*
X0010183Y0053776D01*
X0010782Y0053177D02*
X0002900Y0053177D01*
X0002900Y0052578D02*
X0011381Y0052578D01*
X0011979Y0051980D02*
X0002900Y0051980D01*
X0002900Y0051381D02*
X0012578Y0051381D01*
X0013176Y0050783D02*
X0002900Y0050783D01*
X0002900Y0050184D02*
X0013775Y0050184D01*
X0014373Y0049586D02*
X0002900Y0049586D01*
X0002900Y0048987D02*
X0014972Y0048987D01*
X0015570Y0048389D02*
X0002900Y0048389D01*
X0002900Y0047790D02*
X0047583Y0047790D01*
X0048181Y0047192D02*
X0002900Y0047192D01*
X0002900Y0046593D02*
X0048780Y0046593D01*
X0049751Y0047319D02*
X0047880Y0049190D01*
X0049751Y0047319D02*
X0053969Y0047319D01*
X0071221Y0070534D02*
X0011880Y0070534D01*
X0011880Y0071132D02*
X0070623Y0071132D01*
X0070024Y0071731D02*
X0011880Y0071731D01*
X0011880Y0072329D02*
X0069426Y0072329D01*
X0068827Y0072928D02*
X0016938Y0072928D01*
X0017537Y0073526D02*
X0022952Y0073526D01*
X0022353Y0074125D02*
X0018135Y0074125D01*
X0018734Y0074723D02*
X0021755Y0074723D01*
X0021261Y0075322D02*
X0019061Y0075322D01*
X0019061Y0075920D02*
X0021261Y0075920D01*
X0015261Y0075920D02*
X0014661Y0075920D01*
X0014661Y0075322D02*
X0015261Y0075322D01*
X0015261Y0074723D02*
X0014661Y0074723D01*
X0014661Y0074125D02*
X0015261Y0074125D01*
X0015261Y0073526D02*
X0014661Y0073526D01*
X0014661Y0072928D02*
X0015261Y0072928D01*
X0012984Y0072928D02*
X0011880Y0072928D01*
X0011880Y0073526D02*
X0012386Y0073526D01*
X0011880Y0069935D02*
X0012915Y0069935D01*
X0012317Y0069336D02*
X0011880Y0069336D01*
X0017008Y0069935D02*
X0022915Y0069935D01*
X0026971Y0073526D02*
X0068229Y0073526D01*
X0067630Y0074125D02*
X0027570Y0074125D01*
X0028168Y0074723D02*
X0067032Y0074723D01*
X0066433Y0075322D02*
X0028661Y0075322D01*
X0013126Y0063351D02*
X0011880Y0063351D01*
X0011880Y0063950D02*
X0012528Y0063950D01*
X0011929Y0064548D02*
X0011880Y0064548D01*
X0093426Y0099583D02*
X0093426Y0104308D01*
X0093032Y0112182D02*
X0093032Y0116119D01*
X0092639Y0144072D02*
X0098544Y0144072D01*
X0096969Y0151946D02*
X0092639Y0151946D01*
X0046039Y0166894D02*
X0002900Y0166894D01*
X0002900Y0166295D02*
X0044844Y0166295D01*
X0044245Y0165697D02*
X0002900Y0165697D01*
X0002900Y0165098D02*
X0043647Y0165098D01*
X0043178Y0164500D02*
X0002900Y0164500D01*
X0002900Y0163901D02*
X0042930Y0163901D01*
X0042682Y0163303D02*
X0002900Y0163303D01*
X0002900Y0162704D02*
X0042434Y0162704D01*
X0042323Y0162106D02*
X0002900Y0162106D01*
X0002900Y0161507D02*
X0042323Y0161507D01*
X0042323Y0160909D02*
X0002900Y0160909D01*
X0002900Y0160310D02*
X0042323Y0160310D01*
X0042426Y0159712D02*
X0002900Y0159712D01*
X0002900Y0159113D02*
X0042674Y0159113D01*
X0042922Y0158515D02*
X0002900Y0158515D01*
X0002900Y0157916D02*
X0043169Y0157916D01*
X0043626Y0157318D02*
X0002900Y0157318D01*
D11*
X0043623Y0161198D02*
X0043625Y0161338D01*
X0043631Y0161478D01*
X0043641Y0161617D01*
X0043655Y0161756D01*
X0043673Y0161895D01*
X0043694Y0162033D01*
X0043720Y0162171D01*
X0043750Y0162308D01*
X0043783Y0162443D01*
X0043821Y0162578D01*
X0043862Y0162712D01*
X0043907Y0162845D01*
X0043955Y0162976D01*
X0044008Y0163105D01*
X0044064Y0163234D01*
X0044123Y0163360D01*
X0044187Y0163485D01*
X0044253Y0163608D01*
X0044324Y0163729D01*
X0044397Y0163848D01*
X0044474Y0163965D01*
X0044555Y0164079D01*
X0044638Y0164191D01*
X0044725Y0164301D01*
X0044815Y0164409D01*
X0044907Y0164513D01*
X0045003Y0164615D01*
X0045102Y0164715D01*
X0045203Y0164811D01*
X0045307Y0164905D01*
X0045414Y0164995D01*
X0045523Y0165082D01*
X0045635Y0165167D01*
X0045749Y0165248D01*
X0045865Y0165326D01*
X0045983Y0165400D01*
X0046104Y0165471D01*
X0046226Y0165539D01*
X0046351Y0165603D01*
X0046477Y0165664D01*
X0046604Y0165721D01*
X0046734Y0165774D01*
X0046865Y0165824D01*
X0046997Y0165869D01*
X0047130Y0165912D01*
X0047265Y0165950D01*
X0047400Y0165984D01*
X0047537Y0166015D01*
X0047674Y0166042D01*
X0047812Y0166064D01*
X0047951Y0166083D01*
X0048090Y0166098D01*
X0048229Y0166109D01*
X0048369Y0166116D01*
X0048509Y0166119D01*
X0048649Y0166118D01*
X0048789Y0166113D01*
X0048928Y0166104D01*
X0049068Y0166091D01*
X0049207Y0166074D01*
X0049345Y0166053D01*
X0049483Y0166029D01*
X0049620Y0166000D01*
X0049756Y0165968D01*
X0049891Y0165931D01*
X0050025Y0165891D01*
X0050158Y0165847D01*
X0050289Y0165799D01*
X0050419Y0165748D01*
X0050548Y0165693D01*
X0050675Y0165634D01*
X0050800Y0165571D01*
X0050923Y0165506D01*
X0051045Y0165436D01*
X0051164Y0165363D01*
X0051282Y0165287D01*
X0051397Y0165208D01*
X0051510Y0165125D01*
X0051620Y0165039D01*
X0051728Y0164950D01*
X0051833Y0164858D01*
X0051936Y0164763D01*
X0052036Y0164665D01*
X0052133Y0164565D01*
X0052227Y0164461D01*
X0052319Y0164355D01*
X0052407Y0164247D01*
X0052492Y0164136D01*
X0052574Y0164022D01*
X0052653Y0163906D01*
X0052728Y0163789D01*
X0052800Y0163669D01*
X0052868Y0163547D01*
X0052933Y0163423D01*
X0052995Y0163297D01*
X0053053Y0163170D01*
X0053107Y0163041D01*
X0053158Y0162910D01*
X0053204Y0162778D01*
X0053247Y0162645D01*
X0053287Y0162511D01*
X0053322Y0162376D01*
X0053354Y0162239D01*
X0053381Y0162102D01*
X0053405Y0161964D01*
X0053425Y0161826D01*
X0053441Y0161687D01*
X0053453Y0161547D01*
X0053461Y0161408D01*
X0053465Y0161268D01*
X0053465Y0161128D01*
X0053461Y0160988D01*
X0053453Y0160849D01*
X0053441Y0160709D01*
X0053425Y0160570D01*
X0053405Y0160432D01*
X0053381Y0160294D01*
X0053354Y0160157D01*
X0053322Y0160020D01*
X0053287Y0159885D01*
X0053247Y0159751D01*
X0053204Y0159618D01*
X0053158Y0159486D01*
X0053107Y0159355D01*
X0053053Y0159226D01*
X0052995Y0159099D01*
X0052933Y0158973D01*
X0052868Y0158849D01*
X0052800Y0158727D01*
X0052728Y0158607D01*
X0052653Y0158490D01*
X0052574Y0158374D01*
X0052492Y0158260D01*
X0052407Y0158149D01*
X0052319Y0158041D01*
X0052227Y0157935D01*
X0052133Y0157831D01*
X0052036Y0157731D01*
X0051936Y0157633D01*
X0051833Y0157538D01*
X0051728Y0157446D01*
X0051620Y0157357D01*
X0051510Y0157271D01*
X0051397Y0157188D01*
X0051282Y0157109D01*
X0051164Y0157033D01*
X0051045Y0156960D01*
X0050923Y0156890D01*
X0050800Y0156825D01*
X0050675Y0156762D01*
X0050548Y0156703D01*
X0050419Y0156648D01*
X0050289Y0156597D01*
X0050158Y0156549D01*
X0050025Y0156505D01*
X0049891Y0156465D01*
X0049756Y0156428D01*
X0049620Y0156396D01*
X0049483Y0156367D01*
X0049345Y0156343D01*
X0049207Y0156322D01*
X0049068Y0156305D01*
X0048928Y0156292D01*
X0048789Y0156283D01*
X0048649Y0156278D01*
X0048509Y0156277D01*
X0048369Y0156280D01*
X0048229Y0156287D01*
X0048090Y0156298D01*
X0047951Y0156313D01*
X0047812Y0156332D01*
X0047674Y0156354D01*
X0047537Y0156381D01*
X0047400Y0156412D01*
X0047265Y0156446D01*
X0047130Y0156484D01*
X0046997Y0156527D01*
X0046865Y0156572D01*
X0046734Y0156622D01*
X0046604Y0156675D01*
X0046477Y0156732D01*
X0046351Y0156793D01*
X0046226Y0156857D01*
X0046104Y0156925D01*
X0045983Y0156996D01*
X0045865Y0157070D01*
X0045749Y0157148D01*
X0045635Y0157229D01*
X0045523Y0157314D01*
X0045414Y0157401D01*
X0045307Y0157491D01*
X0045203Y0157585D01*
X0045102Y0157681D01*
X0045003Y0157781D01*
X0044907Y0157883D01*
X0044815Y0157987D01*
X0044725Y0158095D01*
X0044638Y0158205D01*
X0044555Y0158317D01*
X0044474Y0158431D01*
X0044397Y0158548D01*
X0044324Y0158667D01*
X0044253Y0158788D01*
X0044187Y0158911D01*
X0044123Y0159036D01*
X0044064Y0159162D01*
X0044008Y0159291D01*
X0043955Y0159420D01*
X0043907Y0159551D01*
X0043862Y0159684D01*
X0043821Y0159818D01*
X0043783Y0159953D01*
X0043750Y0160088D01*
X0043720Y0160225D01*
X0043694Y0160363D01*
X0043673Y0160501D01*
X0043655Y0160640D01*
X0043641Y0160779D01*
X0043631Y0160918D01*
X0043625Y0161058D01*
X0043623Y0161198D01*
X0043623Y0081867D02*
X0043625Y0082007D01*
X0043631Y0082147D01*
X0043641Y0082286D01*
X0043655Y0082425D01*
X0043673Y0082564D01*
X0043694Y0082702D01*
X0043720Y0082840D01*
X0043750Y0082977D01*
X0043783Y0083112D01*
X0043821Y0083247D01*
X0043862Y0083381D01*
X0043907Y0083514D01*
X0043955Y0083645D01*
X0044008Y0083774D01*
X0044064Y0083903D01*
X0044123Y0084029D01*
X0044187Y0084154D01*
X0044253Y0084277D01*
X0044324Y0084398D01*
X0044397Y0084517D01*
X0044474Y0084634D01*
X0044555Y0084748D01*
X0044638Y0084860D01*
X0044725Y0084970D01*
X0044815Y0085078D01*
X0044907Y0085182D01*
X0045003Y0085284D01*
X0045102Y0085384D01*
X0045203Y0085480D01*
X0045307Y0085574D01*
X0045414Y0085664D01*
X0045523Y0085751D01*
X0045635Y0085836D01*
X0045749Y0085917D01*
X0045865Y0085995D01*
X0045983Y0086069D01*
X0046104Y0086140D01*
X0046226Y0086208D01*
X0046351Y0086272D01*
X0046477Y0086333D01*
X0046604Y0086390D01*
X0046734Y0086443D01*
X0046865Y0086493D01*
X0046997Y0086538D01*
X0047130Y0086581D01*
X0047265Y0086619D01*
X0047400Y0086653D01*
X0047537Y0086684D01*
X0047674Y0086711D01*
X0047812Y0086733D01*
X0047951Y0086752D01*
X0048090Y0086767D01*
X0048229Y0086778D01*
X0048369Y0086785D01*
X0048509Y0086788D01*
X0048649Y0086787D01*
X0048789Y0086782D01*
X0048928Y0086773D01*
X0049068Y0086760D01*
X0049207Y0086743D01*
X0049345Y0086722D01*
X0049483Y0086698D01*
X0049620Y0086669D01*
X0049756Y0086637D01*
X0049891Y0086600D01*
X0050025Y0086560D01*
X0050158Y0086516D01*
X0050289Y0086468D01*
X0050419Y0086417D01*
X0050548Y0086362D01*
X0050675Y0086303D01*
X0050800Y0086240D01*
X0050923Y0086175D01*
X0051045Y0086105D01*
X0051164Y0086032D01*
X0051282Y0085956D01*
X0051397Y0085877D01*
X0051510Y0085794D01*
X0051620Y0085708D01*
X0051728Y0085619D01*
X0051833Y0085527D01*
X0051936Y0085432D01*
X0052036Y0085334D01*
X0052133Y0085234D01*
X0052227Y0085130D01*
X0052319Y0085024D01*
X0052407Y0084916D01*
X0052492Y0084805D01*
X0052574Y0084691D01*
X0052653Y0084575D01*
X0052728Y0084458D01*
X0052800Y0084338D01*
X0052868Y0084216D01*
X0052933Y0084092D01*
X0052995Y0083966D01*
X0053053Y0083839D01*
X0053107Y0083710D01*
X0053158Y0083579D01*
X0053204Y0083447D01*
X0053247Y0083314D01*
X0053287Y0083180D01*
X0053322Y0083045D01*
X0053354Y0082908D01*
X0053381Y0082771D01*
X0053405Y0082633D01*
X0053425Y0082495D01*
X0053441Y0082356D01*
X0053453Y0082216D01*
X0053461Y0082077D01*
X0053465Y0081937D01*
X0053465Y0081797D01*
X0053461Y0081657D01*
X0053453Y0081518D01*
X0053441Y0081378D01*
X0053425Y0081239D01*
X0053405Y0081101D01*
X0053381Y0080963D01*
X0053354Y0080826D01*
X0053322Y0080689D01*
X0053287Y0080554D01*
X0053247Y0080420D01*
X0053204Y0080287D01*
X0053158Y0080155D01*
X0053107Y0080024D01*
X0053053Y0079895D01*
X0052995Y0079768D01*
X0052933Y0079642D01*
X0052868Y0079518D01*
X0052800Y0079396D01*
X0052728Y0079276D01*
X0052653Y0079159D01*
X0052574Y0079043D01*
X0052492Y0078929D01*
X0052407Y0078818D01*
X0052319Y0078710D01*
X0052227Y0078604D01*
X0052133Y0078500D01*
X0052036Y0078400D01*
X0051936Y0078302D01*
X0051833Y0078207D01*
X0051728Y0078115D01*
X0051620Y0078026D01*
X0051510Y0077940D01*
X0051397Y0077857D01*
X0051282Y0077778D01*
X0051164Y0077702D01*
X0051045Y0077629D01*
X0050923Y0077559D01*
X0050800Y0077494D01*
X0050675Y0077431D01*
X0050548Y0077372D01*
X0050419Y0077317D01*
X0050289Y0077266D01*
X0050158Y0077218D01*
X0050025Y0077174D01*
X0049891Y0077134D01*
X0049756Y0077097D01*
X0049620Y0077065D01*
X0049483Y0077036D01*
X0049345Y0077012D01*
X0049207Y0076991D01*
X0049068Y0076974D01*
X0048928Y0076961D01*
X0048789Y0076952D01*
X0048649Y0076947D01*
X0048509Y0076946D01*
X0048369Y0076949D01*
X0048229Y0076956D01*
X0048090Y0076967D01*
X0047951Y0076982D01*
X0047812Y0077001D01*
X0047674Y0077023D01*
X0047537Y0077050D01*
X0047400Y0077081D01*
X0047265Y0077115D01*
X0047130Y0077153D01*
X0046997Y0077196D01*
X0046865Y0077241D01*
X0046734Y0077291D01*
X0046604Y0077344D01*
X0046477Y0077401D01*
X0046351Y0077462D01*
X0046226Y0077526D01*
X0046104Y0077594D01*
X0045983Y0077665D01*
X0045865Y0077739D01*
X0045749Y0077817D01*
X0045635Y0077898D01*
X0045523Y0077983D01*
X0045414Y0078070D01*
X0045307Y0078160D01*
X0045203Y0078254D01*
X0045102Y0078350D01*
X0045003Y0078450D01*
X0044907Y0078552D01*
X0044815Y0078656D01*
X0044725Y0078764D01*
X0044638Y0078874D01*
X0044555Y0078986D01*
X0044474Y0079100D01*
X0044397Y0079217D01*
X0044324Y0079336D01*
X0044253Y0079457D01*
X0044187Y0079580D01*
X0044123Y0079705D01*
X0044064Y0079831D01*
X0044008Y0079960D01*
X0043955Y0080089D01*
X0043907Y0080220D01*
X0043862Y0080353D01*
X0043821Y0080487D01*
X0043783Y0080622D01*
X0043750Y0080757D01*
X0043720Y0080894D01*
X0043694Y0081032D01*
X0043673Y0081170D01*
X0043655Y0081309D01*
X0043641Y0081448D01*
X0043631Y0081587D01*
X0043625Y0081727D01*
X0043623Y0081867D01*
X0175119Y0083048D02*
X0175121Y0083188D01*
X0175127Y0083328D01*
X0175137Y0083467D01*
X0175151Y0083606D01*
X0175169Y0083745D01*
X0175190Y0083883D01*
X0175216Y0084021D01*
X0175246Y0084158D01*
X0175279Y0084293D01*
X0175317Y0084428D01*
X0175358Y0084562D01*
X0175403Y0084695D01*
X0175451Y0084826D01*
X0175504Y0084955D01*
X0175560Y0085084D01*
X0175619Y0085210D01*
X0175683Y0085335D01*
X0175749Y0085458D01*
X0175820Y0085579D01*
X0175893Y0085698D01*
X0175970Y0085815D01*
X0176051Y0085929D01*
X0176134Y0086041D01*
X0176221Y0086151D01*
X0176311Y0086259D01*
X0176403Y0086363D01*
X0176499Y0086465D01*
X0176598Y0086565D01*
X0176699Y0086661D01*
X0176803Y0086755D01*
X0176910Y0086845D01*
X0177019Y0086932D01*
X0177131Y0087017D01*
X0177245Y0087098D01*
X0177361Y0087176D01*
X0177479Y0087250D01*
X0177600Y0087321D01*
X0177722Y0087389D01*
X0177847Y0087453D01*
X0177973Y0087514D01*
X0178100Y0087571D01*
X0178230Y0087624D01*
X0178361Y0087674D01*
X0178493Y0087719D01*
X0178626Y0087762D01*
X0178761Y0087800D01*
X0178896Y0087834D01*
X0179033Y0087865D01*
X0179170Y0087892D01*
X0179308Y0087914D01*
X0179447Y0087933D01*
X0179586Y0087948D01*
X0179725Y0087959D01*
X0179865Y0087966D01*
X0180005Y0087969D01*
X0180145Y0087968D01*
X0180285Y0087963D01*
X0180424Y0087954D01*
X0180564Y0087941D01*
X0180703Y0087924D01*
X0180841Y0087903D01*
X0180979Y0087879D01*
X0181116Y0087850D01*
X0181252Y0087818D01*
X0181387Y0087781D01*
X0181521Y0087741D01*
X0181654Y0087697D01*
X0181785Y0087649D01*
X0181915Y0087598D01*
X0182044Y0087543D01*
X0182171Y0087484D01*
X0182296Y0087421D01*
X0182419Y0087356D01*
X0182541Y0087286D01*
X0182660Y0087213D01*
X0182778Y0087137D01*
X0182893Y0087058D01*
X0183006Y0086975D01*
X0183116Y0086889D01*
X0183224Y0086800D01*
X0183329Y0086708D01*
X0183432Y0086613D01*
X0183532Y0086515D01*
X0183629Y0086415D01*
X0183723Y0086311D01*
X0183815Y0086205D01*
X0183903Y0086097D01*
X0183988Y0085986D01*
X0184070Y0085872D01*
X0184149Y0085756D01*
X0184224Y0085639D01*
X0184296Y0085519D01*
X0184364Y0085397D01*
X0184429Y0085273D01*
X0184491Y0085147D01*
X0184549Y0085020D01*
X0184603Y0084891D01*
X0184654Y0084760D01*
X0184700Y0084628D01*
X0184743Y0084495D01*
X0184783Y0084361D01*
X0184818Y0084226D01*
X0184850Y0084089D01*
X0184877Y0083952D01*
X0184901Y0083814D01*
X0184921Y0083676D01*
X0184937Y0083537D01*
X0184949Y0083397D01*
X0184957Y0083258D01*
X0184961Y0083118D01*
X0184961Y0082978D01*
X0184957Y0082838D01*
X0184949Y0082699D01*
X0184937Y0082559D01*
X0184921Y0082420D01*
X0184901Y0082282D01*
X0184877Y0082144D01*
X0184850Y0082007D01*
X0184818Y0081870D01*
X0184783Y0081735D01*
X0184743Y0081601D01*
X0184700Y0081468D01*
X0184654Y0081336D01*
X0184603Y0081205D01*
X0184549Y0081076D01*
X0184491Y0080949D01*
X0184429Y0080823D01*
X0184364Y0080699D01*
X0184296Y0080577D01*
X0184224Y0080457D01*
X0184149Y0080340D01*
X0184070Y0080224D01*
X0183988Y0080110D01*
X0183903Y0079999D01*
X0183815Y0079891D01*
X0183723Y0079785D01*
X0183629Y0079681D01*
X0183532Y0079581D01*
X0183432Y0079483D01*
X0183329Y0079388D01*
X0183224Y0079296D01*
X0183116Y0079207D01*
X0183006Y0079121D01*
X0182893Y0079038D01*
X0182778Y0078959D01*
X0182660Y0078883D01*
X0182541Y0078810D01*
X0182419Y0078740D01*
X0182296Y0078675D01*
X0182171Y0078612D01*
X0182044Y0078553D01*
X0181915Y0078498D01*
X0181785Y0078447D01*
X0181654Y0078399D01*
X0181521Y0078355D01*
X0181387Y0078315D01*
X0181252Y0078278D01*
X0181116Y0078246D01*
X0180979Y0078217D01*
X0180841Y0078193D01*
X0180703Y0078172D01*
X0180564Y0078155D01*
X0180424Y0078142D01*
X0180285Y0078133D01*
X0180145Y0078128D01*
X0180005Y0078127D01*
X0179865Y0078130D01*
X0179725Y0078137D01*
X0179586Y0078148D01*
X0179447Y0078163D01*
X0179308Y0078182D01*
X0179170Y0078204D01*
X0179033Y0078231D01*
X0178896Y0078262D01*
X0178761Y0078296D01*
X0178626Y0078334D01*
X0178493Y0078377D01*
X0178361Y0078422D01*
X0178230Y0078472D01*
X0178100Y0078525D01*
X0177973Y0078582D01*
X0177847Y0078643D01*
X0177722Y0078707D01*
X0177600Y0078775D01*
X0177479Y0078846D01*
X0177361Y0078920D01*
X0177245Y0078998D01*
X0177131Y0079079D01*
X0177019Y0079164D01*
X0176910Y0079251D01*
X0176803Y0079341D01*
X0176699Y0079435D01*
X0176598Y0079531D01*
X0176499Y0079631D01*
X0176403Y0079733D01*
X0176311Y0079837D01*
X0176221Y0079945D01*
X0176134Y0080055D01*
X0176051Y0080167D01*
X0175970Y0080281D01*
X0175893Y0080398D01*
X0175820Y0080517D01*
X0175749Y0080638D01*
X0175683Y0080761D01*
X0175619Y0080886D01*
X0175560Y0081012D01*
X0175504Y0081141D01*
X0175451Y0081270D01*
X0175403Y0081401D01*
X0175358Y0081534D01*
X0175317Y0081668D01*
X0175279Y0081803D01*
X0175246Y0081938D01*
X0175216Y0082075D01*
X0175190Y0082213D01*
X0175169Y0082351D01*
X0175151Y0082490D01*
X0175137Y0082629D01*
X0175127Y0082768D01*
X0175121Y0082908D01*
X0175119Y0083048D01*
X0175119Y0160017D02*
X0175121Y0160157D01*
X0175127Y0160297D01*
X0175137Y0160436D01*
X0175151Y0160575D01*
X0175169Y0160714D01*
X0175190Y0160852D01*
X0175216Y0160990D01*
X0175246Y0161127D01*
X0175279Y0161262D01*
X0175317Y0161397D01*
X0175358Y0161531D01*
X0175403Y0161664D01*
X0175451Y0161795D01*
X0175504Y0161924D01*
X0175560Y0162053D01*
X0175619Y0162179D01*
X0175683Y0162304D01*
X0175749Y0162427D01*
X0175820Y0162548D01*
X0175893Y0162667D01*
X0175970Y0162784D01*
X0176051Y0162898D01*
X0176134Y0163010D01*
X0176221Y0163120D01*
X0176311Y0163228D01*
X0176403Y0163332D01*
X0176499Y0163434D01*
X0176598Y0163534D01*
X0176699Y0163630D01*
X0176803Y0163724D01*
X0176910Y0163814D01*
X0177019Y0163901D01*
X0177131Y0163986D01*
X0177245Y0164067D01*
X0177361Y0164145D01*
X0177479Y0164219D01*
X0177600Y0164290D01*
X0177722Y0164358D01*
X0177847Y0164422D01*
X0177973Y0164483D01*
X0178100Y0164540D01*
X0178230Y0164593D01*
X0178361Y0164643D01*
X0178493Y0164688D01*
X0178626Y0164731D01*
X0178761Y0164769D01*
X0178896Y0164803D01*
X0179033Y0164834D01*
X0179170Y0164861D01*
X0179308Y0164883D01*
X0179447Y0164902D01*
X0179586Y0164917D01*
X0179725Y0164928D01*
X0179865Y0164935D01*
X0180005Y0164938D01*
X0180145Y0164937D01*
X0180285Y0164932D01*
X0180424Y0164923D01*
X0180564Y0164910D01*
X0180703Y0164893D01*
X0180841Y0164872D01*
X0180979Y0164848D01*
X0181116Y0164819D01*
X0181252Y0164787D01*
X0181387Y0164750D01*
X0181521Y0164710D01*
X0181654Y0164666D01*
X0181785Y0164618D01*
X0181915Y0164567D01*
X0182044Y0164512D01*
X0182171Y0164453D01*
X0182296Y0164390D01*
X0182419Y0164325D01*
X0182541Y0164255D01*
X0182660Y0164182D01*
X0182778Y0164106D01*
X0182893Y0164027D01*
X0183006Y0163944D01*
X0183116Y0163858D01*
X0183224Y0163769D01*
X0183329Y0163677D01*
X0183432Y0163582D01*
X0183532Y0163484D01*
X0183629Y0163384D01*
X0183723Y0163280D01*
X0183815Y0163174D01*
X0183903Y0163066D01*
X0183988Y0162955D01*
X0184070Y0162841D01*
X0184149Y0162725D01*
X0184224Y0162608D01*
X0184296Y0162488D01*
X0184364Y0162366D01*
X0184429Y0162242D01*
X0184491Y0162116D01*
X0184549Y0161989D01*
X0184603Y0161860D01*
X0184654Y0161729D01*
X0184700Y0161597D01*
X0184743Y0161464D01*
X0184783Y0161330D01*
X0184818Y0161195D01*
X0184850Y0161058D01*
X0184877Y0160921D01*
X0184901Y0160783D01*
X0184921Y0160645D01*
X0184937Y0160506D01*
X0184949Y0160366D01*
X0184957Y0160227D01*
X0184961Y0160087D01*
X0184961Y0159947D01*
X0184957Y0159807D01*
X0184949Y0159668D01*
X0184937Y0159528D01*
X0184921Y0159389D01*
X0184901Y0159251D01*
X0184877Y0159113D01*
X0184850Y0158976D01*
X0184818Y0158839D01*
X0184783Y0158704D01*
X0184743Y0158570D01*
X0184700Y0158437D01*
X0184654Y0158305D01*
X0184603Y0158174D01*
X0184549Y0158045D01*
X0184491Y0157918D01*
X0184429Y0157792D01*
X0184364Y0157668D01*
X0184296Y0157546D01*
X0184224Y0157426D01*
X0184149Y0157309D01*
X0184070Y0157193D01*
X0183988Y0157079D01*
X0183903Y0156968D01*
X0183815Y0156860D01*
X0183723Y0156754D01*
X0183629Y0156650D01*
X0183532Y0156550D01*
X0183432Y0156452D01*
X0183329Y0156357D01*
X0183224Y0156265D01*
X0183116Y0156176D01*
X0183006Y0156090D01*
X0182893Y0156007D01*
X0182778Y0155928D01*
X0182660Y0155852D01*
X0182541Y0155779D01*
X0182419Y0155709D01*
X0182296Y0155644D01*
X0182171Y0155581D01*
X0182044Y0155522D01*
X0181915Y0155467D01*
X0181785Y0155416D01*
X0181654Y0155368D01*
X0181521Y0155324D01*
X0181387Y0155284D01*
X0181252Y0155247D01*
X0181116Y0155215D01*
X0180979Y0155186D01*
X0180841Y0155162D01*
X0180703Y0155141D01*
X0180564Y0155124D01*
X0180424Y0155111D01*
X0180285Y0155102D01*
X0180145Y0155097D01*
X0180005Y0155096D01*
X0179865Y0155099D01*
X0179725Y0155106D01*
X0179586Y0155117D01*
X0179447Y0155132D01*
X0179308Y0155151D01*
X0179170Y0155173D01*
X0179033Y0155200D01*
X0178896Y0155231D01*
X0178761Y0155265D01*
X0178626Y0155303D01*
X0178493Y0155346D01*
X0178361Y0155391D01*
X0178230Y0155441D01*
X0178100Y0155494D01*
X0177973Y0155551D01*
X0177847Y0155612D01*
X0177722Y0155676D01*
X0177600Y0155744D01*
X0177479Y0155815D01*
X0177361Y0155889D01*
X0177245Y0155967D01*
X0177131Y0156048D01*
X0177019Y0156133D01*
X0176910Y0156220D01*
X0176803Y0156310D01*
X0176699Y0156404D01*
X0176598Y0156500D01*
X0176499Y0156600D01*
X0176403Y0156702D01*
X0176311Y0156806D01*
X0176221Y0156914D01*
X0176134Y0157024D01*
X0176051Y0157136D01*
X0175970Y0157250D01*
X0175893Y0157367D01*
X0175820Y0157486D01*
X0175749Y0157607D01*
X0175683Y0157730D01*
X0175619Y0157855D01*
X0175560Y0157981D01*
X0175504Y0158110D01*
X0175451Y0158239D01*
X0175403Y0158370D01*
X0175358Y0158503D01*
X0175317Y0158637D01*
X0175279Y0158772D01*
X0175246Y0158907D01*
X0175216Y0159044D01*
X0175190Y0159182D01*
X0175169Y0159320D01*
X0175151Y0159459D01*
X0175137Y0159598D01*
X0175127Y0159737D01*
X0175121Y0159877D01*
X0175119Y0160017D01*
D12*
X0014961Y0146749D03*
D13*
X0024961Y0146749D03*
X0024961Y0136749D03*
X0014961Y0136749D03*
X0014961Y0126749D03*
X0024961Y0126749D03*
X0024961Y0116749D03*
X0014961Y0116749D03*
X0014961Y0106749D03*
X0024961Y0106749D03*
X0024961Y0096749D03*
X0014961Y0096749D03*
X0014961Y0086749D03*
X0014961Y0076749D03*
X0024961Y0076749D03*
X0024961Y0086749D03*
X0024961Y0066749D03*
X0014961Y0066749D03*
X0014961Y0056749D03*
X0024961Y0056749D03*
D14*
X0168386Y0103704D03*
X0168386Y0107644D03*
X0168386Y0111584D03*
X0168386Y0115524D03*
X0168386Y0119464D03*
X0168386Y0123404D03*
X0168386Y0127344D03*
X0168386Y0131284D03*
X0168386Y0135224D03*
X0168386Y0139164D03*
X0180986Y0139164D03*
X0180986Y0135224D03*
X0180986Y0131284D03*
X0180986Y0127344D03*
X0180986Y0123404D03*
X0180986Y0119464D03*
X0180986Y0115524D03*
X0180986Y0111584D03*
X0180986Y0107644D03*
X0180986Y0103704D03*
D15*
X0171253Y0057879D02*
X0171253Y0051879D01*
X0161410Y0051879D02*
X0161410Y0057879D01*
X0126454Y0057800D02*
X0126454Y0051800D01*
X0116611Y0051800D02*
X0116611Y0057800D01*
X0106769Y0057800D02*
X0106769Y0051800D01*
X0096926Y0051800D02*
X0096926Y0057800D01*
X0061450Y0057800D02*
X0061450Y0051800D01*
X0051607Y0051800D02*
X0051607Y0057800D01*
D16*
X0049725Y0067300D03*
X0059174Y0089347D03*
X0074922Y0078324D03*
X0093426Y0099583D03*
X0093032Y0116119D03*
X0092639Y0144072D03*
X0092639Y0151946D03*
X0043426Y0138954D03*
X0034765Y0110607D03*
X0034371Y0102339D03*
X0042113Y0090397D03*
X0110355Y0075174D03*
X0119017Y0078324D03*
X0137127Y0085804D03*
X0161930Y0107457D03*
X0161930Y0111788D03*
X0174135Y0122418D03*
X0174135Y0126355D03*
X0174135Y0130686D03*
X0174135Y0136591D03*
X0180828Y0098402D03*
X0165080Y0092891D03*
X0166309Y0084161D03*
D17*
X0156418Y0077143D02*
X0152875Y0080686D01*
X0152875Y0114150D01*
X0157993Y0119269D01*
X0168191Y0119269D01*
X0168386Y0119464D02*
X0168386Y0123404D01*
X0157993Y0119269D02*
X0120591Y0119269D01*
X0108072Y0106749D01*
X0024961Y0106749D01*
X0156418Y0077143D02*
X0171379Y0067300D01*
X0171379Y0055005D01*
M02*
